<svg id="Layer_1" data-name="Layer 1" xmlns="http://www.w3.org/2000/svg" viewBox="0 0 56 21.4"><defs><style>.cls-1{fill:#3dbff2;}.cls-2{fill:#edc621;}.cls-3{fill:#f9ae08;}.cls-4{fill:#1a9ac1;}.cls-5{fill:#c1910a;}</style></defs><rect class="cls-1" width="56" height="21.4"/><circle class="cls-2" cx="27.53" cy="7.98" r="6.79"/><circle class="cls-3" cx="28.29" cy="8.55" r="6.79"/><rect class="cls-1" x="21.41" y="11.23" width="12.67" height="4.11"/><path class="cls-4" d="M21.21,11.46c.63-1,2-3.76,1.56-2.26-.26.86,1,1.52,1.71,1.66s2.37-.52,2.17-1.66c-.29-1.58,1.18,2,1.93,2a2.13,2.13,0,0,0,2-2.11c-.11-1.8.14,1.85.84,1.82s2.41-2.8,2.24-1.82a2.25,2.25,0,0,0,1.13,2.41"/><path class="cls-1" d="M21.75,11.55c.63-1.09,2-4,1.58-2.4-.27.92,1.05,1.62,1.73,1.76.83.17,2.41-.54,2.2-1.76-.29-1.68,1.2,2.14,2,2.08a2.21,2.21,0,0,0,2-2.24c-.11-1.92.14,2,.85,1.93S34.55,8,34.37,9a2.44,2.44,0,0,0,1.15,2.56"/><path class="cls-5" d="M13.26,10.3a1,1,0,0,1,.28.16.77.77,0,0,1,.19.29,1.7,1.7,0,0,1,.09.45,3.09,3.09,0,0,1,0,.65c.08,0,.14-.07.18-.2a1.78,1.78,0,0,0,.06-.39,2,2,0,0,0,0-.49,1.26,1.26,0,0,0-.2-.46.69.69,0,0,0-.41-.29.72.72,0,0,0-.28,0,.64.64,0,0,0-.22.06,1.16,1.16,0,0,1-.11-.37,3.23,3.23,0,0,1,0-.46q0-.26.06-.54a3.9,3.9,0,0,1,.13-.57,5.08,5.08,0,0,1,.58-1.32,3,3,0,0,1,.72-.8A1.72,1.72,0,0,1,15,5.64a1.67,1.67,0,0,1,.74,0,2.25,2.25,0,0,1,.54.25,2.16,2.16,0,0,1,.39.34,1.66,1.66,0,0,1,.26.39,1.63,1.63,0,0,1,.15.4,3.08,3.08,0,0,1-.08.47c0,.17-.08.34-.13.52l-.12.36a3,3,0,0,1-.16.36,1.74,1.74,0,0,1-.18.33,1.25,1.25,0,0,1-.18.24,1.44,1.44,0,0,0-.11-.2,1.7,1.7,0,0,0-.17-.23l-.24-.21a1,1,0,0,0-.28-.14.43.43,0,0,0-.29,0,.21.21,0,0,0-.14.16.52.52,0,0,0,0,.11.38.38,0,0,1,.15,0,.33.33,0,0,1,.15,0,1.09,1.09,0,0,1,.5.3,1.39,1.39,0,0,1,.34.6,3.06,3.06,0,0,1,.08.95A5.58,5.58,0,0,1,15.93,12a5.19,5.19,0,0,1-.46,1.1,3.61,3.61,0,0,1-.66.84,2.1,2.1,0,0,1-.81.47,1.52,1.52,0,0,1-.92,0,4.7,4.7,0,0,1-.45-.17,2.35,2.35,0,0,1-.37-.24,1.64,1.64,0,0,1-.31-.33,2.44,2.44,0,0,1-.26-.43,4.35,4.35,0,0,1,0-.71,4,4,0,0,1,.17-.82,3.42,3.42,0,0,1,.26-.64,2.27,2.27,0,0,1,.34-.48,1.33,1.33,0,0,1,.38-.27A.59.59,0,0,1,13.26,10.3Z"/><path class="cls-5" d="M19.2,18.1l-.14.12a.91.91,0,0,1-.17.09l-.22.05a.86.86,0,0,1-.27,0,1.13,1.13,0,0,1-.33-.13,1,1,0,0,1-.3-.25,1.62,1.62,0,0,1-.25-.43,2.39,2.39,0,0,1-.14-.61,4.49,4.49,0,0,1,0-.83A7,7,0,0,1,17.53,15l.35-1.69a5.94,5.94,0,0,1,0-.61A4.79,4.79,0,0,1,18,12a2.83,2.83,0,0,1,.09-.37c0-.13.08-.26.12-.38a3,3,0,0,1,.14-.36,2.43,2.43,0,0,1,.18-.32l.8.17a.84.84,0,0,1,.38.18.85.85,0,0,1,.25.35,1.69,1.69,0,0,1,.09.54,2.9,2.9,0,0,1-.08.73l-.46,2.19a1.77,1.77,0,0,0-.07.52c0,.1,0,.15.07.16a.07.07,0,0,0,.06,0l0,0c0-.08,0-.17,0-.28a3.3,3.3,0,0,1,.08-.42l.7-3.33.19-.12.23-.1a1.18,1.18,0,0,1,.28,0,1.27,1.27,0,0,1,.33,0,1.05,1.05,0,0,1,.52.28,1,1,0,0,1,.26.47l-.74,3.51a4.67,4.67,0,0,0-.12.81,1,1,0,0,0,.11.56,1.3,1.3,0,0,0,0,.13l0,.12a4.73,4.73,0,0,1-.27.87,2.24,2.24,0,0,1-.33.56,1,1,0,0,1-.39.29.72.72,0,0,1-.88-.31,1.46,1.46,0,0,1-.2-.76c-.08,0-.14,0-.17.19a.42.42,0,0,0,0,.16A.51.51,0,0,0,19.2,18.1Z"/><path class="cls-5" d="M23.89,12.07a.29.29,0,0,1,.24,0,.92.92,0,0,1,.22.22,1.05,1.05,0,0,0,0,.48.35.35,0,0,0,.06.14.09.09,0,0,0,.1,0,3.55,3.55,0,0,1,.06-.47,1.88,1.88,0,0,1,.14-.42,1,1,0,0,1,.24-.31.73.73,0,0,1,.35-.18.54.54,0,0,1,.31,0,.89.89,0,0,1,.29.15,1.79,1.79,0,0,1,.25.23,2.11,2.11,0,0,1,.18.27,1.64,1.64,0,0,1,.1-.41,1.19,1.19,0,0,1,.15-.32.88.88,0,0,1,.21-.22.66.66,0,0,1,.24-.11.81.81,0,0,1,.55.08,1.47,1.47,0,0,1,.5.47,3.77,3.77,0,0,1,.43.83,7,7,0,0,1,.34,1.14c.05.2.09.42.14.65s.1.46.15.68a5.54,5.54,0,0,0,.22.76,1.06,1.06,0,0,0,.29.45l0,.11,0,.1a4.94,4.94,0,0,1,.12.85,2.6,2.6,0,0,1-.06.66,1,1,0,0,1-.2.43.58.58,0,0,1-.31.2.66.66,0,0,1-.39,0,.93.93,0,0,1-.38-.28,2.5,2.5,0,0,1-.35-.6,5.64,5.64,0,0,1-.3-1l-.47-2.1c-.07-.3-.15-.43-.24-.41l0,0,0,.05.28,1,.34,1.5a7.54,7.54,0,0,0,.21.77,3.05,3.05,0,0,0,.24.57,1.53,1.53,0,0,1-.26.62.75.75,0,0,1-.41.29.65.65,0,0,1-.34,0,.67.67,0,0,1-.34-.24,2,2,0,0,1-.31-.53,4.9,4.9,0,0,1-.27-.88l-.53-2.33q-.11-.45-.24-.42a.18.18,0,0,0-.07.07l.28,1L26,17.44c.06.24.11.45.16.63a3.72,3.72,0,0,0,.2.5,1.36,1.36,0,0,1-.25.57.8.8,0,0,1-.47.3.59.59,0,0,1-.32,0,.81.81,0,0,1-.32-.2,2,2,0,0,1-.29-.41,2.71,2.71,0,0,1-.22-.63L23.75,15a3.36,3.36,0,0,1-.29-.6q-.12-.35-.21-.72a6.85,6.85,0,0,1-.11-.72,4.45,4.45,0,0,1,0-.72Z"/><path class="cls-5" d="M39.82,18a1.26,1.26,0,0,1-.85-.09,2.17,2.17,0,0,1-.78-.64,4.75,4.75,0,0,1-.68-1.17A9.46,9.46,0,0,1,37,14.5a10.66,10.66,0,0,1-.27-1.76,5,5,0,0,1,.1-1.34,2.2,2.2,0,0,1,.38-.9,1.18,1.18,0,0,1,.63-.42,1.06,1.06,0,0,1,.74.09,2,2,0,0,1,.69.55,4.25,4.25,0,0,1,.57.92,6.76,6.76,0,0,1,.4,1.2,4.63,4.63,0,0,1,.15,1.08,2.3,2.3,0,0,1-.1.79,1.22,1.22,0,0,1-.32.53,1,1,0,0,1-.49.26.82.82,0,0,1-.44,0,1,1,0,0,1-.41-.22.22.22,0,0,0,0,.08s0,.06,0,.08a.34.34,0,0,0,.11.19.88.88,0,0,0,.23.14,1.15,1.15,0,0,0,.28.07.76.76,0,0,0,.3,0,1.16,1.16,0,0,0,.34-.14,1.32,1.32,0,0,0,.25-.21,1.44,1.44,0,0,0,.18-.25,1.58,1.58,0,0,0,.11-.23.7.7,0,0,1,.12.2,2.37,2.37,0,0,1,.13.32,2.53,2.53,0,0,1,.12.36l.1.35c0,.1,0,.21.06.3s0,.18,0,.25a2.83,2.83,0,0,1-.14.41,1.31,1.31,0,0,1-.21.36,1.18,1.18,0,0,1-.33.3A1.36,1.36,0,0,1,39.82,18Zm-1.15-4.67a.14.14,0,0,0,.1-.1.46.46,0,0,0,0-.2.3.3,0,0,0-.09-.18.14.14,0,0,0-.12,0c-.06,0-.1.06-.12.14a1,1,0,0,0,0,.3l.1.06A.19.19,0,0,0,38.67,13.36Z"/><path class="cls-5" d="M39.76,7.22a.59.59,0,0,1,.43,0,.92.92,0,0,1,.39.28,2.24,2.24,0,0,0,0,.26l0,.29a1.86,1.86,0,0,0,0,.27,1.67,1.67,0,0,0,.05.19.3.3,0,0,0,.09.13.12.12,0,0,0,.13,0,5,5,0,0,1-.13-.9,2,2,0,0,1,.09-.65.86.86,0,0,1,.24-.42.92.92,0,0,1,.35-.24,1.29,1.29,0,0,1,.31-.08h.28a.84.84,0,0,1,.24.06l.2.1a5.88,5.88,0,0,1,.32.56q.15.3.27.6a7.37,7.37,0,0,1,.3.92,5.39,5.39,0,0,1,.11.64,1,1,0,0,1-.1.16,1.29,1.29,0,0,1-.16.17,1.56,1.56,0,0,1-.2.16l-.22.11a1.19,1.19,0,0,1-.23.07l-.18,0H42.1a.38.38,0,0,0,0,.17.22.22,0,0,0,.13.12,1.19,1.19,0,0,0,.29,0l1.32,3.34a1.8,1.8,0,0,1-.16.34,1.27,1.27,0,0,1-.2.24,1,1,0,0,1-.21.16,1,1,0,0,1-.21.1,1,1,0,0,1-.41.08.78.78,0,0,1-.4-.08,1.17,1.17,0,0,1-.36-.28,1.69,1.69,0,0,1-.29-.5l-1.35-3.42a2.78,2.78,0,0,1-.41-.57,4.81,4.81,0,0,1-.35-.72,4.91,4.91,0,0,1-.22-.73,3,3,0,0,1-.11-.75Z"/><path class="cls-2" d="M14.47,11.24a.5.5,0,0,1,.26.11.54.54,0,0,1,.2.24,1.39,1.39,0,0,1,.13.42,3.47,3.47,0,0,1,0,.6c.07,0,.11-.08.13-.2a2.06,2.06,0,0,0,0-.38,1.8,1.8,0,0,0-.09-.45,1.25,1.25,0,0,0-.22-.41.68.68,0,0,0-.41-.21.42.42,0,0,0-.25,0l-.19.08a1.26,1.26,0,0,1-.13-.33,2.54,2.54,0,0,1-.08-.43c0-.16,0-.33,0-.51a5.43,5.43,0,0,1,.06-.55,5.1,5.1,0,0,1,.38-1.31,2.86,2.86,0,0,1,.56-.84,1.72,1.72,0,0,1,.65-.42,1.26,1.26,0,0,1,.66-.06,1.61,1.61,0,0,1,.51.16,2.16,2.16,0,0,1,.38.27,1.75,1.75,0,0,1,.28.33,2.91,2.91,0,0,1,.18.35,3.64,3.64,0,0,1,0,.45,4.53,4.53,0,0,1-.06.5c0,.12,0,.24-.07.36s-.07.24-.1.36l-.12.32A2,2,0,0,1,17,10a1,1,0,0,0-.11-.18,1.07,1.07,0,0,0-.18-.19l-.23-.17a.72.72,0,0,0-.27-.09.46.46,0,0,0-.27,0,.26.26,0,0,0-.1.17s0,.08,0,.11a.35.35,0,0,1,.14,0h.14a1,1,0,0,1,.48.22,1.3,1.3,0,0,1,.36.52,2.83,2.83,0,0,1,.18.88A6.12,6.12,0,0,1,17,12.5a6,6,0,0,1-.3,1.09,3.31,3.31,0,0,1-.5.87,2,2,0,0,1-.67.54,1.33,1.33,0,0,1-.82.1,2.58,2.58,0,0,1-.42-.1,2,2,0,0,1-.36-.18,1.86,1.86,0,0,1-.31-.26,2.72,2.72,0,0,1-.27-.37,4.77,4.77,0,0,1-.06-.67,4.62,4.62,0,0,1,.07-.79,2.9,2.9,0,0,1,.16-.63,2.49,2.49,0,0,1,.25-.49,1.24,1.24,0,0,1,.31-.3A.5.5,0,0,1,14.47,11.24Z"/><path class="cls-2" d="M20.13,18a.69.69,0,0,1-.13.11.83.83,0,0,1-.16.09l-.21,0a.77.77,0,0,1-.26,0,1,1,0,0,1-.32-.12.93.93,0,0,1-.3-.23,1.44,1.44,0,0,1-.24-.39,2,2,0,0,1-.15-.56,3.55,3.55,0,0,1,0-.75,5.62,5.62,0,0,1,.13-1l.3-1.54a3.33,3.33,0,0,1,0-.56,3.75,3.75,0,0,1,.08-.69c0-.11.05-.22.08-.34s.07-.23.11-.35.08-.22.13-.33a2.69,2.69,0,0,1,.16-.29l.77.16a.93.93,0,0,1,.37.15.83.83,0,0,1,.24.33,1.31,1.31,0,0,1,.11.49,2.42,2.42,0,0,1-.07.67l-.39,2a2.3,2.3,0,0,0-.06.47c0,.09,0,.14.07.15h.06l.05,0c0-.08,0-.16,0-.26s0-.23.07-.39l.6-3a.78.78,0,0,1,.18-.11.67.67,0,0,1,.21-.09,1.17,1.17,0,0,1,.27,0,1.22,1.22,0,0,1,.32,0,1,1,0,0,1,.5.25,1,1,0,0,1,.27.43l-.64,3.21a5.9,5.9,0,0,0-.09.74,1,1,0,0,0,.11.51.74.74,0,0,1,0,.12l0,.11a4.17,4.17,0,0,1-.23.79,2.23,2.23,0,0,1-.31.52.87.87,0,0,1-.37.26.68.68,0,0,1-.4,0,.7.7,0,0,1-.45-.3,1.39,1.39,0,0,1-.21-.71c-.08,0-.13.05-.16.18a.76.76,0,0,0,0,.15A.83.83,0,0,0,20.13,18Z"/><path class="cls-2" d="M24.83,12.35a.23.23,0,0,1,.22.05.73.73,0,0,1,.19.2,1,1,0,0,0,0,.45.39.39,0,0,0,.05.13.09.09,0,0,0,.09.05,3.14,3.14,0,0,1,0-.45,1.89,1.89,0,0,1,.12-.38,1,1,0,0,1,.21-.3.62.62,0,0,1,.3-.16.44.44,0,0,1,.28,0,.89.89,0,0,1,.25.14,1.2,1.2,0,0,1,.22.23,1.38,1.38,0,0,1,.17.25,1.59,1.59,0,0,1,.08-.39,1.36,1.36,0,0,1,.13-.3.79.79,0,0,1,.17-.19.5.5,0,0,1,.21-.1.61.61,0,0,1,.49.08,1.43,1.43,0,0,1,.45.44,4,4,0,0,1,.39.78A8.21,8.21,0,0,1,29.19,14c0,.19.09.39.13.62s.1.43.14.63a6.64,6.64,0,0,0,.21.72,1,1,0,0,0,.26.42l0,.11,0,.09a4.44,4.44,0,0,1,.12.8,2.28,2.28,0,0,1,0,.61.91.91,0,0,1-.17.41.41.41,0,0,1-.27.18.51.51,0,0,1-.34,0,.81.81,0,0,1-.34-.27,2.18,2.18,0,0,1-.32-.56,5.52,5.52,0,0,1-.28-.91l-.45-2c-.06-.28-.14-.41-.22-.39l0,0,0,0,.26.92.32,1.42c.07.27.13.51.2.72a2.75,2.75,0,0,0,.22.54,1.33,1.33,0,0,1-.22.58.6.6,0,0,1-.36.26.51.51,0,0,1-.3,0,.76.76,0,0,1-.3-.23,2.47,2.47,0,0,1-.28-.5,4.76,4.76,0,0,1-.25-.84l-.5-2.19c-.07-.28-.14-.41-.22-.39l0,0a.08.08,0,0,0,0,0l.26.92.38,1.66c0,.23.1.42.15.59a3.41,3.41,0,0,0,.18.48,1.21,1.21,0,0,1-.22.53.62.62,0,0,1-.4.27.45.45,0,0,1-.28,0,.72.72,0,0,1-.29-.2,1.48,1.48,0,0,1-.26-.38,2.54,2.54,0,0,1-.2-.59l-.68-3a3.76,3.76,0,0,1-.26-.57,6.24,6.24,0,0,1-.2-.69,5.51,5.51,0,0,1-.11-.67,4,4,0,0,1,0-.67Z"/><path class="cls-2" d="M40.38,17.35a1,1,0,0,1-.76-.12,2.19,2.19,0,0,1-.72-.66,6.4,6.4,0,0,1-.63-1.18,11,11,0,0,1-.5-1.64A10.66,10.66,0,0,1,37.5,12a5.6,5.6,0,0,1,0-1.33,2.31,2.31,0,0,1,.33-.88,1,1,0,0,1,.55-.4.94.94,0,0,1,.67.11,2,2,0,0,1,.62.56,4.37,4.37,0,0,1,.53.94,7,7,0,0,1,.39,1.2,5.32,5.32,0,0,1,.16,1.08,2.67,2.67,0,0,1-.08.79,1.12,1.12,0,0,1-.27.51.89.89,0,0,1-.44.25.69.69,0,0,1-.4,0,1,1,0,0,1-.37-.22.08.08,0,0,0,0,.07s0,.06,0,.08a.37.37,0,0,0,.11.19,1,1,0,0,0,.2.15,1.12,1.12,0,0,0,.26.08.75.75,0,0,0,.26,0,1,1,0,0,0,.31-.13,1.1,1.1,0,0,0,.22-.21,1.14,1.14,0,0,0,.15-.23,1.54,1.54,0,0,0,.1-.24,1.9,1.9,0,0,1,.11.21c0,.1.09.21.13.32s.08.24.11.37a2.9,2.9,0,0,1,.09.34c0,.11.05.21.07.31s0,.18,0,.25-.07.27-.11.4a2,2,0,0,1-.18.36,1.54,1.54,0,0,1-.29.28A1.36,1.36,0,0,1,40.38,17.35Zm-1.12-4.68a.18.18,0,0,0,.09-.1.46.46,0,0,0,0-.2.3.3,0,0,0-.09-.18.1.1,0,0,0-.11,0s-.08.06-.1.14a1,1,0,0,0,0,.3l.09.06A.17.17,0,0,0,39.26,12.67Z"/><path class="cls-2" d="M40.71,6.87a.61.61,0,0,1,.42,0,1,1,0,0,1,.37.27,1.13,1.13,0,0,0,0,.26,2.83,2.83,0,0,0,0,.29c0,.09,0,.18,0,.26a1.06,1.06,0,0,0,0,.18.32.32,0,0,0,.08.13.13.13,0,0,0,.13,0,4,4,0,0,1-.12-.89,1.91,1.91,0,0,1,.09-.63A1,1,0,0,1,42,6.36a1.08,1.08,0,0,1,.35-.22,1.11,1.11,0,0,1,.29-.07.8.8,0,0,1,.27,0,.86.86,0,0,1,.23.06l.19.1a4.1,4.1,0,0,1,.3.55c.1.2.18.4.26.6a7.91,7.91,0,0,1,.28.9c0,.25.09.46.11.63a1.16,1.16,0,0,1-.11.16,1.1,1.1,0,0,1-.15.16,1.33,1.33,0,0,1-.19.14,1.13,1.13,0,0,1-.22.11l-.21.07-.18,0h-.31a.61.61,0,0,0,0,.17.18.18,0,0,0,.12.12l.28,0,1.24,3.29a1.19,1.19,0,0,1-.15.32,1.57,1.57,0,0,1-.2.23.74.74,0,0,1-.2.16,1.76,1.76,0,0,1-.2.09,1.09,1.09,0,0,1-.4.07.85.85,0,0,1-.38-.09,1.1,1.1,0,0,1-.34-.28,1.52,1.52,0,0,1-.27-.49L41.19,9.8a2.76,2.76,0,0,1-.39-.56,5.13,5.13,0,0,1-.33-.71,5.47,5.47,0,0,1-.21-.71,4.33,4.33,0,0,1-.1-.74Z"/><path class="cls-5" d="M32.72,11.05a.26.26,0,0,1,.19.15,1.1,1.1,0,0,1,.09.29,1.27,1.27,0,0,0-.23.42.71.71,0,0,0,0,.14s0,.08.07.09a2.8,2.8,0,0,1,.25-.41,2.16,2.16,0,0,1,.29-.31,1.24,1.24,0,0,1,.34-.18.66.66,0,0,1,.37,0,.55.55,0,0,1,.26.14,1,1,0,0,1,.18.26,1.15,1.15,0,0,1,.11.31,1.92,1.92,0,0,1,0,.32,1.78,1.78,0,0,1,.25-.33,1,1,0,0,1,.27-.22.66.66,0,0,1,.26-.11.53.53,0,0,1,.25,0,.71.71,0,0,1,.44.3,1.56,1.56,0,0,1,.23.64,3.92,3.92,0,0,1,0,.92,9.59,9.59,0,0,1-.18,1.17c0,.2-.1.42-.16.65l-.15.67a5.73,5.73,0,0,0-.13.78,1,1,0,0,0,.06.52s0,.08,0,.12l0,.09a4.41,4.41,0,0,1-.26.82,2.23,2.23,0,0,1-.32.56,1,1,0,0,1-.34.31.55.55,0,0,1-.35.05.63.63,0,0,1-.32-.19A.76.76,0,0,1,34,18.6a2.43,2.43,0,0,1,0-.69,6.25,6.25,0,0,1,.14-1l.47-2.09c.07-.29.06-.45,0-.47h-.05l0,0-.17,1-.34,1.5c-.06.28-.11.54-.14.77a3.45,3.45,0,0,0,0,.62,1.44,1.44,0,0,1-.48.45.63.63,0,0,1-.47.08.51.51,0,0,1-.28-.15.69.69,0,0,1-.19-.36,2.17,2.17,0,0,1-.05-.61,5.35,5.35,0,0,1,.14-.91L33,14.45c.07-.29.06-.45,0-.47h-.05l0,0-.17,1-.39,1.75c-.06.24-.1.45-.13.63a3.27,3.27,0,0,0,0,.54,1.55,1.55,0,0,1-.45.41.79.79,0,0,1-.52.07.46.46,0,0,1-.26-.15.78.78,0,0,1-.19-.32,1.44,1.44,0,0,1-.08-.49,2.75,2.75,0,0,1,.07-.66l.71-3.16a3.69,3.69,0,0,1,0-.66c0-.24.07-.49.12-.74s.12-.44.2-.69a4.47,4.47,0,0,1,.29-.65Z"/><path class="cls-2" d="M33.46,11.56a.18.18,0,0,1,.15.12.88.88,0,0,1,.08.26,1,1,0,0,0-.19.39.62.62,0,0,0,0,.13s0,.07.06.08a2.28,2.28,0,0,1,.2-.38,1.82,1.82,0,0,1,.23-.3,1.06,1.06,0,0,1,.27-.18.44.44,0,0,1,.3,0,.36.36,0,0,1,.21.11.91.91,0,0,1,.15.23,1.31,1.31,0,0,1,.09.28,1.5,1.5,0,0,1,0,.29,3,3,0,0,1,.21-.32l.21-.21a.71.71,0,0,1,.21-.11.45.45,0,0,1,.2,0,.54.54,0,0,1,.36.25,1.37,1.37,0,0,1,.18.57,4.47,4.47,0,0,1,0,.84,10.34,10.34,0,0,1-.16,1.07c0,.18-.08.38-.12.59s-.09.42-.13.61a6.4,6.4,0,0,0-.11.72,1.09,1.09,0,0,0,.05.47s0,.07,0,.11l0,.09a4,4,0,0,1-.2.75,3.13,3.13,0,0,1-.26.52,1,1,0,0,1-.28.3.39.39,0,0,1-.29.06.43.43,0,0,1-.25-.16.75.75,0,0,1-.17-.37,2.79,2.79,0,0,1,0-.62,6.18,6.18,0,0,1,.12-.91l.39-1.92c.06-.27,0-.41,0-.43h0l0,0-.14.91-.27,1.37a6,6,0,0,0-.12.72,2.81,2.81,0,0,0,0,.56,1.44,1.44,0,0,1-.38.42.5.5,0,0,1-.39.1.42.42,0,0,1-.22-.13.56.56,0,0,1-.15-.31,1.81,1.81,0,0,1,0-.55,5,5,0,0,1,.12-.83l.43-2.13c0-.28,0-.42,0-.43s0,0,0,0l0,0-.14.92-.33,1.6c0,.22-.07.42-.1.58a4.22,4.22,0,0,0,0,.49,1.24,1.24,0,0,1-.36.39.55.55,0,0,1-.42.09.39.39,0,0,1-.21-.13.82.82,0,0,1-.15-.28,1.42,1.42,0,0,1-.06-.44,2.25,2.25,0,0,1,.06-.6l.58-2.9a4.09,4.09,0,0,1,0-.6c0-.22.06-.45.1-.68s.1-.41.17-.64a4.46,4.46,0,0,1,.23-.6Z"/></svg>