<?xml version="1.0" encoding="utf-8"?>
<!-- Generator: Adobe Illustrator 25.2.1, SVG Export Plug-In . SVG Version: 6.00 Build 0)  -->
<svg version="1.1" id="Layer_1" xmlns="http://www.w3.org/2000/svg" xmlns:xlink="http://www.w3.org/1999/xlink" x="0px" y="0px"
	 viewBox="0 0 640 480" style="enable-background:new 0 0 640 480;" xml:space="preserve">
<style type="text/css">
	.st0{fill:#FFFFFF;}
	.st1{fill:none;stroke:#000000;stroke-width:3;stroke-miterlimit:10;}
	.st2{stroke:#000000;stroke-width:0.25;stroke-miterlimit:10;}
	.st3{fill:none;stroke:#000000;stroke-miterlimit:10;}
	.st4{fill:#8CC63F;}
</style>
<path d="M237.7,419c21.2-1,42.5-1.4,63.7-0.8c31.5,0.9,63,3.4,94.5,5.3c71.4,4.3,142.6,2.3,213.4-7.7c1.5-0.2,3.2-2,3.5-3.5
	c21.4-122.8,2.2-247.2-17.4-368.9c-1-5.9-2.1-11.6-8.1-14.2c-6.1-2.7-14.2-2-20.8-2.5c-15.8-1.1-31.6-1.8-47.4-2.2
	c-31.6-0.8-63.3-0.1-94.9,1.9c-31.3,2-62.5,5.2-93.9,5.2c-31.5,0.1-62.9-2.4-94.3-4.4c-71-4.7-142.2-4.9-213.2,0.1
	c-2.3,0.2-3.8,1.6-4.4,3.3c-2.4,0.2-4.7,1.8-4.8,4.8C11,98,17.5,160.5,24.5,222.6c3.5,31.2,7.1,62.3,9.8,93.6
	c1.3,15.8,2.4,31.5,3.1,47.3c0.3,7.1,0.5,14.2,0.7,21.3c0.2,7.5-0.4,15.3,0.6,22.8c1.8,13.8,12.8,17.1,25.1,17.7
	c15.7,0.9,31.4,1,47.1,0.6c32.1-0.7,64.1-3.2,96.2-5.2 M603.7,406.6c-60.3,8.3-121.4,11.1-182.2,8.4c-30.9-1.4-61.7-3.9-92.5-5.5
	s-61.6-1.8-92.5-0.3c-30.8,1.5-61.5,4.1-92.3,5.7c-15.7,0.8-31.4,1.4-47.1,1.4c-7.2,0-14.4-0.1-21.6-0.3c-6.7-0.2-14.7,0.5-21.2-1.7
	c-6.8-2.4-6.1-9.8-6.1-15.8c0-7.7-0.2-15.5-0.4-23.2c-0.5-14.8-1.3-29.7-2.4-44.5c-2.2-30.3-5.6-60.5-9-90.7
	C28.9,172.7,21,105.2,23.6,37.3c61.1-4.3,122.5-4.9,183.7-1.8c31.1,1.6,62.1,4.3,93.3,5.5c30.3,1.2,60.3,0,90.5-2.2
	c61.2-4.5,122.1-6.2,183.3-1.6c2.2,0.2,7.3-0.4,9.2,1.1c2.3,1.8,2.2,8,2.6,10.5c1.2,7.7,2.5,15.4,3.7,23.1
	c2.3,14.8,4.6,29.6,6.8,44.4c4.5,30.5,8.4,61,11.2,91.7C614,274.1,614.7,341,603.7,406.6z"/>
<rect x="444.3" y="397.4" class="st0" width="53.7" height="48.1"/>
<rect x="530.2" y="372.9" class="st0" width="47.4" height="59.4"/>
<g>
	<path d="M85.5,310.1c-2.2,0.8-4.2-2.1-5.5-3.5C82.7,306.9,83.8,308.8,85.5,310.1z M105.8,219.2c5.3,1.3,9.3,3.4,11.7,7.2l5.8,9
		c1.8,2.5,1,4.8,1,7c0,1.1-2.1,0.9-2.8,1.9c-0.5,1.5-1.7,2.8-2.4,4.2c-1.3-0.4-1.4-1.5-2.3-2c-1.4,0.2-0.3,1.7-1.4,2
		c-0.2,0.1-0.4,0.1-0.7-0.2c-4.2-3.5-7-7.1-6.9-11.2c0.1-2.1-0.8-4.1-2.2-6.4c-1.8-3-8.6-6.9-12.4-6.1c-2.1,0.3-4.2,0.9-6.2,1.4
		c-2.2,0.6-3.1,2.2-3.7,3.7s-0.6,4.2-1.5,5.5c-1.6,1.6-0.2,6.1,2.8,7.6c7.6,4.3,13.3,9.7,19.3,14.5c4.7,3.9,9.9,7.2,15,10.4
		c4.2,2.8,8.2,6,11.6,9.4c1.2,1.3,2.9,2.8,4.4,3.9c5.3,3.8,6,8.7,8.5,13.4c1.7,3.3,1.9,6.6,2.7,10c0.3,1.5,0.4,3.2-1.4,4
		c-1,0.4-0.7,1.2-0.7,1.9c-0.1,3.9-1.3,7.5-3,10.7c-0.7,1.3-1.8,2.5-3.6,2.5c-0.8,0.1-1.2,0.5-1.6,1c-1.2,1.9-3.4,3-5.4,3.9
		c-0.6,0.3-1.1,0.7-1.8,0.3c-2.2-0.9-3.6-0.2-5,0.5c-4.1,2.3-12.8-0.1-21.2-4.6c-0.8-0.5-13.9-9.8-14.4-10.3c-5.4-4.7,6.8,4.1,1.6-1
		c-1.1-1.1-2.7-3.1-3-4.5c-0.7-1.9-2.8-2.9-4.2-4.4c-0.6-0.6-1.6-1-2.1-2c0.5-0.4,2-1.1,3.4-0.1c2,1.5,2,0.7,3.3,1.3
		c1.3,0.7,1.6,1,3.3,2c2.4,1.5,3.3,2.9,4.9,4.3c2.5,2.3,4.5,2.9,7.5,4.1c6.7,2.5,14,7.5,17.8,2.9c2.4-2.9,2.3-6.1,1.3-10
		c-1.2-4-3.1-7.8-5.1-11.6c-0.4-0.9-1.2-1.7-1.9-2.4c-9.4-8.6-17.4-16-28.9-23.1c-6-3.4-14-9.3-17.7-14.2c-1.8-2.6-4.7-4.9-6-7.4
		c-0.7-1.4-1.5-2.8-1.3-4c0-4.3-0.9-8.9,0-12.9c1.1-5.9,5.6-9.8,12.2-12.9c1.9-0.9,4.4-1.1,7.4-0.6c4.3,0.7,7.8-0.1,11.9-0.1
		C96.5,218.1,101.1,218.2,105.8,219.2z M98.1,273c0.5-0.1-2.6-3.5-4.4-4.8c-2.7-2.3-5.1-3.1-5.8-4.2c-3.3-1.6-6.2-3.7-9.7-4.6
		C83.4,264.3,92.2,269.6,98.1,273z"/>
</g>
<g>
	<path d="M228.4,222.1c-0.4,3-1.1,5.9-3.4,9c-2.6,3.4-3.5,6.7-4.7,10.1c-1.3,4.1-4.7,8.6-6.9,13.1c-2.4,4.4-5,9-7.3,13.6
		c-2.3,4.9-4.8,9.9-7.9,15c-1.9,3.4-2.7,6.8-3.7,10.1l-2.7,9.4c-0.5,2-1,4.1-0.6,5.3c0.5,3,0.8,6.3,1.6,8.9c0.4,1.6,2.3,1.7,3.2,2.8
		c0.8,1.4,2.9,0.3,5.5-1.3c2.8-1.7,5.1-2.9,7.9-5.6c7.5-6.6,11.6-11.9,13.7-16.7c2.1-4.5,4.6-9,7.6-13.7c0.7-0.9,1.3-1.9,1.5-2.5
		c2.4-5.5,7.2-11.5,11.1-17.1c2.3-2.9,3.5-5.4,4.6-7.9c1.8-4.1,5-8.4,8.6-12.6c2.7-3,4.3-5.7,6.5-8.5c1.2-1.3,1.3-2.5,5-3.7
		c1.2-0.4,1.6-1.3,2.2-1.9c0.7-0.7,1.3-1.2,3.7-1.3c3.5-0.1,4.7,0.1,4.5,1c-0.1,0.5-0.2,1.1-1.2,1.8l-2.9,2.7
		c5.8-2.1,4.1-4.2,8.6-6.3c1.4-0.1,2,0.1,1.6,0.4c-0.2,0.4-0.4,0.7-1,1.1c-3.8,2.6-5.3,5.1-8.7,7.9c-1,1-2.1,1.8-3.3,2.8
		c-1.9,1.5-3.1,3-4.2,4.5c-2,3.3-3.7,6.6-7,10.4c-3.8,4.6-8.4,9.6-11.1,14.3c-2.6,4.6-6.2,9.8-9.3,14.9c-1.2,2.1-3.5,4.8-5.2,7.2
		c-1.4,1.8-2.1,3.2-2.2,4.4c-0.4,3.2-4.4,7.8-9.4,12.9c-1.7,1.8-3.9,3.5-5.6,4.6c-2.9,1.9-5.5,3.9-8.2,6.1c-1.7,1.4-3.3,2.6-4.9,3.7
		c-0.6,0.2-1.6,0.7-2.2,1.7c-1.6,2.5-3.6,3.3-5.2,4.3c-2,1-3.9,2.3-6.2,4.2c-5.1,3.9-9.2,5.7-12.8,6.5c-3.6,0.7-6.9,0.9-10.6,1.6
		c-5.1,0.9-6.2-2.8-6.3-7.6c0.1-2.3,0.3-4.8,0.2-7c0-1.5,1.5-3.7,1.7-5.4c1.3-8.6,4.3-17.7,7-26.7c3.5-10.3,6.4-20.2,8.9-29.8
		c2.6-9.1,7.2-18.2,12.2-27c1.9-3.2,4.4-6.3,6.1-9.4c2-3.5,4.3-4.4,9.8-4.9c0.9-0.1,1.8-0.2,2.4,0.1c1.3,1.1,3.9,0.9,6.1,0.8
		c1.9,0.1,3.2,0.5,4.7-1c0.5-0.4,3.6-0.9,5.6-1C227.6,220.8,228.7,221.1,228.4,222.1z"/>
</g>
<g>
	<path d="M287,192.5c1,0.1,2,0.2,3.2,0.1c1.1,0,1.9,0.3,2.5,0.7c3.8,2.2,8.2,5.7,12.5,9.8c1.3,1.5,2.6,3.1,4.5,5.1
		c0-1.7-0.6-3.1-1-4.5c-0.6-2.1-1.5-4.1-2-6c-0.6-2.1-1.2-4-1.6-5.9c-0.4-1.5-1.1-3.2-0.8-4.8c0.2-0.8,0.8-1.7,2-2l2.2-0.6
		c0.5-0.2,0.9-0.2,1.5-0.2c1.4,0.2,1.6,0.1,1.5-1c0-0.1,0-0.1,0.1-0.3c0.5-0.1,1.1,0.2,1.4-0.4c0.1-0.3,0.7-0.4,1.2-0.4
		c0.3,0,0.6,0.1,0.8,0c3.3-0.5,4.6,1.2,5.8,3.2c0.2,0.3,0.2,0.6,0.4,0.8c2.6,3.8,4.1,8.2,6.2,12.8c1.9,4,3.9,8.4,6.2,13
		c2,4.1,3.8,8.7,5.9,13.3c2.8,6.6,4.8,13.1,7.4,20.4c1.1,3.2,2.6,6.6,3.5,9.9c0.9,3.6,0.4,4.3-2.3,1.6c-0.4,0.1,0.1,1.2,0.2,1.8
		c0,1.1-0.6,0.9-1.7-0.2c-2.6-2.4-5-5.7-7.5-8.8c-2.9-3.5-4.2-6.2-5.1-8.9c-1.5-4-3.1-7.9-4.1-11.4c-0.6-2.1-1.6-4.3-2.6-6.3
		c-3.4-7.1-6-13.2-9.1-18.8c-2.8-4.7-5-8.9-7.9-12.5l-0.6-0.4c-0.3,0.9-0.1,1.6,0,2.4c0.3,1.7,0.2,3.4,0.7,5.1
		c0.9,3.6,1.6,7.3,3.6,11.4c0.4,0.9,0.6,1.8,0.9,2.8c0.5,1.5,0.3,2.8,1.7,4.6c1.3,1.8,0.2,2.3-0.1,3.1c-0.1,0.3-0.7,0-1.1-0.3
		c-0.7-0.4-1.5-0.9-2.3-1.1c0.1,0.6,0.3,1.1,1.4,1.5s2,1.9,2.8,2.7c-0.2,0.5-0.7,0.2-1.3,0.1c-1.8-0.5-4-1.3-5-2.3
		c-1.3-1.2-1.5-1.1-2.9-2c-2.3-1.3-4.1-2.9-5.5-4.4c-4.7-4.4-9.1-8-12.8-10.9c-1.9-1.3-3.7-2.4-5.6-3.2c-0.6-0.3-1.1-0.5-1.9-0.7
		c0.9,0.4,0.3,1.2,1.2,1.7c1,0.7,1.2,1.6,2,2.4c1.3,1.5,2.4,3.3,3.8,5.2c1.4,1.8,2.7,3.7,4.3,5.8c1,1.3,2,2.7,2.4,4
		c0.8,2.2,2,4.8,3.3,7.4c0.3,0.5,0.5,0.9,0.3,1.1c-0.6,0.5-1.3,0.3-3.5-1.2c-0.4,0-0.1,0.5-0.8,0.2c-0.2-0.2-0.6-0.4-0.7-0.7
		l-2.3-4.1l-3.5-7.1c-0.9-1.9-2.2-3.6-3.6-5.2c-2.7-2.9-4.7-5.3-6.2-7.3c-1-1.2-2.5-2.4-3.5-3.3c0-0.1-0.3-0.2-0.5-0.3
		s0.1-0.3,0.7-0.7c1-0.6,2.1-1.1,3.1-1.4c0.6-0.4,0.4-0.5,0.7-0.7c1-0.9,1.1-1,3-1.7c1.1-0.4,2.3-0.8,3-0.7c0.1,0,0.4,0,0.7-0.2
		c0-0.3-0.6-0.4-0.4-0.7C286.6,192.5,286.8,192.5,287,192.5z M321.5,198.9c0-1.7-1.5-4.4-2.9-5.1C318.7,195.6,320.5,197,321.5,198.9
		z M355,163.4c0.2,0.2,0.5,0,0.6,0c0.8-0.8,2-0.2,2.9,0.8c0.5-0.1,0.1-1.3,0.6-1c1.1,0.8,1.7,0.3,2.4,0c0.7-0.4,1.5,0.8,2.3,1.4
		c0.7,0.3,1.3,0.6,2.5,3.7c0.3,0.8,0.7,1.4,1.1,2.1c1.9,3.3,3.7,7.2,5.5,11.1c2.6,6.2,5.3,12.8,8.2,19.8c2,5.1,4.1,10.4,5.8,15.9
		c0.8,2.7,1.8,5.2,2.8,8c2.1,6.7,4.4,13.5,6.3,20.4c1.5,5.5,3.4,11.1,5.1,17c1.6,5.7,3.1,11.3,4.1,16.7c1.3,6.6,3.4,14.3,5.6,22
		c0.7,2.7,1.3,5,1.5,7.3c0.1,2.4-0.3,2.6-1.7,0c-0.8-1.5-1.5-2.9-2.3-4.6c-0.6-1.3-1.8-5.3-1.6-2.1c-1.6-3.3-3.3-5.5-4.7-9.5
		c-1.5-4-3.1-8.1-4.5-11.9c-0.9-2.5-1.8-4.9-2.5-7c-0.8-2.5-1.6-4.6-2.7-6.9c-1.4-2.4-2.4-5.6-3.3-8.4c-2.1-6.4-4-12.2-5.7-17.8
		c-3.2-10.1-6.7-19.6-10.1-28.3c-2-5.2-3.9-10-5.8-14.7c-2.3-5.2-4.2-10-6.5-14.8c-0.4,0.7,0,1.6,0.2,2.3c0.8,2.7,1.4,5.5,2.3,8.3
		c1,3.4,1.6,6.5,2.2,9.7c1.1,5.4,2.2,11,3.5,16.7c0.1,0.9,0.2,1.8,0.4,2.7c0.1,0.4-0.1,0.7,0.2,1.3c2.4,4.4,2,7.5,3,11.2
		c0.4,1.4,0.5,2.9,0.3,3.7c-0.1,0.7,0.1,1.7,0.4,2.7c0.9,4.4,1.7,9,2.6,13.8c-0.9-0.7-2.1-2.7-2.8-2.5c-0.1,0.1-0.6-0.5-0.8-0.8
		c-1.9-3.3-3.9-6.1-5.1-9.9c-1.5-4.3-3.9-8.4-5.6-12.6l-0.6-1c-2.4-3-4.2-6.3-6-9.7c-3.2-5.5-6.4-10.5-9.2-15.3
		c-0.3-0.5-0.6-1-0.9-1.4c-2.8-3.7-5.3-7.2-7.6-10.7c-0.7,0.3-0.1,0.9,0.1,1.3c1.7,3.5,4,7,5.7,10.9c2.7,6.5,5.6,13.6,8.6,21.2
		c1.6,4.4,3.5,9.1,5.2,13.9c1.3,3.6,2.5,7.5,3.5,11.1c0.5,2,1.9,7.9,2.6,9.9c2.1,5.7,3,9.4,4.3,12.9c1.3,3.9,2,7.6,3.1,11.4
		c-0.5,0.2-1.3-1.2-2-2.5c-2-4-3.9-7.7-5.1-11.6c-4-12.7-9.9-30.7-13.8-40.8c-3.4-8.5-6.4-16.1-9.6-23.2c-2.1-4.6-4.1-8.9-5.8-12.8
		c-1.3-3.1-2.8-6.1-4.2-8.9c-0.4-0.7-0.7-1.4-1.7-1.7c-0.3-0.1-0.5-0.3-0.7-0.5c-1.2-0.9-1.2-1.3,0-1.9c0.5-0.3,1.1-0.5,1.5-1.1
		c0.6-0.7,1.7-0.9,2.7-0.7c1.4,0.4,2.8,0.4,4.2,0.7c1.8,0.5,3.3,1.2,4.9,2.6c0.5,0.4,1,1,2,1.2l-3.3-3.7c-0.3-0.4-0.7-0.7-0.4-1
		c0.2-0.3,0.5-0.2,0.9-0.1c1.2,0.6,2.2,1.1,3.3,2.1c2.7,2.6,5,5.9,7.7,9.3c2.8,3.8,5.6,8.1,8.6,12.9c-0.2-2.3-0.9-4.6-1.2-6.6
		c-0.6-3-1.2-5.8-1.5-8.4c-0.5-4.4-1.3-8.6-2.2-12.9c-0.2-1.2-1-3.7-1-4.7c-0.1-1.3-0.5-2.4-1.3-3.4c-0.8-1.1-0.8-2.1,0-2.4
		C353.1,163.1,353.8,162.1,355,163.4z"/>
</g>
<g>
	<path d="M414.4,114.5c0.2,0.2,0.8,0.6,1.2,0.7c6.8,3.6,14,8.4,20.9,12c1.8,1.1,3.6,1.9,5.5,3.1c3.4,2.1,7.9,7,10.6,11.4
		c-3.8-1.9-7.7-3.9-11.8-6.6c-4.1-2.9-7.9-5.6-11.9-8.1c-3.6-2.3-7-3.8-10.6-6.1c-1-0.7-1.4-0.5-1.7,0c-0.6,2.7,0.9,6.8,2.2,10.8
		c0.4,1.3,0.4,2.4,0.6,3.7c0.4,4.9,0.6,9.6,2.1,15.3c6.5,4.3,13.2,10.3,19.6,14.5c3.2,2.1,5.4,5.3,8.4,8.6c-1.5-0.3-2.6-0.8-4.3-1.9
		c-2.1-1.5-3.9-2.6-5.9-3.7c-4.6-2.6-9.6-6.3-14.7-10.1c-2.7-1.9-2.7-1.9-2.3-0.3c0.5,2.9,0.8,5.6,0.9,8.3s-0.6,5,0.1,8.3
		c0.3,1.2-0.1,1.9-0.4,2.5c-1.2,1.5-1.5,3.7-0.7,6.9c0.5,1.4,1.5,2.5,3.6,4.2c1.7,1.4,3.3,2.4,5.2,4.2c0.5,0.5,1.2,1.2,1.3,1.8
		c-2.6-1.1-7.4-6.2-10.2-7c1.9,2,3.4,2.9,4.8,3.9c8.3,6,16.7,12.5,25,18.3c4.3,3,9,7.3,13.3,10.4c1.2,0.9,2.5,2.2,3.5,3.4
		c1.6,2,3.3,4,4.9,5.9c-1.3-0.2-4.1-3-5.7-3.8c-0.3,0.4,1.2,2,1.9,3.1c1.4,2,1.1,2.3-1.2,0.4c-4-3.5-7.4-5.6-11.1-8.3
		c-2.7-2.1-5.4-4.1-8.2-6.4c-7.7-6.5-15.1-12.7-22.5-18.3c-2-1.4-3.7-2.9-4.1-2.1c-0.2,0.6-1.7-0.5-3.4-2.6c-2-2.2-3.7-3.4-5.6-4.9
		c-9.5-7.4-18.8-14.8-28.4-22.8c-1.4-1.2-2.5-2.6-3.9-3.9c-1.2-1.1-1.3-1.6-1.3-1.9c0.1-0.5,0.8,0,2,0.9c3.8,2.7,7.6,5.6,12,8.4
		c0.2-2,0.2-4.2,0.6-6.1c1.8-5.6,1.3-12.7,2.8-18.7c1-6.3,1.3-13.3,1.4-20.4c0-3.6-0.7-7.8-0.9-11.5c-0.1-1-0.7-1.8-2.1-2.6
		c-2.1-1.3-1.8-1.9-3.9-3.4c-1-0.7-1.8-1.4-2.3-2.4c3.3,1.4,4.5,2,7.6,3.6c0.1-0.5,0.2-1,0.2-1.5c-0.1-1.1,0-1.9,2.1-0.4
		c0.2,0.1,0.5,0.3,0.5,0.2c2.6-0.2,5.5,2.6,8.4,5.1C410.8,110.6,412.8,112.1,414.4,114.5z M397,169c3.8,2.9,3.8,2.9,3.4,1.6
		c-0.2-0.8,0.4-2-1-3.8C396.8,165.6,397.6,168.3,397,169z"/>
</g>
<g>
	<path d="M500.5,71.2c2.9,2.1,5.7,4,9.1,8.1c2,2.5,4,4.4,5.9,6.1c1.6,1.5,3.2,3.3,4.6,5.4c3.2,4.4,6.4,8.6,8.5,12.8
		c0.6,1.4,1.9,2.6,2.6,3.9c3.1,5.3,3.1,9.4,1.7,13.5c-0.7,2.1-2.2,3.6-3.2,5.6c-0.3,0.7-0.5,1.5-1.3,2c-0.5-1.4,0.5-2,0-3.3
		c-1.3,0.8-1.6,2.4-2.1,3.9c-0.2,0.8,0.7,1.5,1.4,1.9c2.3,1.3,4.7,2.9,7,4.3c3.7,1.8,6.8,4.6,9.7,7.5c4.8,4.3,9.7,8.2,14.9,11.2
		c0.9,0.5,1.7,1,2.4,1.8c1.6,1.3,3.5,2.4,5.4,3.1c1.2,0.3,1.5,1.3,1.9,2.2c0.5,1.1,0.6,1.9-0.6,3.2c-0.1,0.1-0.2,0.7-0.2,1.1
		c-0.1,1.2-0.7,1.9-1.7,2c-1.9,0.2-3.5,0.7-4.4,3.3c-0.1,0.5-0.9,1.3-1.4,1.4c-2.8,0.7-5.8,2-8.2,0.6c-1.1-0.8-2.3-1.3-3.4-1.9
		c-8.3-6.5-15.9-14.7-23.2-24.2c-1.1-1.5-2.1-2.8-3.4-4.2c-1.1,1.9-1.6,4-0.4,6.7l0.5,1.4c1.2,7.2,4.3,13.2,6.5,20
		c2.2,6.1,4.6,12.1,6,18.8c0.3,1.8,1.5,3.4-0.9,5.2c-0.5,0.2-0.5,1.2-0.3,1.7c0,1.2,0.2,2.2,0.3,3.2c-2.3,0.9-4.3-0.1-6.6-0.5
		c-0.9,3.9-2.6,6.3-4.9,6.3c-2.6,0.2-4.3-1.5-5.4-5.4c-1-3.3-1.1-7-2-10.3c-2.6-9.3-4.9-19.1-7.4-28.6c-0.5-1.9-1.1-3.5-1.7-5.4
		c-3.7-10.5-6.4-21.9-8.7-33.5c-2.3-11.7-4.9-23.2-7.3-34.9c-1.1-5.5-2-10.7-3.5-16.6c-0.2-1.1-0.4-2.2-0.9-3.4
		c-1.1-0.5-1.7,0.6-2.8-0.2c-0.5-1.3,0.2-1.6-0.5-2.7c-1.1-2.3-0.9-2.9-0.2-3.2c2.8-0.7,6,0.2,10,3.6
		C495.1,67.4,497.7,69.1,500.5,71.2z M515.1,130.8c0.5-0.7,0.7-1,0.7-1.2c1.8-6.7,3.6-12.4,4.2-18.6c0.3-4-1-8.4-2.4-12.9
		c-0.3-0.8-0.7-1.4-1.1-2c-0.9-1.3-1.6-2.6-2.1-4c-0.3-1-1-1.9-1.8-2.7c-0.6-0.5-1.3-1.3-1.9-2c-2.6-3-5.2-6.5-8.1-9
		c-1.7-1.5-2.9-1.9-4.4-2.7C504.4,94.4,509.8,112.3,515.1,130.8z"/>
</g>
<g>
	<polygon points="556,404 554,404 554,406 556,406 	"/>
</g>
<g>
	<ellipse class="st1" cx="471.2" cy="424.5" rx="26.8" ry="10.8"/>
	<g>
		<g>
			<path d="M443,424c1,8.2,2.5,16.2,4.3,24.1c0.9,4,2.1,7.9,3.2,11.9c0.5,1.7,0.9,3.5,1.7,5.2c0.8,1.8,2.5,2.3,4.2,2.7
				c7.9,2,16.2,2.4,24.3,1.3c2-0.2,3.8-0.5,5.8-0.9c1.7-0.3,3.4-0.6,4.3-2.2c0.9-1.4,1-3.5,1.3-5.2c0.4-2.2,0.8-4.3,1.2-6.5
				c1.9-9.4,3.7-18.8,5.6-28.2c0.4-2-2.6-2.8-3-0.8c-1.5,7.7-3,15.4-4.5,23.1c-0.7,3.8-1.5,7.7-2.3,11.6c-0.2,0.8-0.3,1.7-0.5,2.5
				c-0.1,0.6-0.1,1.7-0.7,2.1c-0.4,0.3-1.3,0.4-1.9,0.5c-1,0.2-2.1,0.4-3.1,0.6c-7.3,1.2-15,1.1-22.3-0.2c-0.8-0.1-1.7-0.3-2.4-0.5
				c-0.8-0.2-2-0.3-2.7-0.7c-0.6-0.3-0.7-0.8-0.9-1.4c-0.3-1-0.7-2.2-1-3.3c-1-3.5-2.1-7.1-2.9-10.6c-2.1-8.3-3.6-16.6-4.6-25.1
				C445.9,422,442.8,422,443,424L443,424z"/>
		</g>
	</g>
	<g>
		<g>
			<path d="M446.4,424c-1-5.1,0.7-10.4,4-14.3c3.6-4.2,9.1-6.4,14.3-7.9c5.6-1.7,11-1.8,16.3,0.8c3.9,2,7.9,4.2,11.4,7.1
				c2.1,1.9,3.7,4,4.3,6.8c0.6,2.7,0.3,5.6-0.1,8.3c-0.1,0.8,0.2,1.7,1,1.9c0.7,0.2,1.8-0.2,1.9-1c0.8-5.8,0.9-11.4-3-16
				c-1.7-2-3.7-3.4-5.8-4.9c-2.3-1.5-4.6-3-7-4.2c-2.3-1.2-4.6-2.3-7.2-2.7c-3.4-0.6-6.9-0.3-10.3,0.4c-3.5,0.8-6.9,2.2-10.2,3.6
				c-2.7,1.1-5.1,2.8-7,4.9c-4.5,4.9-7,11.7-5.6,18.2C443.8,426.7,446.8,425.9,446.4,424L446.4,424z"/>
		</g>
	</g>
	<g>
		<g>
			<path d="M478.1,418.3c-5.1,0-10.1,0-15.2,0.1c-0.8,0-1.5,0.7-1.5,1.5c-0.1,2.3,2.2,3,3.9,3.6c2.2,0.7,4.3,1.2,6.6,1.7
				c4.5,0.8,9.2,1,13.8,0.5c1.2-0.1,2.2-1.7,1.1-2.7c-1.8-1.7-3.8-2.9-6.2-3.6c-1.9-0.5-4.5-1-6.4-0.2c-2.2,1-2.1,3.7-0.4,5.2
				c1.8,1.5,4.6,1.8,6.8,1.8c2,0,5.3-0.1,6-2.4c0.7-2.2-1.5-3.9-3.4-4.4c-3.8-1-8.6-1-11.1,2.4c-0.7,0.9-1.2,2.3-0.6,3.4
				c0.6,1.1,1.9,1.7,3.1,1.9c2.8,0.5,5.6,0,7.9-1.5c1-0.7,0.9-2,0-2.7c-2.5-1.7-5.4-2.7-8.4-2.6c-1.4,0-3,0.3-4.3,0.8
				c-1.2,0.4-2.9,1-3.4,2.4c-1.3,3,3.3,4.7,5.5,5.2c3,0.6,6.1,0,8.7-1.7c1-0.6,1-2.1,0-2.7c-5.2-3.3-11.6-4.1-17.3-2.3
				c-1.3,0.4-1.4,2.1-0.4,2.8c4.9,3.6,12,2.5,15.8-2.3c0.6-0.7,0.6-2-0.3-2.5c-4.2-2.2-9.2-3.2-13.8-2.3c-1.9,0.4-3.7,1.7-3.8,3.7
				c-0.2,2.1,1.3,3.7,3,4.7c2,1.1,4.2,1.7,6.4,1.9c1.8,0.1,5,0.1,6.2-1.5c1.5-2-0.8-3.8-2.3-5c-1.7-1.2-3.5-2.4-5.6-2.9
				c-3.7-1-9-0.1-10.2,4.1c-0.5,1.9,0.2,3.9,1.8,5.1c1.5,1.1,3.5,1.2,5.4,1c3-0.4,10.4-3,8.5-7.3c-0.9-2-3.5-2.6-5.5-3
				c-2.5-0.5-5.1-0.8-7.6-0.5c-2.2,0.2-4.4,1.5-3.5,4c0.7,2.2,3.8,3.5,5.8,4.4c4.2,2,9.5,2,12.2-2.4c0.4-0.6,0.2-1.8-0.5-2.2
				c-2.2-1-4.4-1.7-6.9-1.9c-2-0.1-4.9-0.3-6.3,1.3c-1.2,1.3-1,3.6,0,5.1c1.3,1.9,3.6,2.1,5.7,1.8c1.3-0.1,2.1-1.5,1.1-2.7
				c-2-2.1-4.3-3.5-7-4.2c-1.9-0.5-2.5,1.9-1.2,2.8c3.5,2.7,7.8,4.1,12.3,4.4c4.1,0.3,8.8-0.2,12.7-1.8c1.9-0.7,3.5-2.2,3.9-4.1
				c0.4-1.9-0.1-3.9-1.2-5.5c-2.8-3.7-8.3-3.6-12.4-3.4c-2.5,0.1-5,0.5-7.3,1.1c-2.2,0.5-4.6,1.2-6.6,2.5c-1.7,1-2.9,2.7-2.6,4.7
				c0.3,2.2,2,3.9,3.7,5.2c3.7,2.5,8.6,2.8,12.9,3.2c2.7,0.3,5.4,0.4,7.9,0.5c1.9,0.1,3.8,0.1,5.5-0.8c5-2.6,1.7-9.1-1.5-11.7
				c-4.3-3.5-9.9-3.5-15.3-3.2c-1.3,0.1-2.3,2.3-0.8,2.9c3.6,1.7,8,1.4,11.5,3.6c1.3,0.8,2.6,2.1,3.1,3.6c0.3,0.8,0.4,1.9,0.1,2.7
				c-0.3,0.9-1.2,1-2.2,1.2c-4.4,0.8-9.1,1.4-13.5,1.7c-3.9,0.1-7.9-0.6-10.9-3.3c-0.7-0.6-1.3-1.4-1.9-2.3c-0.3-0.4-0.6-1-0.5-1.5
				c0.1-0.4,0.5-0.8,0.8-1.1c1.4-1.5,3.5-2.4,5.6-2.4c-0.4-0.9-0.7-1.8-1.1-2.7c-1.3,1.7-3.6,2.1-5.1,3.7c-1.8,2-1.7,4.9-0.2,6.9
				c1.5,2.3,4.3,3,6.9,3.4c3,0.5,6.1,0.7,9.1,0.7c3.1,0,6.2-0.3,9.3-0.9c1.4-0.3,2.9-0.7,4.3-1.1c1.1-0.4,2.5-0.8,2.8-2.2
				c0.3-1-0.2-2.2-1.1-2.6c-1.2-0.6-2.6-0.1-3.7,0.4c-2.6,1-5.2,2.4-7.4,4c-1.2,0.8-2.8,1.9-3.7,3.1c-0.6,0.8-0.4,1.5-0.2,2.5
				c0.1,0.8,0.2,1.7,0.2,2.6c0.2,3.2-0.7,6.9,0.8,9.8c0.8,1.4,2.8,0.7,2.9-0.8c0.1-2.2,0.3-4.3,0.4-6.5c0.1-1,0.1-2,0.2-3
				c0-0.6-0.1-2.1,0.3-2.5c-0.8-0.6-1.7-1.2-2.5-1.9c-0.4,0.9-0.9,2.3-2,2.7c-0.7,0.3-1.5-0.1-1.5-0.9c-0.5,0.5-1,1-1.5,1.5
				c1.5,0,1.8,3.6,2,4.7c0.3,3,0.6,6.1,0.9,9.1c0.2,2,3.3,2,3.1,0c-0.4-3.7-0.6-7.6-1.2-11.4c-0.5-2.5-1.8-5.5-4.7-5.5
				c-0.8,0-1.5,0.7-1.5,1.5c0,2.3,1.9,4.1,4.1,4.1c2.5,0,4.2-2.3,5.1-4.3c0.6-1.5-1-3.2-2.5-1.9c-1.5,1.5-1.2,4.2-1.3,6.2
				c-0.2,2.7-0.3,5.3-0.5,7.9c0.9-0.3,2-0.5,2.9-0.8c-0.9-1.7-0.4-3.9-0.4-5.8c0-2.3-0.2-4.5-0.6-6.8c-0.1,0.5-0.3,1-0.4,1.5
				c1.8-1.7,3.6-3,5.7-4.2c0.8-0.5,1.8-0.9,2.7-1.4c0.5-0.2,1-0.5,1.7-0.7c0.3-0.1,1.1-0.2,1.3-0.5c0.2-1.1,0.1-1.5-0.4-1.2
				c-0.3,0.1-0.6,0.2-0.9,0.3c-0.6,0.2-1.2,0.4-1.9,0.5c-1,0.3-2.2,0.5-3.2,0.7c-2.4,0.4-4.9,0.6-7.3,0.6s-5-0.1-7.3-0.4
				c-2-0.3-4.5-0.4-6-2c-1.3-1.3-1.2-3.2,0.3-4.2c1.4-0.9,3.1-1.5,4.2-2.9c0.8-1,0.3-2.7-1.1-2.7c-4,0-11.2,3.4-9.2,8.5
				c1.8,4.4,6.5,7.2,11,8c5.8,1,11.9-0.2,17.5-1.1c2.4-0.4,5-0.7,6-3.3c0.8-2.2,0.3-4.7-0.9-6.7c-1.3-2.1-3.4-3.6-5.7-4.5
				c-3-1.1-6.4-1.2-9.3-2.6c-0.3,0.9-0.5,2-0.8,2.9c3.7-0.2,7.8-0.5,11.4,1.2c1.3,0.7,2.6,1.7,3.5,2.8c0.8,1.1,2.2,3.3,1,4.5
				c-0.7,0.8-2.3,0.9-3.2,0.9c-2.1,0-4.2-0.1-6.3-0.3c-3.7-0.3-7.5-0.5-11.1-1.5c-1.9-0.5-7.7-3.6-4.4-5.9c1.2-0.8,2.8-1.2,4.2-1.8
				c2-0.6,4-1,6-1.3c1.9-0.2,3.7-0.3,5.6-0.3c1.8,0.1,3.7,0.1,5.4,1c1.2,0.7,2.1,2,2.2,3.3c0.1,1.7-1.2,2.5-2.7,2.9
				c-7.2,2.4-15.6,2.1-21.8-2.7c-0.4,0.9-0.8,1.9-1.2,2.8c2.3,0.6,4,1.8,5.7,3.4c0.4-0.9,0.7-1.8,1.1-2.7c-0.9,0.1-2.5,0.4-3.2-0.5
				c-0.8-1.1,0.2-1.3,1.1-1.4c2.8-0.2,5.5,0.3,8,1.4c-0.2-0.7-0.4-1.4-0.5-2.2c-1.2,2-3.6,2.6-5.8,2.1c-1.3-0.3-2.6-0.9-3.8-1.5
				c-0.6-0.4-1.3-0.7-2-1.1c-0.2-0.1-0.3-0.3-0.5-0.4c-0.3-0.2-0.4,0-0.1-0.2c1-0.5,3-0.2,4.1-0.1c1.7,0.1,3.3,0.4,4.9,0.9
				c0.3,0.1,1.5,0.3,1.8,0.7c0.1,0.3-0.2,0.5-0.4,0.7c-1,0.9-2.5,1.5-3.8,2c-1.3,0.4-5.3,1.1-5.6-1.1c-0.3-2.5,3.7-3.1,5.4-2.9
				c1.1,0.2,2.4,0.6,3.4,1.1c0.6,0.3,1.2,0.7,1.8,1.1s1,1,1.7,1.3c0.1,0.1,0.2,0.2,0.3,0.3c0.1-0.2,0.2-0.4,0.3-0.7
				c0,0-0.9,0.2-1,0.2c-0.6,0.1-1.3,0.2-2,0.2c-1.4,0-3-0.3-4.3-0.8c-0.8-0.3-3-1.3-2.6-2.6c0.3-0.9,2.5-0.9,3.3-0.9
				c3.4-0.2,6.7,0.6,9.7,2.2c-0.1-0.8-0.2-1.7-0.3-2.5c-3,3.7-8.2,4.6-12,1.8c-0.1,0.9-0.2,1.9-0.4,2.8c5.1-1.7,10.4-0.8,15,2
				c0-0.9,0-1.8,0-2.7c-1.8,1-3.7,1.7-5.7,1.3c-0.9-0.1-1.9-0.3-2.7-0.7c-0.3-0.1-0.7-0.5-1-0.6c-0.4-0.4-0.5-0.3-0.3,0.3
				c0.2-0.1,0.4-0.2,0.6-0.3c3.6-1.8,7.8-1,11,1.1c0-0.9,0-1.8,0-2.7c-1.4,0.9-3,1.4-4.7,1.3c-0.4,0-0.8-0.1-1.2-0.2
				c-0.2,0-0.4-0.1-0.6-0.2c-0.2-0.1-0.2-0.1,0,0.1c0.3-0.6,0.8-1,1.4-1.3c1.1-0.6,2.5-0.7,3.8-0.7c0.7,0,1.3,0.1,2.1,0.3
				c0.3,0.1,0.7,0.1,1,0.2c0.2,0.1,0.6,0.4,0.8,0.4c0.1,0.1,0.1,0.1,0.2,0.2c0.3-0.3,0.2-0.4-0.2-0.3c-0.3-0.1-1,0.2-1.4,0.2
				c-0.9,0.1-1.9,0.1-2.8,0c-0.9-0.1-1.9-0.2-2.8-0.5c-0.3-0.1-0.5-0.4-0.8-0.5c-0.1-0.1-0.1-0.1-0.2-0.2c-0.2,0.3-0.1,0.4,0.2,0.2
				c0.7,0.1,1.4,0,2.2,0.1c0.7,0.1,1.4,0.3,2.2,0.5c1.7,0.5,3.1,1.4,4.4,2.7c0.4-0.9,0.7-1.8,1.1-2.7c-3.7,0.3-7.3,0.3-11-0.1
				c-1.8-0.2-3.5-0.6-5.3-1c-0.5-0.1-5-1.1-5-1.5c-0.5,0.5-1,1-1.5,1.5c5.1,0,10.1,0,15.2-0.1C480.1,421.4,480.1,418.3,478.1,418.3
				L478.1,418.3z"/>
		</g>
	</g>
	<g>
		<g>
			<path d="M460.5,423c-0.6-0.1-1.1-0.3-1.8-0.5c0.7,0.3-0.2-0.1-0.4-0.2c-0.2-0.1-1-0.8-0.4-0.2c-0.4-0.4-0.3-0.3,0.1,0.1
				c0.3,0.7,0.4,1.3,0.3,2.2c-0.4,0.7-0.8,1.3-1.2,2.1c0.5-0.5,0.2-0.4-0.9,0.4c0.1,0,0.2-0.1,0.4-0.1c0.4,0,0.9-0.2,1.3-0.3
				c1.1-0.2,2.2-0.4,3.3-0.6c2.1-0.4,4.2-0.8,6.3-1.2c2.3-0.4,3.6-3,3.3-5.1c-0.3-2.5-2.3-3.8-4.5-4c-5-0.5-11.1,0.5-15,3.8
				c-2.5,2.2-2.9,6-0.9,8.7c1.8,2.5,4.5,3.9,7.4,4.5c3,0.7,6,0.6,9,0.2c1.2-0.2,2.4-0.4,3.6-0.5c0.8-0.1-0.6,0.1,0.2,0
				c0.3,0,0.6-0.1,1-0.1c0.7-0.1,1.4-0.2,2.3-0.2c2.7-0.2,5.4-0.3,8-0.4c2.8-0.1,6.3,0.4,8.8-1c1.9-1,3.3-3.1,3.2-5.3
				c-0.1-2.3-1.3-4-3.2-5.3c-1.2-0.9-2.8-1.3-4.2-2c-1.4-0.6-2.9-1.1-4.3-1.8c-0.8,3-1.7,6-2.5,9c0.6,0.1,1.1,0.3,1.7,0.5
				c-0.4-0.1-0.2-0.1,0.1,0c0.3,0.2,0.6,0.3,0.9,0.5c0.2,0.1,0.4,0.3,0.7,0.4c0.5,0.3-0.4-0.4,0,0c1.1,1,0.4,0.4,1.4-2.4
				c-0.3-1.9,0.1-2.8,1.2-2.8c1.3-0.2,2.5,0.3,3.4,1.8c0.2,0.8,0.4,1.5,0.6,2.4c0,0.2-0.8,2.3-0.1,1.2c0.3-0.4,0.4-1,0.6-1.4
				c0.8-2.3-0.9-5.2-3.2-5.7c-1.2-0.3-2.5-0.4-3.7-0.3c-2.4,0.2-4.7,2-4.6,4.6c0.1,2.3,2.1,5,4.6,4.6c0.3,0,0.7,0,1,0
				c0.6-0.1-0.8-0.2,0.2,0.1c-1-1.9-2.2-3.8-3.2-5.7c0.6-1.9-0.7,1.2-0.6,1c-0.2,0.5-0.2,1.1-0.2,1.8c0,1.9,1.1,3.5,2.8,4.4
				c2.7,1.4,6.6,0.5,8.2-2.2c3.4-6-4.6-10.3-9.3-11.6c-2.4-0.6-5.2,0.8-5.7,3.2c-0.6,2.7,0.8,4.7,3.2,5.7c1.2,0.5,2.5,1,3.7,1.4
				c0.4,0.2,0.9,0.4,1.3,0.5c0.6,0.2,0.6,0.2,0.1,0c0.2,0.1,0.5,0.2,0.7,0.4c0.7,0.4,0.5,0.2-0.5-0.7c-0.4-3.2,0.3-4.7,2.3-4.9
				c-0.4,0-0.9,0-1.3,0c-1.3,0-2.7,0-4,0.1c-5.1,0.1-10.2,0.5-15.2,1.3c-0.6,0.1-1.2,0.2-2,0.3c0.8-0.1-0.6,0.1-0.7,0.1
				c-0.6,0.1-1.2,0.1-2,0.1c-0.2,0-2-0.2-1-0.1c-0.4-0.1-0.9-0.2-1.3-0.3c-0.2,0-1.8-0.6-0.9-0.2c-0.2-0.1-0.5-0.2-0.7-0.4
				c-0.4-0.3-0.4-0.3,0,0c-0.1-0.1-0.2-0.2-0.3-0.3c0.3,0.5,0.4,0.5,0.1,0.1c0.5,1,0.5,2,0,3c-0.2,0.3-0.4,0.5-0.7,0.7
				c0.2,0,1.1-0.6,1.3-0.7c-0.7,0.4,0.1,0,0.4-0.1c0.5-0.2,1-0.3,1.7-0.5c0.5-0.1,1-0.2,1.4-0.3c0.3-0.1,0.3,0-0.2,0
				c0.3,0,0.6-0.1,0.8-0.1c1.1-0.1,2.4,0,3.5,0.1c-0.4-3-0.8-6.1-1.2-9.1c-2.4,0.5-4.6,0.9-7,1.4c-2.6,0.5-5.5,0.7-7.3,2.7
				c-2.5,2.6-1.8,6.5,0.5,8.9c1.8,1.8,4.3,2.9,6.7,3.4c2.4,0.5,5.2-0.7,5.7-3.2C464.4,426.3,463.1,423.5,460.5,423L460.5,423z"/>
		</g>
	</g>
</g>
<g>
	<g>
		<g>
			<path d="M391.4,452.5c2.1,4.5,4.2,8.9,6.2,13.3c0.4,0.8,0.7,1.7,1.5,2.2c0.8,0.5,1.8,0.4,2.6,0.1c2.2-0.8,4.4-1.8,6.6-2.8
				c1.6-0.8,3.8-1.6,4.6-3.4c0.7-1.6,0.2-3.2-0.2-4.8c-0.3-1.9,0.7-3,2.2-3.9c1.9-1.1,4-1.9,5.9-2.9c3-1.4,7.8-2.9,8.4-6.7
				c0.6-3.9-3.7-6.2-7-5.8c-2,0.2-4,1.1-5.9,2c-2,1-3.9,2.2-5.6,3.6c-0.4,0.4-0.9,0.7-1.3,1.1c-0.1,0-0.5,0.4-0.5,0.4
				c0.1,0,0.2,0.1,0.4,0.1l0-0.1c0-0.2-0.4-0.7-0.4-0.9c-0.1-0.4-0.3-0.9-0.4-1.3c-0.7-1.5-2.1-2.5-3.7-3.1
				c-3.9-1.4-8.5-0.2-11.7,2.3c-3.2,2.5-4.8,7.7-1.5,10.8c1.2,1.1,3-0.6,1.9-1.7c-2.6-2.5-0.5-6.2,2-7.7c2.5-1.5,6.1-2.4,8.9-1.1
				c1.3,0.6,1.8,1.5,2.3,2.9c0.4,1.2,1.2,2.6,2.8,2.3c0.8-0.1,1.3-0.6,1.8-1.1c0.7-0.7,1.6-1.3,2.4-1.9c1.6-1.2,3.6-2.2,5.4-3
				c1.5-0.7,3.2-1.3,4.9-1.2c1.3,0.1,2.8,1,3.1,2.4c0.2,1.4-0.9,2.4-2,3.1c-1.6,1-3.3,1.6-4.9,2.5c-1.8,0.8-3.6,1.6-5.4,2.6
				c-1.3,0.7-2.7,1.6-3.6,2.9c-0.9,1.3-1,2.7-0.7,4.2c0.2,1.1,0.9,2.7,0,3.6c-0.7,0.7-1.9,1.1-2.7,1.6c-1,0.5-2.1,1-3.2,1.5
				c-1.1,0.4-2.2,0.9-3.2,1.3c-0.3,0.1-0.6,0.3-0.9,0.2c-0.3-0.2-0.6-1.1-0.7-1.4c-2-4.3-4.1-8.6-6.1-12.9
				C392.9,450,390.7,451.1,391.4,452.5L391.4,452.5z"/>
		</g>
	</g>
	<g>
		<g>
			<path d="M421.3,442.7c-0.7,0.4-1.5,0.7-2.2,1.1c-0.3,0.1-0.5,0.4-0.7,0.7c-0.1,0.3-0.1,0.7,0.1,1c0.3,0.6,1.1,0.9,1.7,0.6
				c0.2-0.1,0.4-0.2,0.7-0.3c0.3-0.1,0.5-0.4,0.7-0.7c0.1-0.3,0.1-0.7-0.1-1c-0.3-0.6-1.1-0.9-1.7-0.6c-0.2,0.1-0.4,0.2-0.7,0.3
				c-0.3,0.1-0.5,0.4-0.7,0.7c-0.1,0.3-0.1,0.7,0.1,1c0.3,0.6,1.1,0.9,1.7,0.6c0.7-0.4,1.5-0.7,2.2-1.1c0.3-0.1,0.5-0.4,0.7-0.7
				c0.1-0.3,0.1-0.7-0.1-1C422.7,442.6,421.9,442.4,421.3,442.7L421.3,442.7z"/>
		</g>
	</g>
	<g>
		<g>
			<path d="M388,445.7c-4.5,2.1-8.8,4.3-12.9,6.7c-1.6,1-3.1,2.2-3.3,3.9c-0.2,1.6,0.8,3,1.5,4.5c1.8,3.3,3.8,6.3,6.2,9.2
				c1.8,2.3,4.1,5.7,8,5.4c4.1-0.2,7-3.5,10.8-4.7c2.2-0.7,1.8-3.4-0.4-2.8c-1.9,0.6-3.5,1.5-5.2,2.5c-1.4,0.8-3.2,2-4.8,2.1
				c-1.9,0-3.1-1.8-4.1-2.8c-1.3-1.6-2.6-3.1-3.7-4.8s-2.2-3.3-3.2-5c-0.4-0.9-1-1.7-1.3-2.7c-0.3-0.7-0.5-1.2,0.2-2
				c0.9-0.7,2.1-1.2,3-1.8c1.1-0.6,2.3-1.3,3.5-1.9c2.4-1.2,4.7-2.4,7.1-3.5C391.4,447.2,390.1,444.8,388,445.7L388,445.7z"/>
		</g>
	</g>
</g>
<polyline class="st2" points="375.4,457.3 390,449.9 376.8,460 391.4,452.5 378,462.3 393,455.7 379.9,464.9 394.3,459.1 
	381.8,467.4 395.9,462.3 383.6,469.7 397.7,465.8 383.3,473 "/>
<g>
	<g>
		<path class="st3" d="M726,185"/>
	</g>
</g>
<g>
	<g>
		<path class="st4" d="M553.6,270.9c-16.6-5.8-34.2-8.8-51.8-8.9"/>
		<g>
			<path d="M554.2,268.7c-16.9-5.8-34.5-8.8-52.4-9c-2.9,0-2.9,4.5,0,4.5c17.5,0.2,34.6,3.1,51.2,8.8
				C555.8,274,556.9,269.6,554.2,268.7L554.2,268.7z"/>
		</g>
	</g>
	<g>
		<path class="st4" d="M553.8,270.3c4.4,1,9.2-1.2,11.9-4.9c2.7-3.6,3.5-8.4,3.1-13c-0.1-1.2-0.4-2.5-1.1-3.5
			c-1.2-1.7-3.5-2.2-5.5-2.4c-5.1-0.4-10.4,0.8-14.8,3.4c-1.2,0.7-2.4,1.6-3.8,1.8c-1.7,0.3-3.5-0.3-5.2-0.8
			c-8.9-2.9-18.3-4-27.6-3.2c-3.3,0.3-6.9,0.9-9.1,3.5c-2.2,2.5-1.6,7.4,1.6,8.2"/>
		<g>
			<path d="M553.2,272.5c10.4,1.7,17.6-7.1,18-16.9c0.1-4.1-0.6-8.4-4.7-10.2c-5-2.3-12-0.9-16.9,1.1c-4.2,1.8-6.5,3.6-11.4,2.1
				c-3.6-1.1-7.2-1.9-10.9-2.5c-6.3-0.9-12.9-1.3-19.1-0.2c-4.2,0.7-8.7,2.8-9.7,7.3c-0.8,3.8,0.9,7,4.4,8.4
				c2.7,1.1,3.8-3.3,1.2-4.3c-2.9-1.2-0.5-4.8,1.1-5.8c1.9-1.2,4.6-1.3,6.7-1.5c3.7-0.3,7.5-0.2,11.2,0.1c4.5,0.4,8.8,1.3,13.1,2.5
				c2.7,0.8,5.3,2,8.1,1.4c3-0.6,5.5-3,8.5-4c3.1-1.1,8.4-2.5,11.4-0.9c3.9,2,2.8,8.4,1.6,11.7c-1.8,4.6-6.1,8.1-11.3,7.3
				C551.6,267.7,550.3,272,553.2,272.5L553.2,272.5z"/>
		</g>
	</g>
	<g>
		<path class="st4" d="M534.3,249.9c-1-4-4.1-7.4-8-8.8"/>
		<g>
			<path d="M536.5,249.3c-1.3-4.9-4.9-8.6-9.6-10.3c-2.7-1-3.9,3.3-1.2,4.3c3.2,1.2,5.6,3.9,6.4,7.2
				C532.9,253.3,537.2,252.1,536.5,249.3L536.5,249.3z"/>
		</g>
	</g>
	<g>
		<path class="st4" d="M509.5,265.7c-1.2,4.9-1.7,10-1.4,15"/>
		<g>
			<path d="M507.4,265.1c-1.2,5.1-1.7,10.3-1.5,15.6c0.1,2.9,4.6,2.9,4.5,0c-0.3-4.9,0.2-9.6,1.3-14.4
				C512.4,263.5,508.1,262.3,507.4,265.1L507.4,265.1z"/>
		</g>
	</g>
	<g>
		<path class="st4" d="M531.7,268.9c2.3,19,1.9,38.4-1.5,57.3"/>
		<g>
			<path d="M529.4,268.9c2.2,18.9,1.8,37.9-1.4,56.7c-0.5,2.8,3.9,4,4.3,1.2c3.3-19.2,3.8-38.6,1.5-57.9
				C533.6,266,529.1,266,529.4,268.9L529.4,268.9z"/>
		</g>
	</g>
	<g>
		<path class="st4" d="M530.7,327.3c13.9-4.1,28.3-8.5,39-18.3"/>
		<g>
			<path d="M531.3,329.5c14.3-4.3,28.6-8.9,40-18.8c2.2-1.9-1-5.1-3.2-3.2c-10.7,9.5-24.5,13.7-38,17.7
				C527.3,326,528.5,330.3,531.3,329.5L531.3,329.5z"/>
		</g>
	</g>
	<g>
		<path class="st4" d="M571,308c-3.5-13.4-10-26.1-18.9-36.8"/>
		<g>
			<path d="M573.2,307.4c-3.8-13.9-10.4-26.6-19.5-37.8c-1.8-2.2-5,1-3.2,3.2c8.6,10.6,14.7,22.6,18.3,35.8
				C569.6,311.4,574,310.2,573.2,307.4L573.2,307.4z"/>
		</g>
	</g>
	<g>
		<path class="st4" d="M509.7,275.9c0,1.5,0,3,0,4.6c0-1.2,0-2.3,0.1-3.5c1.5,0.8,3,1.6,4.4,2.4c0.6-0.7,1.4-1.2,2.3-1.4
			c-0.9,1.7-1.9,3.6-3.6,4.5c-1.7,0.9-4.4,0.3-4.8-1.6c-0.7-2.7,3.2-4.1,6-4.3c1.4-0.1,3.4,0.3,3.5,1.7c0.2,2.7-5.5,1.4-6.3,3.9"/>
		<g>
			<path d="M507.5,275.9c0,1.5,0,3,0,4.6c0,2.9,4.4,2.9,4.5,0c0-1.2,0-2.3,0.1-3.5c-1.1,0.6-2.3,1.3-3.4,1.9c1.5,0.8,3,1.6,4.4,2.4
				c0.9,0.5,2,0.4,2.7-0.4c0.4-0.5,0.7-0.7,1.3-0.9c-0.8-1.1-1.7-2.2-2.5-3.3c-0.6,1.1-1.2,2.6-2.3,3.4c-0.3,0.2-1.7,0.9-2,0.2
				c-0.3-1,3.5-1.5,4-1.5c0.1,0,1.2,0.2,1.3,0.2c0,0-0.2-1.6,0.2-1.3c-0.1-0.1-2,0.5-2.2,0.6c-1.7,0.4-3.5,1.1-4.2,2.8
				c-1.1,2.6,2.7,4.9,3.9,2.3c0.4-0.9,2.5-0.9,3.4-1.2c1.5-0.5,2.8-1.4,3.1-3c1.1-5.2-6.2-5.3-9.3-4.2c-1.8,0.6-3.7,1.8-4.4,3.7
				c-0.7,1.9,0,4.1,1.6,5.3c1.7,1.3,4.1,1.4,6,0.6c2.3-1,3.7-3.3,4.8-5.5c0.9-1.7-0.6-3.9-2.5-3.3c-1.3,0.4-2.4,1-3.3,2
				c0.9-0.1,1.8-0.2,2.7-0.4c-1.5-0.8-3-1.6-4.4-2.4c-1.5-0.8-3.4,0.2-3.4,1.9c0,1.2,0,2.3-0.1,3.5c1.5,0,3,0,4.5,0c0-1.5,0-3,0-4.6
				C512,273,507.5,273,507.5,275.9L507.5,275.9z"/>
		</g>
	</g>
	<g>
		<path class="st4" d="M519.2,276.8c3.5-1.4,7.3-2,11-1.7"/>
		<g>
			<path d="M519.8,279c3.4-1.3,6.8-1.8,10.4-1.6c2.9,0.2,2.9-4.3,0-4.5c-4-0.2-7.9,0.3-11.6,1.8C515.9,275.7,517.1,280,519.8,279
				L519.8,279z"/>
		</g>
	</g>
	<g>
		<path class="st4" d="M508,285.4c0.9,3-0.2,6.6-2.8,8.5c2.3-0.5,3.9,2.1,5.4,3.8c4.5,5.2,14.3,4.1,17.5-2"/>
		<g>
			<path d="M505.8,286c0.6,2.6-0.2,4.6-2.2,6.3c-1.5,1.3-0.3,3.9,1.6,3.8c2.3,0,4.7,4.4,6.8,5.5c2.1,1.2,4.5,1.7,6.8,1.6
				c4.7-0.1,8.8-2.4,11.3-6.4c1.5-2.5-2.4-4.7-3.9-2.3c-2.6,4.1-8.5,5.5-12.6,2.7c-3.1-2.1-4.2-5.7-8.4-5.7c0.5,1.3,1.1,2.6,1.6,3.8
				c3.2-2.8,4.3-6.6,3.4-10.7C509.5,282,505.2,283.2,505.8,286L505.8,286z"/>
		</g>
	</g>
	<g>
		<path class="st4" d="M515.2,303.4c-3.1,0.2-5.4,2.8-7.2,5.3c-8.8,12-14.5,27.7-9.8,41.8c4.6,13.4,17.3,22,29.3,29.7"/>
		<g>
			<path d="M514.6,301.2c-7.5,1.3-12.1,10.9-15,17.1c-3.9,8.1-6.2,17.1-5,26.1c2.3,17.9,17.8,28.7,31.8,37.7
				c2.4,1.6,4.7-2.3,2.3-3.9c-11.8-7.5-25.3-16.3-29-30.7c-1.9-7.6-0.7-15.6,2-22.8c2.2-5.8,7.1-17.8,14-19.1
				C518.6,305.1,517.4,300.7,514.6,301.2L514.6,301.2z"/>
		</g>
	</g>
	<g>
		<path class="st4" d="M516.1,342.1c0.9-3.3,2.6-6.4,4.8-9c-1.6,2.6-3.2,5.3-4.8,7.9c-0.4,0.6-0.7,1.2-0.7,1.9
			c0.1,0.8,0.7,1.5,1.4,2c6.9,6.2,13.8,12.3,20.8,18.5c-5.5,4.5-9.3,11-10.5,18"/>
		<g>
			<path d="M518.2,342.7c1-3,2.3-5.6,4.2-8c-1.2-0.9-2.4-1.8-3.5-2.7c-2.8,4.6-8.2,9.6-3.8,14.6c6,6.7,14,12.5,20.8,18.5
				c0-1.1,0-2.1,0-3.2c-5.8,5-9.6,11.5-11.1,19c-0.6,2.8,3.8,4,4.3,1.2c1.3-6.8,4.6-12.5,9.9-17c0.9-0.8,0.9-2.4,0-3.2
				c-4.9-4.4-9.9-8.8-14.8-13.2C522.7,347.2,518.5,344.8,518.2,342.7c-0.4-1.9,3.6-6.8,4.6-8.5c1.3-2.1-1.9-4.8-3.5-2.7
				c-2.4,3.1-4.2,6.3-5.4,10C513,344.2,517.3,345.4,518.2,342.7L518.2,342.7z"/>
		</g>
	</g>
	<g>
		<path class="st4" d="M517.5,375.1c-0.1,12.9,0.2,25.7,1,38.5"/>
		<g>
			<path d="M515.3,375.1c-0.1,12.9,0.2,25.7,1,38.5c0.2,2.9,4.7,2.9,4.5,0c-0.8-12.8-1.1-25.7-1-38.5
				C519.8,372.2,515.3,372.2,515.3,375.1L515.3,375.1z"/>
		</g>
	</g>
	<g>
		<path class="st4" d="M562,329.6c3.1,4.4,5.1,9.7,4.9,15c-0.2,5.4-2.8,10.7-7.3,13.7"/>
		<g>
			<path d="M560.1,330.7c5.4,7.9,7.2,19.2-1.5,25.7c-2.3,1.7-0.1,5.6,2.3,3.9c10.6-7.9,10.1-21.6,3.1-31.8
				C562.3,326,558.4,328.3,560.1,330.7L560.1,330.7z"/>
		</g>
	</g>
	<g>
		<path class="st4" d="M559.4,359.2c4.2,2.4,6.2,8.1,4.4,12.6"/>
		<g>
			<path d="M558.2,361.2c3.5,2.1,4.7,6.3,3.3,10.1c-1,2.7,3.3,3.9,4.3,1.2c2.1-5.6-0.3-12-5.4-15.2
				C558,355.7,555.8,359.6,558.2,361.2L558.2,361.2z"/>
		</g>
	</g>
	<g>
		<path class="st4" d="M564.7,373.4c11.4-7.9,17.8-21.4,20-35.1c1.3-7.8,1.4-15.9-1-23.5c-2.4-7.5-7.4-14.5-14.4-18"/>
		<g>
			<path d="M565.8,375.3c23-16.5,34-64.5,4.6-80.5c-2.5-1.4-4.8,2.5-2.3,3.9c26.2,14.2,15.8,58-4.6,72.7
				C561.2,373.1,563.5,377,565.8,375.3L565.8,375.3z"/>
		</g>
	</g>
	<g>
		<path class="st4" d="M579.1,358.7c2.4,15.3,4.7,30.5,7.1,45.8c0.1,0.7,0.2,1.4-0.1,2c-0.6,1-1.9,1-3,1c-9.9-0.5-19.8,0.7-29.7,1.8
			c-10.9,1.2-21.7,2.5-32.6,3.7"/>
		<g>
			<path d="M576.9,359.3c1.4,8.9,2.8,17.8,4.1,26.7c0.7,4.5,1.4,8.9,2.1,13.4c0.2,1.3,0.4,2.5,0.6,3.8c0.1,1.7-0.4,2.3-1.7,2
				c-1.7,0.6-5.1-0.1-6.9,0c-18.1,0.5-36.4,3.5-54.4,5.5c-2.8,0.3-2.9,4.8,0,4.5c10.9-1.2,21.7-2.5,32.6-3.7
				c5.6-0.6,11.2-1.3,16.8-1.6c4.6-0.3,10.2,0.7,14.6-0.3c2.2-0.5,3.6-1.8,3.7-4.1c0.3-4.4-1.4-9.7-2.1-14
				c-1.7-11.1-3.5-22.3-5.2-33.4C580.8,355.2,576.5,356.4,576.9,359.3L576.9,359.3z"/>
		</g>
	</g>
	<g>
		<path class="st4" d="M531.7,416c1.8,10.1,3,20.4,3.5,30.7"/>
		<g>
			<path d="M529.5,416.6c1.8,10,2.9,20,3.4,30.1c0.1,2.9,4.6,2.9,4.5,0c-0.5-10.5-1.7-20.9-3.6-31.3
				C533.4,412.6,529,413.8,529.5,416.6L529.5,416.6z"/>
		</g>
	</g>
	<g>
		<path class="st4" d="M545.2,413.6c-0.7,11.3,0.1,22.7,2.4,33.8"/>
		<g>
			<path d="M543,413.6c-0.7,11.6,0.2,23,2.4,34.4c0.6,2.8,4.9,1.6,4.3-1.2c-2.2-11-2.9-22.1-2.3-33.2
				C547.6,410.8,543.1,410.8,543,413.6L543,413.6z"/>
		</g>
	</g>
	<g>
		<path class="st4" d="M564.9,411.3c-0.8,11.3-0.4,22.7,1.3,33.8"/>
		<g>
			<path d="M562.7,411.3c-0.8,11.5-0.3,23,1.4,34.4c0.4,2.9,4.7,1.6,4.3-1.2c-1.6-11-2-22.1-1.2-33.2
				C567.4,408.4,562.9,408.4,562.7,411.3L562.7,411.3z"/>
		</g>
	</g>
	<g>
		<path class="st4" d="M578.5,411.3c0.8,12.3,1.6,24.7,2.5,37"/>
		<g>
			<path d="M576.2,411.3c0.8,12.3,1.6,24.7,2.5,37c0.2,2.9,4.7,2.9,4.5,0c-0.8-12.3-1.6-24.7-2.5-37
				C580.5,408.4,576,408.4,576.2,411.3L576.2,411.3z"/>
		</g>
	</g>
	<g>
		<path class="st4" d="M534.1,448.1c4.7,0.7,9.5,0.4,14.1-0.9c0,5.8,0,11.7,0,17.5"/>
		<g>
			<path d="M534.1,450.4c5,0.6,9.9,0.3,14.7-0.9c-0.9-0.7-1.9-1.4-2.8-2.2c0,5.8,0,11.7,0,17.5c0,2.9,4.5,2.9,4.5,0
				c0-5.8,0-11.7,0-17.5c0-1.5-1.4-2.5-2.8-2.2c-4.5,1.1-8.9,1.3-13.5,0.8C531.3,445.5,531.3,450,534.1,450.4L534.1,450.4z"/>
		</g>
	</g>
	<g>
		<path class="st4" d="M533.3,450.6c0.2,3.5,0.5,7,0.7,10.5c0.1,1.3,0.2,2.6,0.8,3.8c1.9,3.5,7,2.9,10.8,1.8"/>
		<g>
			<path d="M531,450.6c0.2,3.3,0.5,6.6,0.7,9.9c0.2,2.5,0.4,5,2.2,6.8c3.2,3.3,8.4,2.5,12.3,1.5c2.8-0.7,1.6-5.1-1.2-4.3
				c-2.6,0.7-7.3,1.9-8.5-1.4c-0.6-1.8-0.5-4.1-0.6-6.1c-0.2-2.1-0.3-4.3-0.5-6.4C535.3,447.8,530.8,447.7,531,450.6L531,450.6z"/>
		</g>
	</g>
	<g>
		<path class="st4" d="M566.4,446.7c4.5,0.4,9.1-0.1,13.4-1.6"/>
		<g>
			<path d="M566.4,448.9c4.8,0.4,9.4-0.2,14-1.6c2.8-0.9,1.6-5.2-1.2-4.3c-4.2,1.3-8.4,1.8-12.8,1.5
				C563.5,444.2,563.5,448.7,566.4,448.9L566.4,448.9z"/>
		</g>
	</g>
	<g>
		<path class="st4" d="M565.6,446.7c0,5.6,0,11.1-0.1,16.7c0,0.7,0,1.4,0.5,1.8c0.4,0.4,1,0.4,1.6,0.4c3,0,6,0,9,0.1
			c1.6,0,3.3,0,4.5-1.1c0.7-0.6,1.1-1.6,1.5-2.5c1.8-5,1.5-10.8-0.9-15.6"/>
		<g>
			<path d="M563.4,446.7c0,3.5,0,7.1,0,10.6c0,2.4-0.7,5.9,0.4,8.2c0.8,1.8,2.1,2.1,4,2.3c3.1,0.3,6.5,0.2,9.6,0
				c11-0.4,9.6-15.3,6.5-22.5c-1.2-2.6-5-0.4-3.9,2.3c1.6,3.6,2.1,7.6,1.3,11.5c-1,4.8-5,4.3-9,4.2c-0.9,0-4.1,0.2-4.4,0
				c-0.4-0.4,0-4,0-4.5c0-4,0-8.1,0.1-12.1C567.9,443.8,563.4,443.8,563.4,446.7L563.4,446.7z"/>
		</g>
	</g>
	<g>
		<path class="st4" d="M560.9,464.8c-1.1-2.8-2.3-5.6-3.4-8.3c2-1.1,4.9,0.2,5.3,2.5c-0.6-0.3-1.2-0.6-1.8-0.9
			c-0.3,1.6-0.2,3.2,0.1,4.7c0.4-1.1,0-2.5-0.9-3.3c-0.4,1.1-0.1,2.4,0.8,3.2c2.5-1.8,1.7-6.5-1.3-7.3c-1.5,3.4,0.1,7.9,3.4,9.6
			c1.8-1.2,0.7-4.6-1.4-4.5c-0.1,1.1,0.5,2.2,1.4,2.7c0.4-2.1-0.1-4.4-1.5-6.1"/>
		<g>
			<path d="M563.1,464.2c-1.1-2.8-2.3-5.6-3.4-8.3c-0.3,0.8-0.7,1.7-1,2.5c0.9-0.4,1.8,0.3,2,1.1c1.1-0.8,2.2-1.7,3.3-2.5
				c-0.6-0.3-1.2-0.6-1.8-0.9c-1.1-0.6-3.1-0.2-3.3,1.3c-0.3,2-0.3,3.9,0.1,5.9c0.4,2.2,3.8,2.1,4.3,0c0.5-2.1,0-4-1.5-5.5
				c-1.2-1.2-3.3-0.6-3.8,1c-0.5,2,0,3.9,1.4,5.4c0.9,1,2.3,0.7,3.2,0c3.9-3.2,2.2-9.5-2.3-11.1c-1.2-0.4-2.4,0.5-2.8,1.6
				c-1.7,4.5,0.3,9.7,4.4,12.2c0.9,0.5,1.9,0.3,2.7-0.4c3.4-2.8,0.9-8-3-8.4c-1.2-0.1-2.3,1.1-2.2,2.2c0,2,0.9,3.5,2.5,4.6
				c1.1,0.8,3.1,0.1,3.3-1.3c0.4-2.8,0-5.5-1.7-7.8c-1.7-2.3-5.6-0.1-3.9,2.3c0.9,1.3,1.5,2.7,1.2,4.4c1.1-0.4,2.2-0.9,3.3-1.3
				c-0.3-0.2-0.4-0.4-0.3-0.7c-0.8,0.8-1.5,1.5-2.2,2.2c0.1,0,0,0.6-0.2,0.7c0.9-0.1,1.8-0.2,2.7-0.4c-2.5-1.5-3.3-4.4-2.3-7.1
				c-0.9,0.5-1.8,1-2.8,1.6c1.5,0.5,1.3,2.7,0.3,3.6c1.1,0,2.1,0,3.2,0c-0.3-0.4-0.3-0.6-0.2-1.1c-1.3,0.3-2.5,0.7-3.8,1
				c0.4,0.4,0.4,0.6,0.3,1.1c1.4,0,2.9,0,4.3,0c-0.2-1.1-0.3-2.3-0.1-3.5c-1.1,0.4-2.2,0.9-3.3,1.3c0.6,0.3,1.2,0.6,1.8,0.9
				c1.7,0.8,3.8-0.6,3.3-2.5c-1-3.8-5.1-5.4-8.6-3.8c-0.8,0.4-1.4,1.7-1,2.5c1.1,2.8,2.3,5.6,3.4,8.3
				C559.9,468,564.2,466.8,563.1,464.2L563.1,464.2z"/>
		</g>
	</g>
	<g>
		<path class="st4" d="M529.3,459.3c0.1,0.9,0.2,1.8,0.4,2.6c0.8-1.5-1-3.7-2.6-3.1c0.4,1.8,1.5,3.8,3.3,4.1
			c1.8,0.3,3.4-2.6,1.8-3.4c-0.6,1.1,0.1,2.7,1.3,3.1c-0.2-0.8-1.5-0.2-1.6,0.6c-0.1,0.8,0.3,1.6,0.2,2.4c-0.3,2-3.3,1.9-4.8,0.7
			c-2.1-1.7-3.2-4.9-1.9-7.3s5.1-3.1,6.8-1.1c-3.3-0.4-6.1,3.7-4.8,6.8c1.3,3.1,5.8,4.1,8.5,2.1c-2.9,0.7-6.2-0.3-8.1-2.6
			c-0.3-0.4-0.7-0.9-0.6-1.4c0.1-1.1,1.7-1.4,2.8-1.1c4.7,1.2,9.2,5.7,13.6,3.7"/>
		<g>
			<path d="M527.1,459.9c0.1,0.9,0.2,1.8,0.4,2.6c0.3,2.3,3.8,2,4.3,0c0.8-3.2-1.4-6.2-4.8-6c-1.4,0.1-2.6,1.4-2.2,2.8
				c0.9,3,3.4,6.8,7.1,5.5c3-1,4.1-4.8,1.8-7c-1.2-1.1-3.3-0.7-3.8,1c-0.6,2.3,0.2,4.5,2.4,5.6c2.2,1.2,4.5-1.7,2.7-3.5
				c-1.5-1.6-4-1.2-5,0.7c-0.7,1.3,0.3,3.1-1.5,2.6c-3.3-1-0.9-7.5,2-4.9c0.5-1.3,1.1-2.6,1.6-3.8c-4.9,0-8.9,5.2-6.9,9.9
				c1.9,4.5,7.8,5.6,11.7,3.2c2.3-1.4,0.7-4.6-1.7-4.1c-1.6,0.3-2.5-0.1-4.1-0.5c-0.1,0-2.1-1.4-1.9-0.2c0,0.2,5.3,2.3,5.9,2.6
				c2.9,1.4,5.8,2.2,8.9,1.1c2.7-0.9,1.6-5.3-1.2-4.3c-4.7,1.6-13.9-8-17.6-2.2c-1.5,2.3,0.4,4.7,2.2,6c2.6,2,5.7,2.4,8.8,1.8
				c-0.6-1.4-1.2-2.7-1.7-4.1c-1.4,0.8-3.2,1.1-4.5-0.1c-1.9-1.6-0.5-4.7,1.9-4.7c1.9,0,3.1-2.5,1.6-3.8c-5.4-5-13,1-10.8,7.6
				c1,2.9,3.5,5.4,6.7,5.4c1.3,0,2.6-0.4,3.5-1.3c0.4-0.5,0.7-0.9,0.9-1.5c0.1-0.3,0.2-0.6,0.2-0.9c0.3-1.5-0.5-2-2.4-1.3
				c0.9-1.2,1.8-2.4,2.7-3.5c-0.1-0.2-0.2-0.4-0.3-0.6c-1.3,0.3-2.5,0.7-3.8,1c-0.6-0.9-1.1-1.8-1.3-2.8c-0.7,0.9-1.4,1.9-2.2,2.8
				c0.2,0.1,0.3,0.2,0.5,0.3c1.4,0,2.9,0,4.3,0c-0.1-0.9-0.2-1.8-0.4-2.6C531.1,455.8,526.7,457.1,527.1,459.9L527.1,459.9z"/>
		</g>
	</g>
	<g>
		<path class="st4" d="M564.4,454.9c-1.6-1.9-4.9-1.9-6.5,0s-1.7,4.8-0.2,6.8c1.4,2,4.1,3,6.5,2.8c-4.1-1.6-6.9-6.2-6.3-10.6
			c2.1-0.1,4.2-0.1,6.3-0.2"/>
		<g>
			<path d="M565.9,453.3c-3.7-4-10.5-1.8-11.5,3.4c-1.2,5.9,4.1,10.2,9.7,10c2-0.1,3.4-3.3,1.1-4.2c-3.6-1.5-5.6-4.8-5.2-8.7
				c-0.8,0.8-1.5,1.5-2.2,2.2c2.1-0.1,4.2-0.1,6.3-0.2c2.9-0.1,2.9-4.6,0-4.5c-2.1,0.1-4.2,0.1-6.3,0.2c-1.3,0-2.1,1-2.2,2.2
				c-0.5,5.2,2.6,10.5,7.5,12.6c0.4-1.4,0.8-2.8,1.1-4.2c-2.4,0.1-5.2-0.9-5.3-3.7c-0.1-2.2,2.3-3.8,4-2
				C564.7,458.6,567.9,455.5,565.9,453.3L565.9,453.3z"/>
		</g>
	</g>
	<g>
		<path class="st4" d="M531.2,373.6c-0.7,2.9-0.8,6.9,2,8c0.9,0.3,1.9,0.2,2.8,0c2.9-0.9,5-3.9,4.8-6.9c-0.1-3-2.5-5.8-5.5-6.4
			c-0.4-0.1-0.9-0.1-1.3,0.1c-0.7,0.3-0.8,1.2-0.8,1.9c-0.1,1.6,0,3.2,0.1,4.8c1.5,0.7,3,1.2,4.6,1.5c0.1-1.1-1.6-1.6-2.4-0.8
			s-0.9,2-0.7,3c1.5-0.7,2.8-1.7,3.8-3c-0.1-1-1.1-1.8-2.1-1.7c-1,0.1-1.8,1.2-1.7,2.2c2.2-1.2,2.8-4.5,1.2-6.5"/>
		<g>
			<path d="M529,373c-0.7,3.6-1,8.7,3.1,10.5c4.6,2.1,9.6-2.1,10.7-6.4c1.1-4.4-1.5-9.1-5.8-10.7c-6.2-2.3-6.2,4.5-5.9,8.7
				c0.1,0.7,0.4,1.6,1.1,1.9c1.7,0.7,3.3,1.3,5.1,1.8c1.8,0.4,3.1-1.1,2.8-2.8c-0.4-2.1-2.7-3.3-4.7-2.7c-2.3,0.7-3.1,3.3-2.8,5.4
				c0.2,1.7,1.7,2.8,3.4,1.9c2.9-1.5,7.2-4.9,3.3-8c-3-2.3-6.6,0.1-6.7,3.5c-0.1,1.6,2,2.9,3.4,1.9c3.1-2.1,4.2-6.3,2-9.5
				c-1.6-2.4-5.5-0.1-3.9,2.3c0.8,1.1,0.8,2.5-0.4,3.4c1.1,0.6,2.3,1.3,3.4,1.9c-0.2,0-0.4,0.1-0.6,0.1c0.2-0.7,0.4-1.5,0.6-2.2
				c-1,1.1-2,1.9-3.3,2.6c1.1,0.6,2.3,1.3,3.4,1.9c0.1-0.8-0.4-1.3-1.4-1.6c0.9-0.9,1.8-1.8,2.8-2.8c-1.4-0.3-2.7-0.7-4-1.3
				c0.4,0.6,0.7,1.3,1.1,1.9c-0.1-1.3-0.2-2.6-0.2-3.9c0-1.1-0.2-1,0.8-0.2c1.7,1.3,2.7,3,2.1,5.2c-0.5,1.5-3.4,4.8-5,2.6
				c-0.8-1.1-0.3-3.5-0.1-4.7C534,371.4,529.6,370.2,529,373L529,373z"/>
		</g>
	</g>
	<g>
		<path class="st4" d="M562.3,364.5c-4.2,1.5-7.4,5.4-8.2,9.8c-0.2,0.9,0,2.2,0.9,2.4c0.4,0.1,0.9-0.1,1.2-0.3
			c2.9-1.6,4.5-5.2,3.9-8.5c-0.1-0.6-0.4-1.3-1-1.5c-0.7-0.3-1.5,0.2-2.1,0.8c-1.3,1.4-2.1,3.2-2.3,5.1c2.4,0.8,5.5,0.9,7.2-1
			c1.7-1.9,0.1-5.9-2.3-5.2c-1.9,0.5-2.2,3.6-0.5,4.6s4.1-0.7,4-2.7c-0.1-1.9-2.6-3.3-4.3-2.5c-1,0.4-1.7,1.5-1.7,2.5
			c0.1,1.6,2.2,2.7,3.7,2c1.5-0.7,2-2.8,1.2-4.3c-0.8-1.5-2.6-2.2-4.2-2c1.2,2.4,4.5,3.4,6.9,2.1c-4.5-1.6-9.9,2.8-9.3,7.6
			c0.1,0.6,0.3,1.2,0.7,1.5c0.4,0.3,1,0.4,1.5,0.3c2.6-0.2,5.2-2.4,5.1-5.1c-0.1-2.7-3.3-4.8-5.6-3.5c-1.5,0.9-2.1,2.8-1.9,4.6
			c0.1,1.6,0.8,3.3,2.2,4.2c1.4,0.9,3.4,0.8,4.4-0.4c1.9-2.3-0.9-5.6-3.6-6.9c-1.1-0.5-2.3-1-3.5-0.8c-2.9,0.5-3.4,4.9-1.3,6.9
			c2.1,2,5.5,1.9,8.2,1"/>
		<g>
			<path d="M561.7,362.4c-4.5,1.8-8,5.2-9.5,9.9c-0.6,1.8-0.9,4.3,0.7,5.8c1.8,1.7,4.1,0.7,5.8-0.7c3-2.5,5.5-8.5,2.7-12
				c-1.5-1.9-4-1.5-5.6-0.1c-2.1,1.8-2.9,4.4-3.3,7c-0.1,1,0.8,1.9,1.7,2.2c2.9,0.9,6.5,1,8.9-1.1c2.1-1.8,2.4-4.9,1-7.3
				c-3.3-5.6-11,0.2-7.4,5.2c4,5.7,12.7-2.8,6.6-7.2c-6-4.4-12.1,5.7-5.1,8.1c3.2,1.1,6.3-1.3,6.5-4.6c0.2-3.8-3.3-6.2-6.8-6
				c-1.6,0.1-2.9,1.9-1.9,3.4c2.2,3.5,6.2,4.6,10,2.9c1.8-0.8,1.2-3.6-0.5-4.1c-3.8-1.1-7.7,0.4-10.1,3.4c-2,2.5-3.4,7.7-0.1,9.8
				c3.4,2.3,8.4-1.1,9.6-4.4c1.3-3.5-0.9-7.4-4.5-8.3c-8.8-2.1-9.5,14.1-0.6,14.1c3.9,0,6.3-3.9,4.7-7.4c-1.5-3.5-6.3-6.8-10.2-5.7
				c-3.7,1-4.8,5.7-3.3,8.8c2.1,4.4,7.6,4.6,11.7,3.4c2.8-0.8,1.6-5.2-1.2-4.3c-1.7,0.5-3.7,0.9-5.3,0c-0.9-0.5-2-2.2-1-3.2
				c1.1-1.2,4.1,1,4.8,2c0.6,0.9,1,2.2-0.6,1.7c-1-0.3-1.3-1.5-1.4-2.4c-0.2-1.4,0.8-3.8,2.4-2.2c0.6,0.6,0.7,1.1,0.5,1.9
				c-0.2,0.5-1.8,2.5-2.6,2c-1.1-0.7,1.1-3.5,1.6-3.9c1.3-1.1,3-1.5,4.6-1c-0.2-1.4-0.4-2.7-0.5-4.1c-1.4,0.6-3,0-3.8-1.3
				c-0.6,1.1-1.3,2.3-1.9,3.4c0.7,0,2,0,2.3,0.9c0,0.2,0,0.4,0,0.6c-0.6,0.5-0.6,0.6-0.2,0.2c0.2-0.4,0.6-0.3,0.9,0.1
				c-0.1,0.3-0.2,0.5-0.4,0.8c0,0-0.1-0.6-0.2-0.4c-0.2,0.9,0.6,1.3-0.5,2c-1.2,0.8-3.2,0.3-4.4-0.1c0.6,0.7,1.1,1.4,1.7,2.2
				c0.1-0.8,0.8-3.8,2.1-3.7c-0.5-0.2-1.1-0.4-1.6-0.7c1.1,0.9,0.2,3.3-0.3,4.3c-0.4,0.7-1.1,1.1-1.4,1.7c-1.1,0.4-0.9,0.7,0.5,0.9
				c0-0.4,0.1-0.7,0.2-1.1c0.9-3.2,3.3-5.9,6.4-7.1C565.5,365.6,564.4,361.3,561.7,362.4L561.7,362.4z"/>
		</g>
	</g>
	<g>
		<path class="st4" d="M536.5,270.7c5,13.8,10.8,28.1,8.5,42.6c0.7-13.1-0.9-26.3-4.7-38.9c-1.4,9.8-1.1,19.8,0.9,29.5
			c-0.5-4-1.6-8-3.2-11.8c0.2,5.8,1.1,11.6,2.6,17.2c-0.1-1.7-0.1-3.3-0.2-5c0,4.3,0,8.6,0,12.9c0.1-8.8,0.9-17.8,3.9-26
			c2,3.5,3.4,7.4,4.3,11.3c0.6-3,0.2-6.2-1.1-9c1.6,3.1,3.6,5.9,6.1,8.4c-0.1-11.5-3-23-8.4-33.2c1.1,7.1,3.6,13.9,7.3,20.1
			c-2.5-3.7-5-7.5-7.5-11.2c2.9,4.9,5.8,9.8,8.6,14.7c-1.7-3-3.8-5.7-6.2-8.2c1.2,5.8,4.4,11.1,8.9,14.9c0.4-6.1-0.4-12.3-2.4-18.1
			c3.4,2.9,6.2,6.4,8.4,10.3c0.6-0.4-0.6-1.2-1-0.7s-0.1,1.4,0.2,2c2.1,4,3.9,8.1,5.3,12.4c-2.4-2.1-4.9-4.1-7.3-6.2
			c1.5,3.3,2.9,6.7,4.4,10c-2.2-2.7-4.9-5-8-6.8c0,2.2,0.1,4.5,0.1,6.7c-1.6-1.8-3-3.9-4-6.1c-1.3,1.7-1.9,3.9-1.6,6.1
			c-0.8-0.4-1.6-0.7-2.4-1.1c-0.7,2.5-1.4,5-2.1,7.6c-1.1-1.4-3.1-1.9-4.7-1.2c-1.6,0.8-2.5,2.7-2.1,4.4c-1.2-0.1-2.4-0.9-2.9-2
			c-0.8,1.4-1.7,2.9-2.5,4.3c0.7-5.3,1.9-10.5,3.3-15.6c-0.3,2.6-0.6,5.2-0.8,7.8c-0.6-1.7-0.9-3.6-0.6-5.4c0.6,2.9,2,5.7,3.9,8
			c0.4,0.5,0.9,1,1.6,1c0.7,0,1.2-0.7,1.6-1.2c1-1.5,2.1-3,3.1-4.5c0.6,1.1,1.5,2,2.4,2.7c0.5-1.1,1-2.3,1.5-3.4
			c1.1,1.7,3.6,0.6,5.3-0.5s4.7-1.5,5,0.4c1.6-2.4,2.6-5.1,2.9-8c1.2-0.8,2.9,1.1,2,2.2c-6.1-5.4-12.1-10.8-18.2-16.2
			c-1.2,2.4-1.9,5.2-2.1,7.9c-3.1-2.5-6.1-5.2-8.8-8.2c0.5,1.1,1.1,2.1,1.6,3.2c0.1-5-0.4-10.1-1.3-15"/>
		<g>
			<path d="M534.4,271.3c4.8,13.2,10.4,27,8.5,41.4c1.5,0.2,2.9,0.4,4.4,0.6c0.6-13.4-1-26.6-4.8-39.5c-0.8-2.6-4.1-1.8-4.4,0.6
				c-1.3,10.1-0.9,20.1,1,30.1c0.6,2.9,4.8,1.6,4.3-1.2c-0.6-4.1-1.7-7.9-3.2-11.8c-0.9-2.2-4.6-2.2-4.4,0.6
				c0.3,6,1.2,11.9,2.7,17.8c0.6,2.4,4.5,2,4.4-0.6c-0.1-1.7-0.1-3.3-0.2-5c-0.1-2.9-4.5-2.9-4.5,0c0,4.3,0,8.6,0,12.9
				c0,2.9,4.4,2.9,4.5,0c0.2-8.7,1-17.2,3.9-25.4c-1.4,0.2-2.7,0.4-4.1,0.5c1.8,3.5,3.1,7,4.1,10.8c0.5,2,4,2.2,4.3,0
				c0.5-3.6,0.3-6.8-1.1-10.2c-1.4,0.6-2.7,1.2-4.1,1.7c1.8,3.3,3.9,6.1,6.5,8.8c1.3,1.4,3.9,0.4,3.8-1.6c-0.3-12-3.2-23.6-8.7-34.3
				c-1.2-2.4-4.5-0.6-4.1,1.7c1.3,7.3,3.8,14.2,7.5,20.6c1.3-0.8,2.6-1.5,3.9-2.3c-2.5-3.7-5-7.5-7.5-11.2c-1.6-2.4-5.4-0.3-3.9,2.3
				c2.9,4.9,5.8,9.8,8.6,14.7c1.3-0.8,2.6-1.5,3.9-2.3c-1.9-3.1-4-5.9-6.5-8.6c-1.6-1.7-4.3,0.1-3.8,2.2c1.5,6.3,4.7,11.6,9.5,15.9
				c1.5,1.3,3.7,0.4,3.8-1.6c0.3-6.4-0.5-12.6-2.5-18.7c-1.3,0.7-2.5,1.5-3.8,2.2c3.2,2.9,5.8,6.1,8,9.9c0.9,1.6,3.7,1.4,4.1-0.5
				c0-0.2,0.1-0.3,0.1-0.5c0.3-1-0.2-1.9-1-2.5c-1-0.7-1.7-0.7-2.8-0.4c-0.7,0.2-1.4,0.8-1.6,1.6c-0.4,2.1,0.3,3.3,1.2,5.2
				c1.6,3.4,3.1,6.8,4.3,10.3c1.3-0.7,2.5-1.5,3.8-2.2c-2.4-2.1-4.9-4.1-7.3-6.2c-2-1.7-4.6,0.4-3.5,2.7c1.5,3.3,2.9,6.7,4.4,10
				c1.2-0.9,2.4-1.8,3.5-2.7c-2.5-2.8-5.2-5.2-8.4-7.1c-1.4-0.9-3.4,0.3-3.4,1.9c0,2.2,0.1,4.5,0.1,6.7c1.3-0.5,2.6-1.1,3.8-1.6
				c-1.5-1.8-2.6-3.6-3.7-5.6c-0.8-1.6-3-1.3-3.9,0c-1.4,2.3-2,4.5-1.9,7.2c1.1-0.6,2.3-1.3,3.4-1.9c-0.8-0.4-1.6-0.7-2.4-1.1
				c-1.3-0.6-2.9-0.2-3.3,1.3c-0.7,2.5-1.4,5-2.1,7.6c1.3-0.3,2.5-0.7,3.8-1c-4.4-4.1-11-1.4-10.6,4.8c0.9-0.7,1.9-1.4,2.8-2.2
				c-0.5-0.3-1-0.7-1.5-1c-0.9-1.4-3-1.5-3.9,0c-0.8,1.4-1.7,2.9-2.5,4.3c1.4,0.6,2.7,1.2,4.1,1.7c0.8-5.3,1.9-10.5,3.3-15.6
				c-1.5-0.2-2.9-0.4-4.4-0.6c-0.3,2.6-0.6,5.2-0.8,7.8c1.5-0.2,2.9-0.4,4.4-0.6c-0.6-1.6-0.8-3.1-0.5-4.8c-1.5,0.2-2.9,0.4-4.4,0.6
				c0.9,3.3,2.7,8.8,6.2,10.2c4,1.6,6.4-4,8.1-6.5c-1.3,0-2.6,0-3.9,0c0.8,1.2,1.7,2.2,2.8,3.2c1,0.8,2.9,1,3.5-0.5
				c0.5-1.1,1-2.3,1.5-3.4c-1.2,0.2-2.4,0.3-3.5,0.5c1.2,1,2.1,1.6,3.7,1.5c1-0.1,6-2.4,6.2-2c0.7,1.6,3.1,1.3,3.9,0
				c1.6-2.7,2.6-5.4,3.1-8.5c-0.5,0.5-1,1-1.6,1.6c-0.2-0.2-0.5-0.4-0.7-0.6c1.3-0.3,2.5-0.7,3.8-1c-6.1-5.4-12.1-10.8-18.2-16.2
				c-1-0.9-2.9-0.9-3.5,0.5c-1.3,3-2.1,5.8-2.4,9c1.3-0.5,2.6-1.1,3.8-1.6c-3.1-2.5-6-5.2-8.8-8.2c-1.8-2-4.6,0.5-3.5,2.7
				c0.5,1.1,1.1,2.1,1.6,3.2c1,2.1,4.2,1,4.2-1.1c0-5.3-0.5-10.4-1.4-15.6c-0.5-2.8-4.9-1.6-4.3,1.2c0.9,4.8,1.3,9.5,1.3,14.4
				c1.4-0.4,2.8-0.8,4.2-1.1c-0.5-1.1-1.1-2.1-1.6-3.2c-1.2,0.9-2.4,1.8-3.5,2.7c2.8,2.9,5.7,5.6,8.8,8.2c1.6,1.3,3.7,0.4,3.8-1.6
				c0.2-2.5,0.7-4.5,1.8-6.8c-1.2,0.2-2.4,0.3-3.5,0.5c6.1,5.4,12.1,10.8,18.2,16.2c1.2,1.1,3.4,0.8,3.8-1c0.8-3.3-1.5-5.5-4.8-4.9
				c-0.7,0.1-1.5,0.9-1.6,1.6c-0.4,2.7-1.3,5.1-2.7,7.4c1.3,0,2.6,0,3.9,0c-0.8-1.7-2.1-2.4-3.9-2.5c-1.5,0-6.1,2.7-6.7,2.1
				c-1-0.8-2.9-1-3.5,0.5c-0.5,1.1-1,2.3-1.5,3.4c1.2-0.2,2.4-0.3,3.5-0.5c-0.8-0.6-1.5-1.4-2.1-2.3c-1-1.4-2.9-1.4-3.9,0
				c-0.7,1-1.4,2-2.1,3c-0.3,1.7-0.8,1.8-1.4,0.3c-1.6-1.1-2.2-4.3-2.7-6c-0.7-2.5-4.3-1.9-4.4,0.6c-0.1,2.2,0.1,3.9,0.7,6
				c0.7,2.6,4.2,1.8,4.4-0.6c0.3-2.6,0.6-5.2,0.8-7.8c0.3-2.6-3.8-3-4.4-0.6c-1.4,5.1-2.5,10.3-3.3,15.6c-0.4,2.4,2.7,4.1,4.1,1.7
				c0.8-1.4,1.7-2.9,2.5-4.3c-1.3,0-2.6,0-3.9,0c1.1,1.7,2.2,2.5,4.2,3.1c1.3,0.3,2.9-0.7,2.8-2.2c1-0.5,2-1.1,3-1.6
				c1.2,1.1,3.3,0.7,3.8-1c0.7-2.5,1.4-5,2.1-7.6c-1.1,0.4-2.2,0.9-3.3,1.3c0.8,0.4,1.6,0.7,2.4,1.1c1.5,0.7,3.5-0.1,3.4-1.9
				c-0.3-1.8,0.2-3.5,1.3-4.9c-1.3,0-2.6,0-3.9,0c1.2,2.4,2.6,4.5,4.4,6.6c1.3,1.5,3.9,0.3,3.8-1.6c0-2.2-0.1-4.5-0.1-6.7
				c-1.1,0.6-2.3,1.3-3.4,1.9c2.9,1.8,5.3,3.9,7.5,6.4c1.8,2.1,4.5-0.6,3.5-2.7c-1.5-3.3-2.9-6.7-4.4-10c-1.2,0.9-2.4,1.8-3.5,2.7
				c2.4,2.1,4.9,4.1,7.3,6.2c1.6,1.3,4.6,0.1,3.8-2.2c-0.8-2.2-1.6-4.4-2.5-6.6c-0.6-1.3-3.3-5.3-3-6.6c-0.5,0.5-1,1-1.6,1.6
				c-0.2,0-0.4,0-0.6,0c-0.3-0.8-0.7-1.7-1-2.5c0,0.2-0.1,0.3-0.1,0.5c1.4-0.2,2.7-0.4,4.1-0.5c-2.4-4.1-5.2-7.6-8.7-10.8
				c-1.6-1.4-4.5-0.1-3.8,2.2c1.9,5.7,2.6,11.5,2.3,17.5c1.3-0.5,2.6-1.1,3.8-1.6c-4.3-3.8-7-8.3-8.3-13.9c-1.3,0.7-2.5,1.5-3.8,2.2
				c2.2,2.4,4.1,4.9,5.8,7.7c1.5,2.5,5.4,0.2,3.9-2.3c-2.9-4.9-5.8-9.8-8.6-14.7c-1.3,0.8-2.6,1.5-3.9,2.3c2.5,3.7,5,7.5,7.5,11.2
				c1.6,2.4,5.3,0.3,3.9-2.3c-3.5-6.1-5.8-12.6-7.1-19.6c-1.4,0.6-2.7,1.2-4.1,1.7c5.1,10,7.8,20.8,8.1,32c1.3-0.5,2.6-1.1,3.8-1.6
				c-2.3-2.4-4.2-5-5.8-7.9c-1.2-2.2-5.1-0.7-4.1,1.7c1,2.6,1.5,5,1.1,7.8c1.4,0,2.9,0,4.3,0c-1-4.2-2.5-8.1-4.5-11.9
				c-1-1.8-3.5-1.2-4.1,0.5c-3,8.6-3.8,17.6-4,26.6c1.5,0,3,0,4.5,0c0-4.3,0-8.6,0-12.9c-1.5,0-3,0-4.5,0c0.1,1.7,0.1,3.3,0.2,5
				c1.5-0.2,2.9-0.4,4.4-0.6c-1.4-5.5-2.2-11-2.5-16.6c-1.5,0.2-2.9,0.4-4.4,0.6c1.5,3.8,2.6,7.7,3.2,11.8c1.4-0.4,2.9-0.8,4.3-1.2
				c-1.9-9.6-2.1-19.2-0.8-28.9c-1.5,0.2-2.9,0.4-4.4,0.6c3.6,12.5,5.1,25.3,4.6,38.3c-0.1,2.5,4.1,3.1,4.4,0.6
				c2.1-15.4-3.3-29.6-8.5-43.8C537.7,267.4,533.4,268.6,534.4,271.3L534.4,271.3z"/>
		</g>
	</g>
</g>
<g>
	<g>
		<path d="M557.9,305.5c5.8,0,5.8-9,0-9C552.1,296.5,552.1,305.5,557.9,305.5L557.9,305.5z"/>
	</g>
</g>
<g>
	<g>
		<path d="M549.4,307.2c2,0.8,2.7,0.4,1.9-1.1c-0.3-2.6-1.8-4.3-4.5-4.5c-1.1-0.1-2-0.1-3,0.1c-2.3,0.4-1.2-0.2-0.9,0.7
			c-0.6-1.6-0.6-7.9,0.3-9.3c1-1.5,3.5-2.5,4.8-3.8c1.6-1.5,2.9-4.2,5.1-4.8c5.5-1.7,3.2-10.4-2.4-8.7c-4.4,1.4-6.2,4.7-9.5,7.6
			c-3.7,3.3-7.1,5-7.6,10.5c-0.3,4-0.6,10.5,1.7,14c3.1,4.7,7,2.3,11.5,2.7c-1.5-1.5-3-3-4.5-4.5c0.9,6.9,6.9,13.2,13.4,7.5
			C560.1,309.7,553.7,303.4,549.4,307.2L549.4,307.2z"/>
	</g>
</g>
<g>
	<g>
		<path d="M553.3,275.6c1.4,0.3-0.2-1-0.7-1.4c-1.1-0.9-2.1-1.2-3.5-1.5c-3.3-0.7-6.9-0.5-9.8-2.3c0.7,0.9,1.4,1.8,2.1,2.7
			c-0.1-0.3-0.2-0.6-0.3-0.9c-1.4,1.9-2.9,3.8-4.3,5.7c3.3-0.1,7.2,1.6,10.3,2.5c0.4-2.9,0.8-5.9,1.2-8.8c-4.6,0.1-8.4-1.1-12.1-3.7
			c-4.3-3-8.8,3.5-5.5,7.1c5.3,5.8,7.9,13.1,9.2,20.7c0.6,3.7,1.1,7.8,1,11.6c-0.1,4.9-2.2,7.4-6.8,9.3c1.2,2.7,2.3,5.5,3.5,8.2
			c5-2.1,9.9-4.5,14.6-7.3c4.2-2.5,8.5-6.8,13.3-7.6c-1.2-2.7-2.3-5.5-3.5-8.2c-5.2,3.3-10.3,6.7-15.4,10.2
			c-4.7,3.3-0.2,11.1,4.5,7.8c5-3.5,10.2-6.9,15.4-10.2c4.5-2.8,1.5-9.1-3.5-8.2c-5.3,0.9-9.5,4.9-13.9,7.6
			c-5.2,3.2-10.6,5.9-16.1,8.2c-4.6,2-1.3,10.1,3.5,8.2c4.9-2,9.4-4.5,11.8-9.5c2.3-4.9,1.7-10.8,1.1-16
			c-1.2-11.5-4.4-22.5-12.4-31.1c-1.8,2.4-3.6,4.7-5.5,7.1c5,3.4,10.6,5.1,16.7,4.9c5-0.1,6.2-7.5,1.2-8.8c-4.1-1.1-8.5-3-12.7-2.8
			c-2.8,0.1-5.3,2.8-4.3,5.7c1.3,4.1,5.3,5.2,9.2,6.1c1.2,0.3,4,0.1,5,0.6c1.7,0.9,2,2.5,4.2,3.1
			C556.5,285.6,558.9,276.9,553.3,275.6L553.3,275.6z"/>
	</g>
</g>
<g>
	<g>
		<path d="M538.6,275.4c4.3,0,4.4-6.8,0-6.8C534.3,268.7,534.3,275.4,538.6,275.4L538.6,275.4z"/>
	</g>
</g>
<g>
	<g>
		<path d="M537.4,274.2c4.3,0,4.4-6.8,0-6.8C533.1,267.5,533.1,274.2,537.4,274.2L537.4,274.2z"/>
	</g>
</g>
<g>
	<g>
		<path class="st4" d="M543.5,266.8c0.7,0.5,1.5,0.7,2.3,0.8c0.3,0.1,0.7,0.1,1,0.2c0,0,0.4,0.1,0.4,0.1c-0.1,0.1-0.3-0.3-0.4-0.3
			c0.6-1.1,1.3-2.3,1.9-3.4c-1.4,0.1-2.7-0.1-4-0.5c-1.1-0.4-2.3,0.3-2.7,1.3c-0.4,0.9-0.1,2.4,0.9,2.8c1.5,0.7,3.1,1.2,4.7,1.5
			c1.2,0.2,2.4-0.3,2.8-1.6c0.3-1.1-0.4-2.6-1.6-2.8c-1.2-0.2-2.5-0.5-3.6-1c-0.6,1.4-1.2,2.7-1.7,4.1c1.7,0.6,3.4,0.8,5.2,0.7
			c1.5-0.1,3.1-1.9,1.9-3.4c-0.8-1-1.6-1.6-2.9-1.9c-0.4-0.1-0.8-0.1-1.2-0.2c-0.2,0-0.4-0.1-0.7-0.2c0.3,0.1-0.2-0.1-0.2-0.2
			c-1-0.7-2.5-0.2-3.1,0.8C542,264.8,542.5,266.1,543.5,266.8L543.5,266.8z"/>
	</g>
</g>
<g>
	<g>
		<path class="st4" d="M572,303.6c0.8,0.4,1.2,0.9,1.1,1.7c-1.5-0.2-2.9-0.4-4.4-0.6c0,1.1,0,2.2,0,3.3c0,1.2,1,2.3,2.2,2.2
			c1.2-0.1,2.2-1,2.2-2.2c0-1.1,0-2.2,0-3.3c0-1.1-0.9-2.1-2-2.2c-1.1-0.2-2.1,0.5-2.5,1.6c-0.3,0.8-0.2,1.7,0.2,2.4
			c0.4,0.7,1,1.1,1.8,1.4c1.1,0.4,2.5-0.5,2.8-1.6C573.9,305,573.2,304,572,303.6L572,303.6z"/>
	</g>
</g>
<g>
	<g>
		<path class="st4" d="M544.3,263.8c-0.1,0-0.1,0-0.2,0c-0.3,0-0.6,0.1-0.9,0.2c-0.3,0.1-0.5,0.2-0.7,0.5c-0.2,0.2-0.4,0.4-0.5,0.7
			c-0.1,0.3-0.2,0.6-0.2,0.9c0,0.2,0.1,0.4,0.1,0.6c0.1,0.4,0.3,0.7,0.6,1c0.2,0.1,0.3,0.2,0.5,0.4c0.4,0.2,0.7,0.3,1.1,0.3
			c0.1,0,0.1,0,0.2,0c0.3,0,0.6-0.1,0.9-0.2c0.3-0.1,0.5-0.2,0.7-0.5c0.2-0.2,0.4-0.4,0.5-0.7c0.1-0.3,0.2-0.6,0.2-0.9
			c0-0.2-0.1-0.4-0.1-0.6c-0.1-0.4-0.3-0.7-0.6-1c-0.2-0.1-0.3-0.2-0.5-0.4C545.1,263.9,544.7,263.8,544.3,263.8L544.3,263.8z"/>
	</g>
</g>
<g>
	<g>
		<path d="M566.4,307.3c2.9,0,2.9-4.5,0-4.5C563.5,302.8,563.5,307.3,566.4,307.3L566.4,307.3z"/>
	</g>
</g>
<g>
	<g>
		<path d="M566.1,307.3c2.9,0,2.9-4.5,0-4.5C563.2,302.8,563.2,307.3,566.1,307.3L566.1,307.3z"/>
	</g>
</g>
<g>
	<g>
		<path d="M564.2,304.8c-0.1-0.5,0,0.1,0,0.2c0,0.2,0,0.4,0,0.6c0,0.1,0,0.7,0,0.2c0,0.2-0.1,0.4-0.1,0.6c-0.3,1.1,0.4,2.5,1.6,2.8
			c1.2,0.3,2.5-0.3,2.8-1.6c0.3-1.3,0.3-2.5,0.1-3.8c-0.2-1.2-1.7-1.9-2.8-1.6C564.5,302.4,564,303.5,564.2,304.8L564.2,304.8z"/>
	</g>
</g>
</svg>
