<?xml version="1.0" encoding="utf-8"?>
<!-- Generator: Adobe Illustrator 25.2.1, SVG Export Plug-In . SVG Version: 6.00 Build 0)  -->
<svg version="1.1" id="Layer_1" xmlns="http://www.w3.org/2000/svg" xmlns:xlink="http://www.w3.org/1999/xlink" x="0px" y="0px"
	 viewBox="0 0 640 480" style="enable-background:new 0 0 640 480;" xml:space="preserve">
<style type="text/css">
	.st0{fill:#FFFFFF;}
	.st1{fill:#8CC63F;}
	.st2{fill:none;stroke:#000000;stroke-width:3;stroke-miterlimit:10;}
	.st3{stroke:#000000;stroke-width:0.25;stroke-miterlimit:10;}
</style>
<path d="M237.7,419c21.2-1,42.5-1.4,63.7-0.8c31.5,0.9,63,3.4,94.5,5.3c71.4,4.3,142.6,2.3,213.4-7.7c1.5-0.2,3.2-2,3.5-3.5
	c21.4-122.8,2.2-247.2-17.4-368.9c-1-5.9-2.1-11.6-8.1-14.2c-6.1-2.7-14.2-2-20.8-2.5c-15.8-1.1-31.6-1.8-47.4-2.2
	c-31.6-0.8-63.3-0.1-94.9,1.9c-31.3,2-62.5,5.2-93.9,5.2c-31.5,0.1-62.9-2.4-94.3-4.4c-71-4.7-142.2-4.9-213.2,0.1
	c-2.3,0.2-3.8,1.6-4.4,3.3c-2.4,0.2-4.7,1.8-4.8,4.8C11,98,17.5,160.5,24.5,222.6c3.5,31.2,7.1,62.3,9.8,93.6
	c1.3,15.8,2.4,31.5,3.1,47.3c0.3,7.1,0.5,14.2,0.7,21.3c0.2,7.5-0.4,15.3,0.6,22.8c1.8,13.8,12.8,17.1,25.1,17.7
	c15.7,0.9,31.4,1,47.1,0.6c32.1-0.7,64.1-3.2,96.2-5.2 M603.7,406.6c-60.3,8.3-121.4,11.1-182.2,8.4c-30.9-1.4-61.7-3.9-92.5-5.5
	s-61.6-1.8-92.5-0.3c-30.8,1.5-61.5,4.1-92.3,5.7c-15.7,0.8-31.4,1.4-47.1,1.4c-7.2,0-14.4-0.1-21.6-0.3c-6.7-0.2-14.7,0.5-21.2-1.7
	c-6.8-2.4-6.1-9.8-6.1-15.8c0-7.7-0.2-15.5-0.4-23.2c-0.5-14.8-1.3-29.7-2.4-44.5c-2.2-30.3-5.6-60.5-9-90.7
	C28.9,172.7,21,105.2,23.6,37.3c61.1-4.3,122.5-4.9,183.7-1.8c31.1,1.6,62.1,4.3,93.3,5.5c30.3,1.2,60.3,0,90.5-2.2
	c61.2-4.5,122.1-6.2,183.3-1.6c2.2,0.2,7.3-0.4,9.2,1.1c2.3,1.8,2.2,8,2.6,10.5c1.2,7.7,2.5,15.4,3.7,23.1
	c2.3,14.8,4.6,29.6,6.8,44.4c4.5,30.5,8.4,61,11.2,91.7C614,274.1,614.7,341,603.7,406.6z"/>
<rect x="419.5" y="360.5" class="st0" width="175" height="91"/>
<g>
	<path d="M85.5,310.1c-2.2,0.8-4.2-2.1-5.5-3.5C82.7,306.9,83.8,308.8,85.5,310.1z M105.8,219.2c5.3,1.3,9.3,3.4,11.7,7.2l5.8,9
		c1.8,2.5,1,4.8,1,7c0,1.1-2.1,0.9-2.8,1.9c-0.5,1.5-1.7,2.8-2.4,4.2c-1.3-0.4-1.4-1.5-2.3-2c-1.4,0.2-0.3,1.7-1.4,2
		c-0.2,0.1-0.4,0.1-0.7-0.2c-4.2-3.5-7-7.1-6.9-11.2c0.1-2.1-0.8-4.1-2.2-6.4c-1.8-3-8.6-6.9-12.4-6.1c-2.1,0.3-4.2,0.9-6.2,1.4
		c-2.2,0.6-3.1,2.2-3.7,3.7s-0.6,4.2-1.5,5.5c-1.6,1.6-0.2,6.1,2.8,7.6c7.6,4.3,13.3,9.7,19.3,14.5c4.7,3.9,9.9,7.2,15,10.4
		c4.2,2.8,8.2,6,11.6,9.4c1.2,1.3,2.9,2.8,4.4,3.9c5.3,3.8,6,8.7,8.5,13.4c1.7,3.3,1.9,6.6,2.7,10c0.3,1.5,0.4,3.2-1.4,4
		c-1,0.4-0.7,1.2-0.7,1.9c-0.1,3.9-1.3,7.5-3,10.7c-0.7,1.3-1.8,2.5-3.6,2.5c-0.8,0.1-1.2,0.5-1.6,1c-1.2,1.9-3.4,3-5.4,3.9
		c-0.6,0.3-1.1,0.7-1.8,0.3c-2.2-0.9-3.6-0.2-5,0.5c-4.1,2.3-12.8-0.1-21.2-4.6c-0.8-0.5-13.9-9.8-14.4-10.3c-5.4-4.7,6.8,4.1,1.6-1
		c-1.1-1.1-2.7-3.1-3-4.5c-0.7-1.9-2.8-2.9-4.2-4.4c-0.6-0.6-1.6-1-2.1-2c0.5-0.4,2-1.1,3.4-0.1c2,1.5,2,0.7,3.3,1.3
		c1.3,0.7,1.6,1,3.3,2c2.4,1.5,3.3,2.9,4.9,4.3c2.5,2.3,4.5,2.9,7.5,4.1c6.7,2.5,14,7.5,17.8,2.9c2.4-2.9,2.3-6.1,1.3-10
		c-1.2-4-3.1-7.8-5.1-11.6c-0.4-0.9-1.2-1.7-1.9-2.4c-9.4-8.6-17.4-16-28.9-23.1c-6-3.4-14-9.3-17.7-14.2c-1.8-2.6-4.7-4.9-6-7.4
		c-0.7-1.4-1.5-2.8-1.3-4c0-4.3-0.9-8.9,0-12.9c1.1-5.9,5.6-9.8,12.2-12.9c1.9-0.9,4.4-1.1,7.4-0.6c4.3,0.7,7.8-0.1,11.9-0.1
		C96.5,218.1,101.1,218.2,105.8,219.2z M98.1,273c0.5-0.1-2.6-3.5-4.4-4.8c-2.7-2.3-5.1-3.1-5.8-4.2c-3.3-1.6-6.2-3.7-9.7-4.6
		C83.4,264.3,92.2,269.6,98.1,273z"/>
</g>
<g>
	<path d="M228.4,222.1c-0.4,3-1.1,5.9-3.4,9c-2.6,3.4-3.5,6.7-4.7,10.1c-1.3,4.1-4.7,8.6-6.9,13.1c-2.4,4.4-5,9-7.3,13.6
		c-2.3,4.9-4.8,9.9-7.9,15c-1.9,3.4-2.7,6.8-3.7,10.1l-2.7,9.4c-0.5,2-1,4.1-0.6,5.3c0.5,3,0.8,6.3,1.6,8.9c0.4,1.6,2.3,1.7,3.2,2.8
		c0.8,1.4,2.9,0.3,5.5-1.3c2.8-1.7,5.1-2.9,7.9-5.6c7.5-6.6,11.6-11.9,13.7-16.7c2.1-4.5,4.6-9,7.6-13.7c0.7-0.9,1.3-1.9,1.5-2.5
		c2.4-5.5,7.2-11.5,11.1-17.1c2.3-2.9,3.5-5.4,4.6-7.9c1.8-4.1,5-8.4,8.6-12.6c2.7-3,4.3-5.7,6.5-8.5c1.2-1.3,1.3-2.5,5-3.7
		c1.2-0.4,1.6-1.3,2.2-1.9c0.7-0.7,1.3-1.2,3.7-1.3c3.5-0.1,4.7,0.1,4.5,1c-0.1,0.5-0.2,1.1-1.2,1.8l-2.9,2.7
		c5.8-2.1,4.1-4.2,8.6-6.3c1.4-0.1,2,0.1,1.6,0.4c-0.2,0.4-0.4,0.7-1,1.1c-3.8,2.6-5.3,5.1-8.7,7.9c-1,1-2.1,1.8-3.3,2.8
		c-1.9,1.5-3.1,3-4.2,4.5c-2,3.3-3.7,6.6-7,10.4c-3.8,4.6-8.4,9.6-11.1,14.3c-2.6,4.6-6.2,9.8-9.3,14.9c-1.2,2.1-3.5,4.8-5.2,7.2
		c-1.4,1.8-2.1,3.2-2.2,4.4c-0.4,3.2-4.4,7.8-9.4,12.9c-1.7,1.8-3.9,3.5-5.6,4.6c-2.9,1.9-5.5,3.9-8.2,6.1c-1.7,1.4-3.3,2.6-4.9,3.7
		c-0.6,0.2-1.6,0.7-2.2,1.7c-1.6,2.5-3.6,3.3-5.2,4.3c-2,1-3.9,2.3-6.2,4.2c-5.1,3.9-9.2,5.7-12.8,6.5c-3.6,0.7-6.9,0.9-10.6,1.6
		c-5.1,0.9-6.2-2.8-6.3-7.6c0.1-2.3,0.3-4.8,0.2-7c0-1.5,1.5-3.7,1.7-5.4c1.3-8.6,4.3-17.7,7-26.7c3.5-10.3,6.4-20.2,8.9-29.8
		c2.6-9.1,7.2-18.2,12.2-27c1.9-3.2,4.4-6.3,6.1-9.4c2-3.5,4.3-4.4,9.8-4.9c0.9-0.1,1.8-0.2,2.4,0.1c1.3,1.1,3.9,0.9,6.1,0.8
		c1.9,0.1,3.2,0.5,4.7-1c0.5-0.4,3.6-0.9,5.6-1C227.6,220.8,228.7,221.1,228.4,222.1z"/>
</g>
<g>
	<path d="M287,192.5c1,0.1,2,0.2,3.2,0.1c1.1,0,1.9,0.3,2.5,0.7c3.8,2.2,8.2,5.7,12.5,9.8c1.3,1.5,2.6,3.1,4.5,5.1
		c0-1.7-0.6-3.1-1-4.5c-0.6-2.1-1.5-4.1-2-6c-0.6-2.1-1.2-4-1.6-5.9c-0.4-1.5-1.1-3.2-0.8-4.8c0.2-0.8,0.8-1.7,2-2l2.2-0.6
		c0.5-0.2,0.9-0.2,1.5-0.2c1.4,0.2,1.6,0.1,1.5-1c0-0.1,0-0.1,0.1-0.3c0.5-0.1,1.1,0.2,1.4-0.4c0.1-0.3,0.7-0.4,1.2-0.4
		c0.3,0,0.6,0.1,0.8,0c3.3-0.5,4.6,1.2,5.8,3.2c0.2,0.3,0.2,0.6,0.4,0.8c2.6,3.8,4.1,8.2,6.2,12.8c1.9,4,3.9,8.4,6.2,13
		c2,4.1,3.8,8.7,5.9,13.3c2.8,6.6,4.8,13.1,7.4,20.4c1.1,3.2,2.6,6.6,3.5,9.9c0.9,3.6,0.4,4.3-2.3,1.6c-0.4,0.1,0.1,1.2,0.2,1.8
		c0,1.1-0.6,0.9-1.7-0.2c-2.6-2.4-5-5.7-7.5-8.8c-2.9-3.5-4.2-6.2-5.1-8.9c-1.5-4-3.1-7.9-4.1-11.4c-0.6-2.1-1.6-4.3-2.6-6.3
		c-3.4-7.1-6-13.2-9.1-18.8c-2.8-4.7-5-8.9-7.9-12.5l-0.6-0.4c-0.3,0.9-0.1,1.6,0,2.4c0.3,1.7,0.2,3.4,0.7,5.1
		c0.9,3.6,1.6,7.3,3.6,11.4c0.4,0.9,0.6,1.8,0.9,2.8c0.5,1.5,0.3,2.8,1.7,4.6c1.3,1.8,0.2,2.3-0.1,3.1c-0.1,0.3-0.7,0-1.1-0.3
		c-0.7-0.4-1.5-0.9-2.3-1.1c0.1,0.6,0.3,1.1,1.4,1.5s2,1.9,2.8,2.7c-0.2,0.5-0.7,0.2-1.3,0.1c-1.8-0.5-4-1.3-5-2.3
		c-1.3-1.2-1.5-1.1-2.9-2c-2.3-1.3-4.1-2.9-5.5-4.4c-4.7-4.4-9.1-8-12.8-10.9c-1.9-1.3-3.7-2.4-5.6-3.2c-0.6-0.3-1.1-0.5-1.9-0.7
		c0.9,0.4,0.3,1.2,1.2,1.7c1,0.7,1.2,1.6,2,2.4c1.3,1.5,2.4,3.3,3.8,5.2c1.4,1.8,2.7,3.7,4.3,5.8c1,1.3,2,2.7,2.4,4
		c0.8,2.2,2,4.8,3.3,7.4c0.3,0.5,0.5,0.9,0.3,1.1c-0.6,0.5-1.3,0.3-3.5-1.2c-0.4,0-0.1,0.5-0.8,0.2c-0.2-0.2-0.6-0.4-0.7-0.7
		l-2.3-4.1l-3.5-7.1c-0.9-1.9-2.2-3.6-3.6-5.2c-2.7-2.9-4.7-5.3-6.2-7.3c-1-1.2-2.5-2.4-3.5-3.3c0-0.1-0.3-0.2-0.5-0.3
		s0.1-0.3,0.7-0.7c1-0.6,2.1-1.1,3.1-1.4c0.6-0.4,0.4-0.5,0.7-0.7c1-0.9,1.1-1,3-1.7c1.1-0.4,2.3-0.8,3-0.7c0.1,0,0.4,0,0.7-0.2
		c0-0.3-0.6-0.4-0.4-0.7C286.6,192.5,286.8,192.5,287,192.5z M321.5,198.9c0-1.7-1.5-4.4-2.9-5.1C318.7,195.6,320.5,197,321.5,198.9
		z M355,163.4c0.2,0.2,0.5,0,0.6,0c0.8-0.8,2-0.2,2.9,0.8c0.5-0.1,0.1-1.3,0.6-1c1.1,0.8,1.7,0.3,2.4,0c0.7-0.4,1.5,0.8,2.3,1.4
		c0.7,0.3,1.3,0.6,2.5,3.7c0.3,0.8,0.7,1.4,1.1,2.1c1.9,3.3,3.7,7.2,5.5,11.1c2.6,6.2,5.3,12.8,8.2,19.8c2,5.1,4.1,10.4,5.8,15.9
		c0.8,2.7,1.8,5.2,2.8,8c2.1,6.7,4.4,13.5,6.3,20.4c1.5,5.5,3.4,11.1,5.1,17c1.6,5.7,3.1,11.3,4.1,16.7c1.3,6.6,3.4,14.3,5.6,22
		c0.7,2.7,1.3,5,1.5,7.3c0.1,2.4-0.3,2.6-1.7,0c-0.8-1.5-1.5-2.9-2.3-4.6c-0.6-1.3-1.8-5.3-1.6-2.1c-1.6-3.3-3.3-5.5-4.7-9.5
		c-1.5-4-3.1-8.1-4.5-11.9c-0.9-2.5-1.8-4.9-2.5-7c-0.8-2.5-1.6-4.6-2.7-6.9c-1.4-2.4-2.4-5.6-3.3-8.4c-2.1-6.4-4-12.2-5.7-17.8
		c-3.2-10.1-6.7-19.6-10.1-28.3c-2-5.2-3.9-10-5.8-14.7c-2.3-5.2-4.2-10-6.5-14.8c-0.4,0.7,0,1.6,0.2,2.3c0.8,2.7,1.4,5.5,2.3,8.3
		c1,3.4,1.6,6.5,2.2,9.7c1.1,5.4,2.2,11,3.5,16.7c0.1,0.9,0.2,1.8,0.4,2.7c0.1,0.4-0.1,0.7,0.2,1.3c2.4,4.4,2,7.5,3,11.2
		c0.4,1.4,0.5,2.9,0.3,3.7c-0.1,0.7,0.1,1.7,0.4,2.7c0.9,4.4,1.7,9,2.6,13.8c-0.9-0.7-2.1-2.7-2.8-2.5c-0.1,0.1-0.6-0.5-0.8-0.8
		c-1.9-3.3-3.9-6.1-5.1-9.9c-1.5-4.3-3.9-8.4-5.6-12.6l-0.6-1c-2.4-3-4.2-6.3-6-9.7c-3.2-5.5-6.4-10.5-9.2-15.3
		c-0.3-0.5-0.6-1-0.9-1.4c-2.8-3.7-5.3-7.2-7.6-10.7c-0.7,0.3-0.1,0.9,0.1,1.3c1.7,3.5,4,7,5.7,10.9c2.7,6.5,5.6,13.6,8.6,21.2
		c1.6,4.4,3.5,9.1,5.2,13.9c1.3,3.6,2.5,7.5,3.5,11.1c0.5,2,1.9,7.9,2.6,9.9c2.1,5.7,3,9.4,4.3,12.9c1.3,3.9,2,7.6,3.1,11.4
		c-0.5,0.2-1.3-1.2-2-2.5c-2-4-3.9-7.7-5.1-11.6c-4-12.7-9.9-30.7-13.8-40.8c-3.4-8.5-6.4-16.1-9.6-23.2c-2.1-4.6-4.1-8.9-5.8-12.8
		c-1.3-3.1-2.8-6.1-4.2-8.9c-0.4-0.7-0.7-1.4-1.7-1.7c-0.3-0.1-0.5-0.3-0.7-0.5c-1.2-0.9-1.2-1.3,0-1.9c0.5-0.3,1.1-0.5,1.5-1.1
		c0.6-0.7,1.7-0.9,2.7-0.7c1.4,0.4,2.8,0.4,4.2,0.7c1.8,0.5,3.3,1.2,4.9,2.6c0.5,0.4,1,1,2,1.2l-3.3-3.7c-0.3-0.4-0.7-0.7-0.4-1
		c0.2-0.3,0.5-0.2,0.9-0.1c1.2,0.6,2.2,1.1,3.3,2.1c2.7,2.6,5,5.9,7.7,9.3c2.8,3.8,5.6,8.1,8.6,12.9c-0.2-2.3-0.9-4.6-1.2-6.6
		c-0.6-3-1.2-5.8-1.5-8.4c-0.5-4.4-1.3-8.6-2.2-12.9c-0.2-1.2-1-3.7-1-4.7c-0.1-1.3-0.5-2.4-1.3-3.4c-0.8-1.1-0.8-2.1,0-2.4
		C353.1,163.1,353.8,162.1,355,163.4z"/>
</g>
<g>
	<path d="M414.4,114.5c0.2,0.2,0.8,0.6,1.2,0.7c6.8,3.6,14,8.4,20.9,12c1.8,1.1,3.6,1.9,5.5,3.1c3.4,2.1,7.9,7,10.6,11.4
		c-3.8-1.9-7.7-3.9-11.8-6.6c-4.1-2.9-7.9-5.6-11.9-8.1c-3.6-2.3-7-3.8-10.6-6.1c-1-0.7-1.4-0.5-1.7,0c-0.6,2.7,0.9,6.8,2.2,10.8
		c0.4,1.3,0.4,2.4,0.6,3.7c0.4,4.9,0.6,9.6,2.1,15.3c6.5,4.3,13.2,10.3,19.6,14.5c3.2,2.1,5.4,5.3,8.4,8.6c-1.5-0.3-2.6-0.8-4.3-1.9
		c-2.1-1.5-3.9-2.6-5.9-3.7c-4.6-2.6-9.6-6.3-14.7-10.1c-2.7-1.9-2.7-1.9-2.3-0.3c0.5,2.9,0.8,5.6,0.9,8.3s-0.6,5,0.1,8.3
		c0.3,1.2-0.1,1.9-0.4,2.5c-1.2,1.5-1.5,3.7-0.7,6.9c0.5,1.4,1.5,2.5,3.6,4.2c1.7,1.4,3.3,2.4,5.2,4.2c0.5,0.5,1.2,1.2,1.3,1.8
		c-2.6-1.1-7.4-6.2-10.2-7c1.9,2,3.4,2.9,4.8,3.9c8.3,6,16.7,12.5,25,18.3c4.3,3,9,7.3,13.3,10.4c1.2,0.9,2.5,2.2,3.5,3.4
		c1.6,2,3.3,4,4.9,5.9c-1.3-0.2-4.1-3-5.7-3.8c-0.3,0.4,1.2,2,1.9,3.1c1.4,2,1.1,2.3-1.2,0.4c-4-3.5-7.4-5.6-11.1-8.3
		c-2.7-2.1-5.4-4.1-8.2-6.4c-7.7-6.5-15.1-12.7-22.5-18.3c-2-1.4-3.7-2.9-4.1-2.1c-0.2,0.6-1.7-0.5-3.4-2.6c-2-2.2-3.7-3.4-5.6-4.9
		c-9.5-7.4-18.8-14.8-28.4-22.8c-1.4-1.2-2.5-2.6-3.9-3.9c-1.2-1.1-1.3-1.6-1.3-1.9c0.1-0.5,0.8,0,2,0.9c3.8,2.7,7.6,5.6,12,8.4
		c0.2-2,0.2-4.2,0.6-6.1c1.8-5.6,1.3-12.7,2.8-18.7c1-6.3,1.3-13.3,1.4-20.4c0-3.6-0.7-7.8-0.9-11.5c-0.1-1-0.7-1.8-2.1-2.6
		c-2.1-1.3-1.8-1.9-3.9-3.4c-1-0.7-1.8-1.4-2.3-2.4c3.3,1.4,4.5,2,7.6,3.6c0.1-0.5,0.2-1,0.2-1.5c-0.1-1.1,0-1.9,2.1-0.4
		c0.2,0.1,0.5,0.3,0.5,0.2c2.6-0.2,5.5,2.6,8.4,5.1C410.8,110.6,412.8,112.1,414.4,114.5z M397,169c3.8,2.9,3.8,2.9,3.4,1.6
		c-0.2-0.8,0.4-2-1-3.8C396.8,165.6,397.6,168.3,397,169z"/>
</g>
<g>
	<path d="M500.5,71.2c2.9,2.1,5.7,4,9.1,8.1c2,2.5,4,4.4,5.9,6.1c1.6,1.5,3.2,3.3,4.6,5.4c3.2,4.4,6.4,8.6,8.5,12.8
		c0.6,1.4,1.9,2.6,2.6,3.9c3.1,5.3,3.1,9.4,1.7,13.5c-0.7,2.1-2.2,3.6-3.2,5.6c-0.3,0.7-0.5,1.5-1.3,2c-0.5-1.4,0.5-2,0-3.3
		c-1.3,0.8-1.6,2.4-2.1,3.9c-0.2,0.8,0.7,1.5,1.4,1.9c2.3,1.3,4.7,2.9,7,4.3c3.7,1.8,6.8,4.6,9.7,7.5c4.8,4.3,9.7,8.2,14.9,11.2
		c0.9,0.5,1.7,1,2.4,1.8c1.6,1.3,3.5,2.4,5.4,3.1c1.2,0.3,1.5,1.3,1.9,2.2c0.5,1.1,0.6,1.9-0.6,3.2c-0.1,0.1-0.2,0.7-0.2,1.1
		c-0.1,1.2-0.7,1.9-1.7,2c-1.9,0.2-3.5,0.7-4.4,3.3c-0.1,0.5-0.9,1.3-1.4,1.4c-2.8,0.7-5.8,2-8.2,0.6c-1.1-0.8-2.3-1.3-3.4-1.9
		c-8.3-6.5-15.9-14.7-23.2-24.2c-1.1-1.5-2.1-2.8-3.4-4.2c-1.1,1.9-1.6,4-0.4,6.7l0.5,1.4c1.2,7.2,4.3,13.2,6.5,20
		c2.2,6.1,4.6,12.1,6,18.8c0.3,1.8,1.5,3.4-0.9,5.2c-0.5,0.2-0.5,1.2-0.3,1.7c0,1.2,0.2,2.2,0.3,3.2c-2.3,0.9-4.3-0.1-6.6-0.5
		c-0.9,3.9-2.6,6.3-4.9,6.3c-2.6,0.2-4.3-1.5-5.4-5.4c-1-3.3-1.1-7-2-10.3c-2.6-9.3-4.9-19.1-7.4-28.6c-0.5-1.9-1.1-3.5-1.7-5.4
		c-3.7-10.5-6.4-21.9-8.7-33.5c-2.3-11.7-4.9-23.2-7.3-34.9c-1.1-5.5-2-10.7-3.5-16.6c-0.2-1.1-0.4-2.2-0.9-3.4
		c-1.1-0.5-1.7,0.6-2.8-0.2c-0.5-1.3,0.2-1.6-0.5-2.7c-1.1-2.3-0.9-2.9-0.2-3.2c2.8-0.7,6,0.2,10,3.6
		C495.1,67.4,497.7,69.1,500.5,71.2z M515.1,130.8c0.5-0.7,0.7-1,0.7-1.2c1.8-6.7,3.6-12.4,4.2-18.6c0.3-4-1-8.4-2.4-12.9
		c-0.3-0.8-0.7-1.4-1.1-2c-0.9-1.3-1.6-2.6-2.1-4c-0.3-1-1-1.9-1.8-2.7c-0.6-0.5-1.3-1.3-1.9-2c-2.6-3-5.2-6.5-8.1-9
		c-1.7-1.5-2.9-1.9-4.4-2.7C504.4,94.4,509.8,112.3,515.1,130.8z"/>
</g>
<g>
	<polygon points="556,404 554,404 554,406 556,406 	"/>
</g>
<g>
	<g>
		<path class="st1" d="M503.2,297.3c-5.4-10.2-10.2-20.7-14.3-31.5c-0.3-0.9-0.7-1.8-0.3-2.7c0.3-0.7,1-1.2,1.7-1.5
			c8.8-4.7,20.2-1.9,27.5,5s10.7,16.8,11.7,26.7"/>
		<g>
			<path d="M504.5,296.5c-3.3-6.3-6.4-12.7-9.3-19.2c-1.4-3.2-2.7-6.5-4-9.7c-0.4-0.9-1.8-3.4-1-4.3s2.5-1.4,3.6-1.7
				c5.2-1.6,10.9-1,15.8,1.2c5.3,2.4,9.5,6.5,12.4,11.5c3.4,5.7,5.2,12.3,5.9,18.9c0.2,1.9,3.2,1.9,3,0
				c-1.3-12.7-6.7-26.4-18.8-32.5c-5.5-2.8-12-3.9-18-2.3c-2.5,0.6-6.6,1.9-7.1,4.8c-0.3,1.8,0.7,3.6,1.3,5.1
				c0.7,1.8,1.5,3.7,2.2,5.5c3.4,8.2,7.2,16.3,11.4,24.2C502.8,299.8,505.4,298.3,504.5,296.5L504.5,296.5z"/>
		</g>
	</g>
	<g>
		<path class="st1" d="M503.6,298.2c-0.6,7.8,3.1,15.6,8.6,21.3c5.5,5.6,12.7,9.3,20.1,11.9c2.2,0.8,4.5,1.4,6.8,1.3
			c5.3-0.4,9.1-5.2,11.3-10c3.2-7.1,3.9-15.8,0.2-22.7s-12.7-11-19.9-7.9"/>
		<g>
			<path d="M502.1,298.2c-1.1,18.2,16.2,31,32,35.3c4.1,1.1,8,0.6,11.4-2c3.1-2.4,5.2-5.9,6.7-9.5c3.1-7.5,3.6-17-1.1-24.1
				c-4.5-6.8-13.5-10.5-21.2-7.2c-1.8,0.8-0.2,3.3,1.5,2.6c5.8-2.5,12.5,0.4,16.3,5c4.7,5.7,4.6,14,2.4,20.7
				c-1.1,3.3-2.7,6.5-5.2,8.9c-2.7,2.7-5.9,3.6-9.6,2.7c-3.7-0.9-7.4-2.5-10.9-4.3c-3.4-1.7-6.6-3.8-9.4-6.3
				c-6.2-5.6-10.5-13.5-9.9-21.9C505.2,296.3,502.2,296.3,502.1,298.2L502.1,298.2z"/>
		</g>
	</g>
	<g>
		<path class="st1" d="M548,298.1c0,2,2.3,3.5,4.1,2.7s2.3-3.6,0.8-4.9s-4.2-0.6-4.8,1.3"/>
		<g>
			<path d="M546.5,298.1c0,0.9,0.3,1.7,0.8,2.4c0.6,0.8,1.3,1.4,2.3,1.7c1.6,0.6,3.5,0.2,4.6-1.1c1-1.2,1.5-3.1,0.9-4.6
				c-0.3-0.9-0.9-1.6-1.7-2.2c-0.7-0.4-1.5-0.6-2.3-0.6c-1.9,0-3.7,1.2-4.4,3c-0.3,0.7,0.3,1.7,1,1.8c0.8,0.2,1.6-0.3,1.8-1
				c0-0.1,0.1-0.1,0.1-0.2c-0.1,0.1-0.1,0.2-0.2,0.4c0.1-0.2,0.2-0.3,0.3-0.4c0.1-0.2-0.1,0.2-0.1,0.2l0.1-0.1
				c0.1-0.1,0.1-0.1,0.2-0.2c0.1-0.1,0.1-0.1,0.2-0.1c-0.4,0.3-0.2,0.1,0,0.1c0.2-0.1,0.3-0.2,0.5-0.3c-0.1,0.1-0.2,0.1-0.4,0.2
				c0.3-0.1,0.6-0.2,0.9-0.2c-0.1,0-0.3,0-0.4,0.1c0.3,0,0.6,0,0.9,0c-0.1,0-0.3,0-0.4-0.1c0.2,0,0.5,0.1,0.7,0.2
				c-0.1-0.1-0.2-0.1-0.4-0.2c0.1,0.1,0.3,0.1,0.4,0.2c0.1,0.1,0.3,0.3-0.1-0.1c0.1,0.1,0.1,0.1,0.2,0.2c0.1,0.1,0.1,0.1,0.2,0.2
				c-0.3-0.3-0.1-0.2-0.1-0.1c0.1,0.1,0.2,0.3,0.2,0.4c-0.1-0.1-0.1-0.2-0.2-0.4c0.1,0.2,0.2,0.5,0.2,0.8c0-0.1,0-0.3-0.1-0.4
				c0,0.3,0,0.6,0,0.9c0-0.1,0-0.3,0.1-0.4c0,0.3-0.1,0.6-0.2,0.8c0.1-0.1,0.1-0.2,0.2-0.4c-0.1,0.1-0.1,0.3-0.2,0.4
				c0,0.1-0.1,0.1-0.1,0.2c0,0,0.3-0.3,0.1-0.2l-0.1,0.1c-0.1,0.1-0.1,0.1-0.2,0.2l-0.1,0.1c0,0,0.3-0.2,0.2-0.1s-0.3,0.2-0.4,0.3
				c0.1-0.1,0.2-0.1,0.4-0.2c-0.2,0.1-0.4,0.1-0.7,0.2c0.1,0,0.3,0,0.4-0.1c-0.2,0-0.5,0-0.7,0c0.1,0,0.3,0,0.4,0.1
				c-0.3,0-0.6-0.1-0.8-0.2c0.1,0.1,0.2,0.1,0.4,0.2c-0.2-0.1-0.4-0.2-0.5-0.3l-0.1-0.1c-0.2-0.1,0.2,0.1,0.2,0.1l-0.2-0.2
				c-0.1-0.1-0.1-0.1-0.2-0.2l-0.1-0.1c0,0,0.2,0.3,0.1,0.2c-0.1-0.2-0.2-0.3-0.3-0.5c0.1,0.1,0.1,0.2,0.2,0.4
				c-0.1-0.2-0.1-0.4-0.2-0.6c0,0.1,0,0.3,0.1,0.4c0-0.1,0-0.2,0-0.4c0-0.8-0.7-1.5-1.5-1.5C547.2,296.6,546.5,297.2,546.5,298.1
				L546.5,298.1z"/>
		</g>
	</g>
	<g>
		<path class="st1" d="M552.2,296.5"/>
		<g>
			<path d="M552.2,298c1.9,0,1.9-3,0-3S550.3,298,552.2,298L552.2,298z"/>
		</g>
	</g>
	<g>
		<path class="st1" d="M477.2,319.9c6,3.6,9.9,9.8,15.8,13.6c3.8,2.5,8.1,3.8,12.4,5.1c7,2.1,14,4.3,21.1,6.4
			c2.5,0.8,5.1,1.5,7.7,1.6c8.1,0,15.1-8.8,13.1-16.7"/>
		<g>
			<path d="M476.5,321.2c5.1,3.1,8.6,8,13.2,11.7c5,4.1,11.1,5.9,17.2,7.7c6.8,2.1,13.7,4.2,20.5,6.3c3,0.9,6.1,1.5,9.2,1
				c2.5-0.4,4.7-1.6,6.6-3.2c4.4-3.6,6.8-9.6,5.5-15.2c-0.4-1.9-3.3-1.1-2.9,0.8c1,4.5-1.1,9.1-4.5,12c-1.6,1.4-3.7,2.4-5.8,2.7
				c-2.9,0.4-5.9-0.6-8.7-1.4c-6.4-1.9-12.8-3.9-19.2-5.9c-5.5-1.7-11.3-3.2-15.9-6.9c-4.8-3.9-8.5-8.9-13.8-12.2
				C476.3,317.6,474.8,320.2,476.5,321.2L476.5,321.2z"/>
		</g>
	</g>
	<g>
		<path class="st1" d="M476.9,322.1c6.5,18,20.3,33.2,37.6,41.3c4.6,2.1,9.3,3.8,13.9,6c3.5,1.7,7,3.8,10.9,4.5
			c8.6,1.6,17.8-5.1,19-13.7c0.3-1.8,0.2-3.7,0.1-5.5c-0.1-4-0.3-8-0.4-11.9c-0.1-3.4-0.3-6.9-1.9-9.8s-5.3-5.1-8.4-3.9"/>
		<g>
			<path d="M475.5,322.4c6.7,18.3,20.6,33.9,38.3,42.2c5.4,2.5,10.9,4.5,16.2,7.2c4.6,2.4,9.3,4.4,14.6,3.5
				c4.3-0.7,8.5-3.1,11.3-6.5c3.2-3.9,4.2-8.3,4.1-13.3c-0.1-3.5-0.2-6.9-0.3-10.4c-0.1-3.2-0.1-6.5-0.8-9.6c-1.2-4.9-6-9.9-11.5-8
				c-1.8,0.6-1,3.5,0.8,2.9c1.9-0.7,3.9,0,5.3,1.4c1.7,1.6,2.4,3.9,2.8,6.2c0.4,2.5,0.3,5.1,0.4,7.7c0.1,2.9,0.2,5.8,0.3,8.7
				c0.1,2.5,0.2,5-0.5,7.4c-0.5,1.8-1.5,3.5-2.7,5c-2.5,3.1-6.2,5.2-10.1,5.8c-4.8,0.6-9.2-1.8-13.3-3.9c-4.8-2.4-9.9-4.2-14.8-6.5
				c-8-3.7-15.3-9-21.5-15.4c-6.9-7.2-12.3-15.7-15.7-25.1C477.7,319.9,474.8,320.6,475.5,322.4L475.5,322.4z"/>
		</g>
	</g>
	<g>
		<path class="st1" d="M476.8,323.7c-4.6-3-11.2-1.1-15.1,2.8c-4,3.9-6,9.3-8.1,14.4c-6.3,15.6-14.3,30.5-23.6,44.5
			c-1.1,1.6-2.5,3.4-4.4,3.4c7.5,6.1,17,9.8,26.6,10.2"/>
		<g>
			<path d="M477.6,322.4c-4.5-2.8-10.2-1.8-14.4,0.9c-4.7,3.1-7.4,8.3-9.5,13.4c-2.4,5.8-4.8,11.6-7.5,17.3c-2.8,5.8-5.8,11.5-9,17
				c-1.8,3-3.6,6-5.5,9c-1,1.5-2,3.1-3,4.6c-0.7,1.1-1.7,2.5-3.1,2.7c-1.2,0.1-2.2,1.7-1.1,2.6c7.9,6.4,17.6,10.1,27.7,10.6
				c1.9,0.1,1.9-2.9,0-3c-9.3-0.4-18.4-3.9-25.6-9.7c-0.4,0.9-0.7,1.7-1.1,2.6c2.8-0.2,4.5-2.3,5.9-4.5c1.7-2.5,3.4-5.1,5-7.7
				c3.3-5.4,6.4-10.9,9.3-16.6c2.9-5.6,5.5-11.2,7.9-17c2.2-5.2,3.9-10.8,7.5-15.3c3.4-4.2,9.7-7.4,14.8-4.2
				C477.7,326,479.2,323.4,477.6,322.4L477.6,322.4z"/>
		</g>
	</g>
	<g>
		<path class="st1" d="M478.1,361.5c-6.9,21.3-13.7,42.6-20.6,63.8c-0.4,1.3-0.8,2.9,0,4c0.5,0.7,1.4,1.1,2.2,1.4
			c10.8,4,22.3,5.3,33.7,6.6c16.4,1.8,32.9,3.7,49.3,5.5c4.3,0.5,8.9,0.9,12.7-1c6.5-3.3,8.2-11.6,9.2-18.8
			c1.4-10.4,2.8-21.4-1.3-31.1"/>
		<g>
			<path d="M476.6,361.1c-5,15.6-10.1,31.2-15.1,46.8c-1.3,3.9-2.5,7.9-3.8,11.8c-0.6,1.9-1.2,3.7-1.8,5.6c-0.4,1.4-0.7,3.1,0,4.5
				c0.8,1.5,2.3,2.1,3.8,2.6c1.9,0.7,3.8,1.3,5.7,1.9c3.7,1,7.5,1.8,11.3,2.5c7.6,1.3,15.3,2,23,2.9c8.1,0.9,16.1,1.8,24.2,2.7
				c4.1,0.5,8.2,0.9,12.3,1.4c3.9,0.4,7.8,1.1,11.6,1.1c3.3,0,6.6-0.5,9.4-2.3c2.3-1.5,4.1-3.8,5.4-6.2c3.1-6.2,3.6-13.6,4.3-20.3
				c0.9-8.2,0.9-16.7-2.2-24.4c-0.7-1.8-3.6-1-2.9,0.8c2.7,6.5,2.9,13.5,2.4,20.5c-0.3,3.4-0.7,6.8-1.2,10.2
				c-0.4,2.8-0.9,5.6-1.7,8.3c-1.7,5.4-5,9.8-11,10.5c-3.5,0.4-7.1-0.2-10.5-0.6c-3.9-0.4-7.7-0.9-11.6-1.3
				c-15.1-1.7-30.2-3.1-45.3-5.1c-7.2-1-14.4-2.3-21.3-4.7c-1.2-0.4-3.4-0.7-3.3-2.4c0-1.7,1-3.6,1.5-5.2c1.2-3.6,2.3-7.3,3.5-10.9
				c5.3-16.6,10.7-33.1,16-49.7C480.1,360,477.2,359.2,476.6,361.1L476.6,361.1z"/>
		</g>
	</g>
	<g>
		<path class="st1" d="M554.5,330c10,2.2,20.4,4.8,27.9,11.8c9.3,8.8,11.9,22.7,11.3,35.4c-0.6,12.8-3.8,25.4-3.7,38.2
			c-5.7-3.2-12-5.3-18.5-6.2"/>
		<path d="M595.3,368.7c-0.5-6.5-1.9-12.9-4.8-18.8c-3-6-7.6-10.8-13.4-14.1c-6.8-3.8-14.5-5.7-22-7.3c-2.1-0.4-2.9,2.5-1,2.9
			c6.5,1.5,13.1,3,19.2,5.9c5.8,2.9,10.6,7.1,13.8,12.8c6.5,11.8,5.7,26,4,39c-1,7.9-2.3,15.8-2.5,23.8c-5.2-2.6-10.8-4.3-16.5-5.2
			c-0.8-0.1-1.6,0.2-1.8,1c-0.1,0.4,0,0.9,0.2,1.3c-0.5,0.1-1,0.3-1.5,0.6c-1,0.6-2,1.8-2.3,3c-0.1,0.7-0.2,1.4,0,2.1
			c-0.1,0.1-0.1,0.1-0.2,0.2c-0.3,0.3-0.5,0.7-0.8,1c-0.5,0.8-0.7,1.6-0.7,2.5c0.1,0.4,0.1,0.9,0.2,1.3c0.2,0.8,0.6,1.5,1.2,2.1
			c0.1,0.5,0.3,1,0.6,1.5c0.2,0.4,0.4,0.8,0.6,1.2c0.3,0.6,0.7,1.1,1.3,1.4c0.5,0.4,1,0.7,1.7,0.9c0.7,0.2,1.3,0.2,2,0.1
			c0.7,0,1.3-0.2,1.9-0.6c0.1-0.1,0.2-0.2,0.3-0.2c1.2,0.4,2.4,0.6,3.7,0.4c5.1-0.5,8.8-4.6,9.1-9.7c0-0.9-0.2-1.8-0.7-2.6
			c0.9,0.5,1.8,0.9,2.7,1.4c1,0.6,2.3-0.1,2.3-1.3C591.6,399.7,596.4,384.3,595.3,368.7z"/>
	</g>
	<g>
		<path class="st1" d="M457.9,415.9c-1.2-5.4-2.9-11.3-7.4-14.5c-4.3-3-10.3-2.6-14.9-0.2s-8.2,6.4-11.2,10.7
			c-7.2,10.3-11.9,22.2-16.3,34"/>
		<path d="M459.4,415.5c-1.1-5-2.6-10.5-6.5-14.1c-3.8-3.5-9.3-4.3-14.2-3c0-0.1,0-0.3,0-0.4c-0.1-2.7-2.2-5-5-5h-3.1
			c-2.6,0-5.1,2.3-5,5c0.1,2.6,2.1,4.8,4.7,5c-2.2,1.9-4.2,4.2-6,6.6c-3.7,5-6.8,10.5-9.5,16.1c-3.1,6.5-5.7,13.2-8.2,20
			c-0.7,1.8,2.2,2.6,2.9,0.8c4-10.8,8.3-21.7,14.7-31.4c2.9-4.4,6.2-8.8,10.7-11.6c4.2-2.6,9.9-3.6,14.3-0.9
			c4.7,2.9,6.1,8.9,7.2,13.9C456.9,418.2,459.8,417.4,459.4,415.5z"/>
	</g>
	<g>
		<path class="st1" d="M497.7,458.2c-1.3,2.5-3.7,4.2-6.3,5.5c-10.1,5.1-25.4,2.9-34.7-3.4"/>
		<g>
			<path d="M496.4,457.5c-1.7,3.2-5.2,5-8.5,6.2c-3.3,1.1-6.8,1.5-10.3,1.5c-7-0.1-14.2-2.1-20.1-6.1c-1.6-1.1-3.1,1.5-1.5,2.6
				c6.5,4.4,14.6,6.5,22.3,6.5c3.8,0,7.8-0.6,11.4-1.9c3.7-1.4,7.4-3.6,9.3-7.2C499.9,457.3,497.3,455.8,496.4,457.5L496.4,457.5z"
				/>
		</g>
	</g>
	<g>
		<path class="st1" d="M499.8,460.7c4.4,3.7,8.9,7.3,14.1,9.8c5.2,2.5,11.1,3.7,16.7,2.5c2.8-0.6,5.4-1.8,7.7-3.5
			c1.7-1.2,3.1-2.7,4.4-4.3c4.1-5.4,5.6-12.6,4-19.2"/>
		<g>
			<path d="M498.8,461.7c7.5,6.4,15.8,12.6,25.9,13.2c9.8,0.6,18.5-5.3,22.2-14.3c2-4.8,2.3-10.1,1.2-15.1c-0.4-1.9-3.3-1.1-2.9,0.8
				c1.8,7.9-1,16.7-7.5,21.7c-7.3,5.6-17,4.4-24.7,0.3c-4.4-2.4-8.4-5.5-12.2-8.8C499.5,458.4,497.3,460.5,498.8,461.7L498.8,461.7z
				"/>
		</g>
	</g>
	<g>
		<path class="st1" d="M456.7,460.3c-1.7-7.2-1.5-12.6-6.5-18c-1.8-1.9-4-3.8-6.7-3.8c-3.1,0-5.6,2.7-7.1,5.5
			c-3.4,6.1-4.9,14.1-11,17.5"/>
		<g>
			<path d="M458.2,459.9c-0.9-3.9-1.3-7.9-2.6-11.6c-1.4-3.8-3.9-7.4-7.3-9.7c-3.7-2.5-7.9-1.7-10.9,1.5c-2.6,2.9-4,6.7-5.5,10.2
				c-1.6,3.8-3.5,7.8-7.2,9.9c-1.7,1-0.2,3.6,1.5,2.6c6.2-3.6,7.9-10.9,10.9-16.9c1.5-2.9,4.2-7,8.1-5.5c3.3,1.3,6,5.1,7.3,8.3
				c1.5,3.9,1.9,8.1,2.8,12.1C455.7,462.6,458.6,461.8,458.2,459.9L458.2,459.9z"/>
		</g>
	</g>
	<g>
		<path class="st1" d="M425.2,462.2c-1.9,0-3.6-1.1-4.9-2.4s-2.3-2.9-3.6-4.3c-2.7-3-6.5-4.7-10-6.8c-0.8-0.5-1.8-1.4-1.2-2.2"/>
		<g>
			<path d="M425.2,460.7c-2,0-3.5-1.4-4.7-2.9c-1.4-1.6-2.6-3.4-4.2-4.8c-1.5-1.3-3.2-2.4-4.9-3.4c-0.9-0.5-1.8-1-2.7-1.5
				c-0.4-0.2-0.9-0.5-1.3-0.7c-0.1-0.1-0.3-0.2-0.4-0.2c-0.4-0.4-0.1-0.3-0.3,0.1c0.9-1.7-1.7-3.2-2.6-1.5c-1.3,2.6,1.5,4.1,3.3,5.2
				c2.1,1.2,4.3,2.3,6.2,3.9c3.8,3,5.9,8.9,11.5,8.9C427.2,463.7,427.2,460.7,425.2,460.7L425.2,460.7z"/>
		</g>
	</g>
	<g>
		<path class="st1" d="M407,451.9c-4.4-2.1-9.1-4.2-13.9-3.7c-1.9,0.2-3.8,0.9-5.2,2.2s-2.1,3.4-1.5,5.2c0.5,1.6,1.8,2.7,3.2,3.7
			c6.9,5.2,15.1,8.4,23.2,11.5c0.7,0.3,1.4,0.5,2.1,0.2c0.4-0.2,0.6-0.7,0.8-1.1c1.6-3.5,2.7-7.2,3.2-11"/>
		<g>
			<path d="M407.7,450.6c-4.9-2.3-10.1-4.7-15.6-3.7c-4.6,0.8-9.1,5.2-6.7,10.1c1.1,2.2,3.3,3.7,5.3,5c2.2,1.5,4.5,2.8,6.9,4
				c4.8,2.4,9.8,4.5,14.8,6.3c1.2,0.4,2.5,0.6,3.5-0.2c1-0.8,1.5-2.3,1.9-3.5c1.2-3,2-6.1,2.5-9.3c0.1-0.8-0.2-1.6-1-1.8
				c-0.7-0.2-1.7,0.2-1.8,1c-0.3,2.2-0.8,4.4-1.4,6.5c-0.3,1-0.7,2.1-1.1,3.1c-0.2,0.5-0.3,1-0.6,1.4c-0.2,0.3-0.2,0.2-0.7,0.1
				c-2-0.6-4-1.6-6-2.3c-2-0.8-4-1.7-6-2.6c-3.9-1.8-7.7-3.9-11.2-6.5c-1.4-1.1-3-2.5-2.5-4.4c0.4-2,2.2-3.2,4.1-3.7
				c4.9-1.3,10,1.2,14.3,3.2C408,454,409.5,451.4,407.7,450.6L407.7,450.6z"/>
		</g>
	</g>
	<g>
		<path class="st1" d="M501.5,305c-5.3,5.1-7.7,12.5-9.8,19.5c-0.4,1.5-0.9,2.9-0.8,4.5c0.1,1.5,0.9,3.1,2.3,3.7"/>
		<g>
			<path d="M500.5,303.9c-4.1,4-6.6,9.2-8.4,14.6c-0.9,2.7-2,5.6-2.5,8.5c-0.4,2.7,0.3,5.7,2.9,6.9c1.7,0.9,3.2-1.7,1.5-2.6
				c-2.4-1.2-1.5-4.2-0.9-6.2c0.7-2.3,1.4-4.7,2.2-7c1.6-4.5,3.8-8.8,7.2-12.1C504,304.7,501.8,302.6,500.5,303.9L500.5,303.9z"/>
		</g>
	</g>
	<g>
		<path class="st1" d="M500.6,314c-0.6,0.7-1.1,1.4-1.7,2.1c0.6-2.1,1.2-4.3,1.9-6.4c-0.2,0.6-0.4,1.2-0.5,1.8
			c0.2-0.8,0.4-1.5,0.6-2.3c-0.6,0.3-0.9,1-0.9,1.6c0.7-1.2,1.4-2.3,2-3.5c-0.1,1.3,0.3,2.7,1,3.9c0.1,1.1,0.1,2.2,0.2,3.4
			c0.3-1.1,0.6-2.1,0.9-3.2c0,1.4-0.1,2.9-0.1,4.3c0.4,1.8,1.7,3.4,3.4,4.2c0.5-1.2,0.6-2.5,0.3-3.7c-0.7,0.5-1.1,1.6-0.7,2.4
			c-0.9-0.6-1.6-1.5-2-2.6c0.4,1.3,0.9,2.5,1.3,3.8c0-1.1,0-2.2,0-3.3c0.2,1.3,0.4,2.6,0.5,3.9c-1-1.6-2-3.2-3-4.8
			c-0.2,1.5-0.1,3.1,0.2,4.5c-0.7-1.6-1.3-3.1-2-4.7c0.2,2.1,0.5,4.2,0.7,6.2c-0.9-2.2-1.8-4.4-2.7-6.5c-0.9,1.6-0.8,3.7,0.2,5.2
			c-0.6-1.6-1.2-3.3-1.7-4.9c0.1,0.8,0.2,1.5,0.3,2.3c-0.5-1.4-1-2.8-1.6-4.2c0.3,1.7,0.7,3.5,1,5.2c0.1-0.9-0.4-1.7-1.2-2.1
			c0.1,1.9,0.2,3.8,0.3,5.6c0.5-0.4,1.1-0.8,1.6-1.2c-1.9,1.2-3.8,2.4-5.7,3.6c-0.4-1.6-0.4-3.3-0.2-4.9c1-0.7,1.9-1.7,2.5-2.8
			c-0.2,0.7-0.3,1.4-0.5,2.1c0.8-2.9,2.1-5.7,3.9-8.1c0.3,0.5,0.5,1,0.8,1.5c2.7-1.5,6.6,0.8,6.7,3.9c-0.3-1-1.7-1.4-2.7-1
			s-1.8,1.3-2.5,2.1c-2,2.2-4.5,4.1-7.1,5.5c0.6-0.7,1.2-1.4,1.8-2.1c-1.1,0.4-2.2,0.9-3.3,1.3c2-1.9,4.3-3.4,6.8-4.5
			c-0.8,1.5-1.9,2.8-3.3,3.8c3.2-2,4.3-6.7,2.3-10c-2-3.2-6.7-4.3-10-2.3s-4.3,6.7-2.3,10c2,3.2,6.7,4.3,10,2.3"/>
		<g>
			<path d="M499.5,312.9c-0.6,0.7-1.1,1.4-1.7,2.1c0.8,0.5,1.7,1,2.5,1.5c0.6-2.1,1.2-4.3,1.9-6.4c-1-0.3-1.9-0.5-2.9-0.8
				c-0.2,0.6-0.4,1.2-0.5,1.8c1,0.3,1.9,0.5,2.9,0.8c0.2-0.8,0.4-1.5,0.6-2.3c0.3-1.2-1.1-2.5-2.2-1.7c-1,0.7-1.6,1.7-1.7,2.9
				c-0.1,1.5,2.1,2,2.8,0.8c0.7-1.2,1.4-2.3,2-3.5c-0.9-0.3-1.9-0.5-2.8-0.8c0,1.3,0.2,2.5,0.7,3.6s0.4,2.3,0.5,3.6
				c0.1,1.7,2.5,2.1,2.9,0.4c0.3-1.1,0.6-2.1,0.9-3.2c-1-0.1-2-0.3-2.9-0.4c0,2-0.4,4.2,0.5,6.1c0.7,1.6,2,2.9,3.6,3.7
				c0.9,0.5,1.8,0,2.2-0.9c0.6-1.5,0.6-3,0.3-4.5c-0.2-1.2-1.7-1.3-2.5-0.7c-1.1,0.9-1.5,2.5-1.1,3.9c0.7-0.6,1.5-1.1,2.2-1.7
				c-0.7-0.5-1.2-1.2-1.5-2c-0.7-1.6-3.3-0.4-2.7,1.2c0.4,1.3,0.9,2.5,1.3,3.8c0.5,1.6,2.9,1.4,2.9-0.4c0-1.1,0-2.2,0-3.3
				c-1,0.1-2,0.3-2.9,0.4c0.2,1.3,0.4,2.6,0.5,3.9c0.9-0.4,1.8-0.8,2.7-1.2c-1-1.6-2-3.2-3-4.8c-0.8-1.3-2.7-0.7-2.8,0.8
				c-0.1,1.7,0,3.3,0.3,4.9c1-0.3,1.9-0.5,2.9-0.8c-0.7-1.6-1.3-3.1-2-4.7c-0.3-0.7-0.8-1.2-1.6-1.1c-0.7,0.1-1.4,0.7-1.3,1.5
				c0.2,2.1,0.5,4.2,0.7,6.2c1-0.1,2-0.3,2.9-0.4c-0.9-2.2-1.8-4.4-2.7-6.5c-0.4-1.1-2.1-1.6-2.7-0.4c-1.1,2.2-1,4.6,0.2,6.7
				c0.8,1.4,3.3,0.5,2.7-1.2c-0.6-1.6-1.2-3.3-1.7-4.9c-0.7-1.9-3.2-1.1-2.9,0.8c0.1,0.8,0.2,1.5,0.3,2.3c1-0.3,1.9-0.5,2.9-0.8
				c-0.5-1.4-1-2.8-1.6-4.2c-0.7-1.8-3.3-1.1-2.9,0.8c0.3,1.7,0.7,3.5,1,5.2s2.9,1.2,2.9-0.4c0.1-1.4-0.7-2.7-1.9-3.4
				c-0.9-0.5-2.3,0.1-2.3,1.3c0.1,1.9,0.2,3.8,0.3,5.6c0.1,1,1.3,2,2.3,1.3c0.5-0.4,1.1-0.8,1.6-1.2c1.5-1.1,0.2-3.6-1.5-2.6
				c-1.9,1.2-3.8,2.4-5.7,3.6c0.7,0.3,1.5,0.6,2.2,0.9c-0.3-1.5-0.4-3-0.2-4.5c-0.2,0.4-0.5,0.9-0.7,1.3c1.3-0.9,2.3-2,3-3.3
				c-0.9-0.4-1.8-0.8-2.7-1.2c-0.2,0.7-0.3,1.4-0.5,2.1c-0.4,1.9,2.4,2.7,2.9,0.8c0.8-2.8,2.1-5.4,3.8-7.8c-0.9,0-1.7,0-2.6,0
				c0.3,0.5,0.5,1,0.8,1.5c0.4,0.8,1.3,0.9,2.1,0.5c1.8-0.9,4.3,0.6,4.5,2.6c1-0.1,2-0.3,2.9-0.4c-0.6-1.4-1.7-2.2-3.2-2.3
				c-1.5,0-2.8,0.8-3.8,1.8c-2.4,2.4-4.6,4.5-7.6,6.1c0.6,0.8,1.2,1.6,1.8,2.4c0.6-0.7,1.2-1.4,1.8-2.1c0.9-1,0.1-3.1-1.5-2.5
				c-1.1,0.4-2.2,0.9-3.3,1.3c0.5,0.8,1,1.7,1.5,2.5c1.9-1.8,4.1-3.2,6.5-4.3c-0.7-0.7-1.4-1.4-2.1-2.1c-0.8,1.4-1.8,2.6-3,3.5
				c-1.3,1,0.4,3.3,1.8,2.4c3.1-2,4.6-5.8,3.9-9.4s-3.8-6.1-7.3-6.6c-3.6-0.5-7.1,1.2-8.7,4.5c-1.6,3.2-1.3,7.2,1.2,9.9
				c2.8,3,7.6,3.6,11,1.5c1.7-1,0.1-3.6-1.5-2.6c-2,1.2-4.7,1-6.6-0.4s-2.5-3.9-1.8-6.2c0.7-2.3,2.7-3.9,5.2-3.9
				c2.3,0,4.6,1.2,5.5,3.4c0.9,2.5,0,5.6-2.2,7c0.6,0.8,1.2,1.6,1.8,2.4c1.4-1.1,2.6-2.5,3.5-4.2c0.8-1.4-0.7-2.6-2.1-2.1
				c-2.6,1.2-5,2.8-7.1,4.8c-1,1,0,3.1,1.5,2.5c1.1-0.4,2.2-0.9,3.3-1.3c-0.5-0.8-1-1.7-1.5-2.5c-0.6,0.7-1.2,1.4-1.8,2.1
				c-1.1,1.3,0.3,3.2,1.8,2.4c2.2-1.2,4.2-2.6,6-4.3c0.8-0.8,1.6-1.7,2.4-2.5c0.2-0.2,1.5-1.1,1.7-0.7c0.3,0.7,0.8,1.2,1.6,1.1
				c0.7-0.1,1.4-0.7,1.3-1.5c-0.3-4.3-5.1-7.1-9-5.2c0.7,0.2,1.4,0.4,2.1,0.5c-0.3-0.5-0.5-1-0.8-1.5c-0.6-1.1-2-0.9-2.6,0
				c-1.8,2.6-3.2,5.5-4.1,8.5c1,0.3,1.9,0.5,2.9,0.8c0.2-0.7,0.3-1.4,0.5-2.1c0.4-1.6-1.9-2.7-2.7-1.2c-0.4,0.7-0.9,1.3-1.5,1.9
				c-0.7,0.6-1.2,0.9-1.3,1.9c-0.2,1.7,0,3.5,0.3,5.1c0.2,0.9,1.4,1.4,2.2,0.9c1.9-1.2,3.8-2.4,5.7-3.6c-0.5-0.9-1-1.7-1.5-2.6
				c-0.5,0.4-1.1,0.8-1.6,1.2c0.8,0.4,1.5,0.9,2.3,1.3c-0.1-1.9-0.2-3.8-0.3-5.6c-0.8,0.4-1.5,0.9-2.3,1.3c0.4,0.2,0.4,0.4,0.4,0.8
				c1-0.1,2-0.3,2.9-0.4c-0.3-1.7-0.7-3.5-1-5.2c-1,0.3-1.9,0.5-2.9,0.8c0.5,1.4,1,2.8,1.6,4.2c0.7,1.8,3.2,1.1,2.9-0.8
				c-0.1-0.8-0.2-1.5-0.3-2.3c-1,0.3-1.9,0.5-2.9,0.8c0.6,1.6,1.2,3.3,1.7,4.9c0.9-0.4,1.8-0.8,2.7-1.2c-0.7-1.1-0.8-2.5-0.2-3.7
				c-0.9-0.1-1.8-0.2-2.7-0.4c0.9,2.2,1.8,4.4,2.7,6.5c0.3,0.7,0.8,1.2,1.6,1.1c0.7-0.1,1.4-0.7,1.3-1.5c-0.2-2.1-0.5-4.2-0.7-6.2
				c-1,0.1-2,0.3-2.9,0.4c0.7,1.6,1.3,3.1,2,4.7c0.7,1.8,3.3,1.1,2.9-0.8c-0.3-1.4-0.3-2.8-0.2-4.1c-0.9,0.3-1.9,0.5-2.8,0.8
				c1,1.6,2,3.2,3,4.8c1,1.5,3,0.5,2.7-1.2c-0.2-1.3-0.4-2.6-0.5-3.9c-0.2-1.7-2.9-1.2-2.9,0.4c0,1.1,0,2.2,0,3.3
				c1-0.1,2-0.3,2.9-0.4c-0.4-1.3-0.9-2.5-1.3-3.8c-0.9,0.4-1.8,0.8-2.7,1.2c0.6,1.3,1.5,2.3,2.6,3.1c1.1,0.8,2.6-0.5,2.2-1.7
				c-0.1-0.5-0.1-0.6,0.3-0.9c-0.8-0.2-1.7-0.4-2.5-0.7c0.2,1,0,1.9-0.3,2.9c0.7-0.3,1.5-0.6,2.2-0.9c-1.1-0.6-2.1-1.4-2.5-2.6
				c-0.3-0.6-0.1-1.4-0.1-2.1c0-0.8,0-1.7,0-2.5c0-1.7-2.5-2-2.9-0.4c-0.3,1.1-0.6,2.1-0.9,3.2c1,0.1,2,0.3,2.9,0.4
				c-0.1-1.2,0.1-2.8-0.3-3.9c-0.4-1.2-0.9-2-0.9-3.3c0-1.5-2.1-2-2.8-0.8c-0.7,1.2-1.4,2.3-2,3.5c0.9,0.3,1.9,0.5,2.8,0.8
				c0-0.1,0.1-0.3,0.2-0.3c-0.7-0.6-1.5-1.1-2.2-1.7c-0.2,0.8-0.4,1.5-0.6,2.3c-0.5,1.9,2.4,2.7,2.9,0.8c0.2-0.6,0.4-1.2,0.5-1.8
				c0.5-1.9-2.4-2.6-2.9-0.8c-0.6,2.1-1.2,4.3-1.9,6.4c-0.4,1.4,1.5,2.7,2.5,1.5c0.6-0.7,1.1-1.4,1.7-2.1c0.5-0.6,0.6-1.5,0-2.1
				C501.1,312.4,500,312.3,499.5,312.9L499.5,312.9z"/>
		</g>
	</g>
	<g>
		<path class="st1" d="M508.6,321.2c-5.9,1.6-11.5,4.2-16.5,7.8c0.6-2.8,2.7-5.2,5.1-6.8c2.4-1.6,5.2-2.5,8-3.3
			c1.3-0.4,3.3-0.3,3.5,1.1c0.1,1.1-1.2,1.8-2.3,2.1c-3.1,0.9-6.2,1.7-9.3,2.6"/>
		<g>
			<path d="M508.2,319.8c-6,1.6-11.8,4.3-16.9,7.9c0.7,0.6,1.5,1.1,2.2,1.7c1.2-5.3,6.8-7.5,11.5-8.8c0.4-0.1,0.9-0.3,1.4-0.3
				c0.1,0,1,0.1,0.9,0.1c0,0-0.1-0.1-0.1-0.2c0-0.4,0.1-0.1-0.1-0.1c-0.4,0.2-0.8,0.4-1.2,0.5c-3.1,0.9-6.2,1.7-9.3,2.6
				c-1.9,0.5-1.1,3.4,0.8,2.9c3.1-0.9,6.2-1.7,9.3-2.6c1.1-0.3,2.2-0.8,2.9-1.8c0.7-1,0.7-2.4,0-3.3c-1.6-2-4.6-1.1-6.6-0.4
				c-2.6,0.8-5.2,1.8-7.4,3.5c-2.4,1.8-4.3,4.2-4.9,7.1c-0.3,1.2,1.1,2.5,2.2,1.7c4.9-3.5,10.3-6.1,16.1-7.6
				C510.9,322.2,510.1,319.3,508.2,319.8L508.2,319.8z"/>
		</g>
	</g>
	<g>
		<path class="st1" d="M508.6,319.7c0.8,0.3,1.7,0.5,2.5,0.8"/>
		<g>
			<path d="M508.2,321.2c0.8,0.3,1.7,0.5,2.5,0.8c0.4,0.1,0.8,0,1.2-0.2c0.3-0.2,0.6-0.5,0.7-0.9c0.1-0.4,0.1-0.8-0.2-1.2
				c-0.2-0.3-0.5-0.6-0.9-0.7c-0.8-0.3-1.7-0.5-2.5-0.8c-0.4-0.1-0.8,0-1.2,0.2c-0.3,0.2-0.6,0.5-0.7,0.9s-0.1,0.8,0.2,1.2
				C507.5,320.8,507.8,321.1,508.2,321.2L508.2,321.2z"/>
		</g>
	</g>
</g>
<g>
	<ellipse class="st2" cx="356.5" cy="428.8" rx="26" ry="10.5"/>
	<g>
		<g>
			<path d="M329.2,428.3c1,7.9,2.4,15.7,4.2,23.4c0.9,3.9,2,7.7,3.1,11.5c0.5,1.6,0.9,3.4,1.6,5c0.8,1.7,2.4,2.2,4.1,2.6
				c7.7,1.9,15.7,2.3,23.5,1.3c1.9-0.2,3.7-0.5,5.6-0.9c1.6-0.3,3.3-0.6,4.2-2.1c0.9-1.4,1-3.4,1.3-5c0.4-2.1,0.8-4.2,1.2-6.3
				c1.8-9.1,3.6-18.2,5.4-27.3c0.4-1.9-2.5-2.7-2.9-0.8c-1.5,7.5-2.9,14.9-4.4,22.4c-0.7,3.7-1.5,7.5-2.2,11.2
				c-0.2,0.8-0.3,1.6-0.5,2.4c-0.1,0.6-0.1,1.6-0.7,2c-0.4,0.3-1.3,0.4-1.8,0.5c-1,0.2-2,0.4-3,0.6c-7.1,1.2-14.5,1.1-21.6-0.2
				c-0.8-0.1-1.6-0.3-2.3-0.5c-0.8-0.2-1.9-0.3-2.6-0.7c-0.6-0.3-0.7-0.8-0.9-1.4c-0.3-1-0.7-2.1-1-3.2c-1-3.4-2-6.9-2.8-10.3
				c-2-8-3.5-16.1-4.5-24.3C332,426.4,329,426.4,329.2,428.3L329.2,428.3z"/>
		</g>
	</g>
	<g>
		<g>
			<path d="M332.5,428.3c-1-4.9,0.7-10.1,3.9-13.9c3.5-4.1,8.8-6.2,13.9-7.7c5.4-1.6,10.7-1.7,15.8,0.8c3.8,1.9,7.7,4.1,11,6.9
				c2,1.8,3.6,3.9,4.2,6.6c0.6,2.6,0.3,5.4-0.1,8c-0.1,0.8,0.2,1.6,1,1.8c0.7,0.2,1.7-0.2,1.8-1c0.8-5.6,0.9-11-2.9-15.5
				c-1.6-1.9-3.6-3.3-5.6-4.7c-2.2-1.5-4.5-2.9-6.8-4.1c-2.2-1.2-4.5-2.2-7-2.6c-3.3-0.6-6.7-0.3-10,0.4c-3.4,0.8-6.7,2.1-9.9,3.5
				c-2.6,1.1-4.9,2.7-6.8,4.7c-4.4,4.7-6.8,11.3-5.4,17.6C330,431,332.9,430.2,332.5,428.3L332.5,428.3z"/>
		</g>
	</g>
	<g>
		<g>
			<path d="M363.2,422.8c-4.9,0-9.8,0-14.7,0.1c-0.8,0-1.5,0.7-1.5,1.5c-0.1,2.2,2.1,2.9,3.8,3.5c2.1,0.7,4.2,1.2,6.4,1.6
				c4.4,0.8,8.9,1,13.4,0.5c1.2-0.1,2.1-1.6,1.1-2.6c-1.7-1.6-3.7-2.8-6-3.5c-1.8-0.5-4.4-1-6.2-0.2c-2.1,1-2,3.6-0.4,5
				c1.7,1.5,4.5,1.7,6.6,1.7c1.9,0,5.1-0.1,5.8-2.3c0.7-2.1-1.5-3.8-3.3-4.3c-3.7-1-8.3-1-10.8,2.3c-0.7,0.9-1.2,2.2-0.6,3.3
				c0.6,1.1,1.8,1.6,3,1.8c2.7,0.5,5.4,0,7.7-1.5c1-0.7,0.9-1.9,0-2.6c-2.4-1.6-5.2-2.6-8.1-2.5c-1.4,0-2.9,0.3-4.2,0.8
				c-1.2,0.4-2.8,1-3.3,2.3c-1.3,2.9,3.2,4.6,5.3,5c2.9,0.6,5.9,0,8.4-1.6c1-0.6,1-2,0-2.6c-5-3.2-11.2-4-16.8-2.2
				c-1.3,0.4-1.4,2-0.4,2.7c4.7,3.5,11.6,2.4,15.3-2.2c0.6-0.7,0.6-1.9-0.3-2.4c-4.1-2.1-8.9-3.1-13.4-2.2c-1.8,0.4-3.6,1.6-3.7,3.6
				c-0.2,2,1.3,3.6,2.9,4.6c1.9,1.1,4.1,1.6,6.2,1.8c1.7,0.1,4.8,0.1,6-1.5c1.5-1.9-0.8-3.7-2.2-4.8c-1.6-1.2-3.4-2.3-5.4-2.8
				c-3.6-1-8.7-0.1-9.9,4c-0.5,1.8,0.2,3.8,1.7,4.9s3.4,1.2,5.2,1c2.9-0.4,10.1-2.9,8.2-7.1c-0.9-1.9-3.4-2.5-5.3-2.9
				c-2.4-0.5-4.9-0.8-7.4-0.5c-2.1,0.2-4.3,1.5-3.4,3.9c0.7,2.1,3.7,3.4,5.6,4.3c4.1,1.9,9.2,1.9,11.8-2.3c0.4-0.6,0.2-1.7-0.5-2.1
				c-2.1-1-4.3-1.6-6.7-1.8c-1.9-0.1-4.7-0.3-6.1,1.3c-1.2,1.3-1,3.5,0,4.9c1.3,1.8,3.5,2,5.5,1.7c1.3-0.1,2-1.5,1.1-2.6
				c-1.9-2-4.2-3.4-6.8-4.1c-1.8-0.5-2.4,1.8-1.2,2.7c3.4,2.6,7.6,4,11.9,4.3c4,0.3,8.5-0.2,12.3-1.7c1.8-0.7,3.4-2.1,3.8-4
				c0.4-1.8-0.1-3.8-1.2-5.3c-2.7-3.6-8-3.5-12-3.3c-2.4,0.1-4.8,0.5-7.1,1.1c-2.1,0.5-4.5,1.2-6.4,2.4c-1.6,1-2.8,2.6-2.5,4.6
				c0.3,2.1,1.9,3.8,3.6,5c3.6,2.4,8.3,2.7,12.5,3.1c2.6,0.3,5.2,0.4,7.7,0.5c1.8,0.1,3.7,0.1,5.3-0.8c4.8-2.5,1.6-8.8-1.5-11.3
				c-4.2-3.4-9.6-3.4-14.8-3.1c-1.3,0.1-2.2,2.2-0.8,2.8c3.5,1.6,7.8,1.4,11.1,3.5c1.3,0.8,2.5,2,3,3.5c0.3,0.8,0.4,1.8,0.1,2.6
				c-0.3,0.9-1.2,1-2.1,1.2c-4.3,0.8-8.8,1.4-13.1,1.6c-3.8,0.1-7.7-0.6-10.6-3.2c-0.7-0.6-1.3-1.4-1.8-2.2c-0.3-0.4-0.6-1-0.5-1.5
				c0.1-0.4,0.5-0.8,0.8-1.1c1.4-1.5,3.4-2.3,5.4-2.3c-0.4-0.9-0.7-1.7-1.1-2.6c-1.3,1.6-3.5,2-4.9,3.6c-1.7,1.9-1.6,4.7-0.2,6.7
				c1.5,2.2,4.2,2.9,6.7,3.3c2.9,0.5,5.9,0.7,8.8,0.7c3,0,6-0.3,9-0.9c1.4-0.3,2.8-0.7,4.2-1.1c1.1-0.4,2.4-0.8,2.7-2.1
				c0.3-1-0.2-2.1-1.1-2.5c-1.2-0.6-2.5-0.1-3.6,0.4c-2.5,1-5,2.3-7.2,3.9c-1.2,0.8-2.7,1.8-3.6,3c-0.6,0.8-0.4,1.5-0.2,2.4
				c0.1,0.8,0.2,1.6,0.2,2.5c0.2,3.1-0.7,6.7,0.8,9.5c0.8,1.4,2.7,0.7,2.8-0.8c0.1-2.1,0.3-4.2,0.4-6.3c0.1-1,0.1-1.9,0.2-2.9
				c0-0.6-0.1-2,0.3-2.4c-0.8-0.6-1.6-1.2-2.4-1.8c-0.4,0.9-0.9,2.2-1.9,2.6c-0.7,0.3-1.5-0.1-1.5-0.9c-0.5,0.5-1,1-1.5,1.5
				c1.5,0,1.7,3.5,1.9,4.6c0.3,2.9,0.6,5.9,0.9,8.8c0.2,1.9,3.2,1.9,3,0c-0.4-3.6-0.6-7.4-1.2-11c-0.5-2.4-1.7-5.3-4.6-5.3
				c-0.8,0-1.5,0.7-1.5,1.5c0,2.2,1.8,4,4,4c2.4,0,4.1-2.2,4.9-4.2c0.6-1.5-1-3.1-2.4-1.8c-1.5,1.5-1.2,4.1-1.3,6
				c-0.2,2.6-0.3,5.1-0.5,7.7c0.9-0.3,1.9-0.5,2.8-0.8c-0.9-1.6-0.4-3.8-0.4-5.6c0-2.2-0.2-4.4-0.6-6.6c-0.1,0.5-0.3,1-0.4,1.5
				c1.7-1.6,3.5-2.9,5.5-4.1c0.8-0.5,1.7-0.9,2.6-1.4c0.5-0.2,1-0.5,1.6-0.7c0.3-0.1,1.1-0.2,1.3-0.5c0.2-1.1,0.1-1.5-0.4-1.2
				c-0.3,0.1-0.6,0.2-0.9,0.3c-0.6,0.2-1.2,0.4-1.8,0.5c-1,0.3-2.1,0.5-3.1,0.7c-2.3,0.4-4.7,0.6-7.1,0.6s-4.8-0.1-7.1-0.4
				c-1.9-0.3-4.4-0.4-5.8-1.9c-1.3-1.3-1.2-3.1,0.3-4.1c1.4-0.9,3-1.5,4.1-2.8c0.8-1,0.3-2.6-1.1-2.6c-3.9,0-10.9,3.3-8.9,8.2
				c1.7,4.3,6.3,7,10.7,7.8c5.6,1,11.5-0.2,17-1.1c2.3-0.4,4.8-0.7,5.8-3.2c0.8-2.1,0.3-4.6-0.9-6.5c-1.3-2-3.3-3.5-5.5-4.4
				c-2.9-1.1-6.2-1.2-9-2.5c-0.3,0.9-0.5,1.9-0.8,2.8c3.6-0.2,7.6-0.5,11,1.2c1.3,0.7,2.5,1.6,3.4,2.7c0.8,1.1,2.1,3.2,1,4.4
				c-0.7,0.8-2.2,0.9-3.1,0.9c-2,0-4.1-0.1-6.1-0.3c-3.6-0.3-7.3-0.5-10.8-1.5c-1.8-0.5-7.5-3.5-4.3-5.7c1.2-0.8,2.7-1.2,4.1-1.7
				c1.9-0.6,3.9-1,5.8-1.3c1.8-0.2,3.6-0.3,5.4-0.3c1.7,0.1,3.6,0.1,5.2,1c1.2,0.7,2,1.9,2.1,3.2c0.1,1.6-1.2,2.4-2.6,2.8
				c-7,2.3-15.1,2-21.1-2.6c-0.4,0.9-0.8,1.8-1.2,2.7c2.2,0.6,3.9,1.7,5.5,3.3c0.4-0.9,0.7-1.7,1.1-2.6c-0.9,0.1-2.4,0.4-3.1-0.5
				c-0.8-1.1,0.2-1.3,1.1-1.4c2.7-0.2,5.3,0.3,7.8,1.4c-0.2-0.7-0.4-1.4-0.5-2.1c-1.2,1.9-3.5,2.5-5.6,2c-1.3-0.3-2.5-0.9-3.7-1.5
				c-0.6-0.4-1.3-0.7-1.9-1.1c-0.2-0.1-0.3-0.3-0.5-0.4c-0.3-0.2-0.4,0-0.1-0.2c1-0.5,2.9-0.2,4-0.1c1.6,0.1,3.2,0.4,4.7,0.9
				c0.3,0.1,1.5,0.3,1.7,0.7c0.1,0.3-0.2,0.5-0.4,0.7c-1,0.9-2.4,1.5-3.7,1.9c-1.3,0.4-5.1,1.1-5.4-1.1c-0.3-2.4,3.6-3,5.2-2.8
				c1.1,0.2,2.3,0.6,3.3,1.1c0.6,0.3,1.2,0.7,1.7,1.1s1,1,1.6,1.3c0.1,0.1,0.2,0.2,0.3,0.3c0.1-0.2,0.2-0.4,0.3-0.7
				c0,0-0.9,0.2-1,0.2c-0.6,0.1-1.3,0.2-1.9,0.2c-1.4,0-2.9-0.3-4.2-0.8c-0.8-0.3-2.9-1.3-2.5-2.5c0.3-0.9,2.4-0.9,3.2-0.9
				c3.3-0.2,6.5,0.6,9.4,2.1c-0.1-0.8-0.2-1.6-0.3-2.4c-2.9,3.6-7.9,4.5-11.6,1.7c-0.1,0.9-0.2,1.8-0.4,2.7
				c4.9-1.6,10.1-0.8,14.5,1.9c0-0.9,0-1.7,0-2.6c-1.7,1-3.6,1.6-5.5,1.3c-0.9-0.1-1.8-0.3-2.6-0.7c-0.3-0.1-0.7-0.5-1-0.6
				c-0.4-0.4-0.5-0.3-0.3,0.3c0.2-0.1,0.4-0.2,0.6-0.3c3.5-1.7,7.6-1,10.7,1.1c0-0.9,0-1.7,0-2.6c-1.4,0.9-2.9,1.4-4.6,1.3
				c-0.4,0-0.8-0.1-1.2-0.2c-0.2,0-0.4-0.1-0.6-0.2s-0.2-0.1,0,0.1c0.3-0.6,0.8-1,1.4-1.3c1.1-0.6,2.4-0.7,3.7-0.7
				c0.7,0,1.3,0.1,2,0.3c0.3,0.1,0.7,0.1,1,0.2c0.2,0.1,0.6,0.4,0.8,0.4c0.1,0.1,0.1,0.1,0.2,0.2c0.3-0.3,0.2-0.4-0.2-0.3
				c-0.3-0.1-1,0.2-1.4,0.2c-0.9,0.1-1.8,0.1-2.7,0c-0.9-0.1-1.8-0.2-2.7-0.5c-0.3-0.1-0.5-0.4-0.8-0.5c-0.1-0.1-0.1-0.1-0.2-0.2
				c-0.2,0.3-0.1,0.4,0.2,0.2c0.7,0.1,1.4,0,2.1,0.1s1.4,0.3,2.1,0.5c1.6,0.5,3,1.4,4.3,2.6c0.4-0.9,0.7-1.7,1.1-2.6
				c-3.6,0.3-7.1,0.3-10.7-0.1c-1.7-0.2-3.4-0.6-5.1-1c-0.5-0.1-4.8-1.1-4.8-1.5c-0.5,0.5-1,1-1.5,1.5c4.9,0,9.8,0,14.7-0.1
				C365.2,425.8,365.2,422.8,363.2,422.8L363.2,422.8z"/>
		</g>
	</g>
	<g>
		<g>
			<path d="M346.2,427.4c-0.6-0.1-1.1-0.3-1.7-0.5c0.7,0.3-0.2-0.1-0.4-0.2c-0.2-0.1-1-0.8-0.4-0.2c-0.4-0.4-0.3-0.3,0.1,0.1
				c0.3,0.7,0.4,1.3,0.3,2.1c-0.4,0.7-0.8,1.3-1.2,2c0.5-0.5,0.2-0.4-0.9,0.4c0.1,0,0.2-0.1,0.4-0.1c0.4,0,0.9-0.2,1.3-0.3
				c1.1-0.2,2.1-0.4,3.2-0.6c2-0.4,4.1-0.8,6.1-1.2c2.2-0.4,3.5-2.9,3.2-4.9c-0.3-2.4-2.2-3.7-4.4-3.9c-4.8-0.5-10.8,0.5-14.5,3.7
				c-2.4,2.1-2.8,5.8-0.9,8.4c1.7,2.4,4.4,3.8,7.2,4.4c2.9,0.7,5.8,0.6,8.7,0.2c1.2-0.2,2.3-0.4,3.5-0.5c0.8-0.1-0.6,0.1,0.2,0
				c0.3,0,0.6-0.1,1-0.1c0.7-0.1,1.4-0.2,2.2-0.2c2.6-0.2,5.2-0.3,7.8-0.4c2.7-0.1,6.1,0.4,8.5-1c1.8-1,3.2-3,3.1-5.1
				c-0.1-2.2-1.3-3.9-3.1-5.1c-1.2-0.9-2.7-1.3-4.1-1.9s-2.8-1.1-4.2-1.7c-0.8,2.9-1.6,5.8-2.4,8.7c0.6,0.1,1.1,0.3,1.6,0.5
				c-0.4-0.1-0.2-0.1,0.1,0c0.3,0.2,0.6,0.3,0.9,0.5c0.2,0.1,0.4,0.3,0.7,0.4c0.5,0.3-0.4-0.4,0,0c1.1,1,0.4,0.4,1.4-2.3
				c-0.3-1.8,0.1-2.7,1.2-2.7c1.3-0.2,2.4,0.3,3.3,1.7c0.2,0.8,0.4,1.5,0.6,2.3c0,0.2-0.8,2.2-0.1,1.2c0.3-0.4,0.4-1,0.6-1.4
				c0.8-2.2-0.9-5-3.1-5.5c-1.2-0.3-2.4-0.4-3.6-0.3c-2.3,0.2-4.6,1.9-4.5,4.5c0.1,2.2,2,4.8,4.5,4.5c0.3,0,0.7,0,1,0
				c0.6-0.1-0.8-0.2,0.2,0.1c-1-1.8-2.1-3.7-3.1-5.5c0.6-1.8-0.7,1.2-0.6,1c-0.2,0.5-0.2,1.1-0.2,1.7c0,1.8,1.1,3.4,2.7,4.3
				c2.6,1.4,6.4,0.5,7.9-2.1c3.3-5.8-4.5-10-9-11.2c-2.3-0.6-5,0.8-5.5,3.1c-0.6,2.6,0.8,4.6,3.1,5.5c1.2,0.5,2.4,1,3.6,1.4
				c0.4,0.2,0.9,0.4,1.3,0.5c0.6,0.2,0.6,0.2,0.1,0c0.2,0.1,0.5,0.2,0.7,0.4c0.7,0.4,0.5,0.2-0.5-0.7c-0.4-3.1,0.3-4.6,2.2-4.7
				c-0.4,0-0.9,0-1.3,0c-1.3,0-2.6,0-3.9,0.1c-4.9,0.1-9.9,0.5-14.7,1.3c-0.6,0.1-1.2,0.2-1.9,0.3c0.8-0.1-0.6,0.1-0.7,0.1
				c-0.6,0.1-1.2,0.1-1.9,0.1c-0.2,0-1.9-0.2-1-0.1c-0.4-0.1-0.9-0.2-1.3-0.3c-0.2,0-1.7-0.6-0.9-0.2c-0.2-0.1-0.5-0.2-0.7-0.4
				c-0.4-0.3-0.4-0.3,0,0c-0.1-0.1-0.2-0.2-0.3-0.3c0.3,0.5,0.4,0.5,0.1,0.1c0.5,1,0.5,1.9,0,2.9c-0.2,0.3-0.4,0.5-0.7,0.7
				c0.2,0,1.1-0.6,1.3-0.7c-0.7,0.4,0.1,0,0.4-0.1c0.5-0.2,1-0.3,1.6-0.5c0.5-0.1,1-0.2,1.4-0.3c0.3-0.1,0.3,0-0.2,0
				c0.3,0,0.6-0.1,0.8-0.1c1.1-0.1,2.3,0,3.4,0.1c-0.4-2.9-0.8-5.9-1.2-8.8c-2.3,0.5-4.5,0.9-6.8,1.4c-2.5,0.5-5.3,0.7-7.1,2.6
				c-2.4,2.5-1.7,6.3,0.5,8.6c1.7,1.7,4.2,2.8,6.5,3.3s5-0.7,5.5-3.1C349.9,430.6,348.7,427.9,346.2,427.4L346.2,427.4z"/>
		</g>
	</g>
</g>
<g>
	<g>
		<g>
			<path d="M267.1,440.1c-0.2,5.9-0.3,11.8-0.5,17.7c0,1.1-0.1,2.2,0.4,3.2c0.6,1,1.7,1.4,2.8,1.5c2.8,0.3,5.7,0.4,8.6,0.5
				c2.2,0,5,0.3,6.8-1.2c1.6-1.3,1.9-3.3,2.4-5.2c0.7-2.2,2.4-2.8,4.5-3c2.6-0.2,5.3,0.1,7.9,0.1c4,0.1,10,1.1,12.7-2.7
				c2.8-3.9-0.6-8.7-4.4-10.1c-2.3-0.9-4.9-1-7.4-1c-2.7,0-5.4,0.2-8,0.8c-0.7,0.2-1.4,0.3-2,0.5c-0.1,0-0.8,0.2-0.8,0.2
				c0.1,0.1,0.2,0.2,0.4,0.4v-0.1c0.1-0.2,0-1,0.1-1.2c0.1-0.5,0.2-1.1,0.2-1.6c0-2-0.9-3.8-2.3-5.3c-3.4-3.6-9.1-4.8-13.8-3.9
				c-4.8,0.9-9.3,5.7-7.4,10.8c0.7,1.8,3.6,1,2.9-0.8c-1.5-4.1,2.8-6.9,6.3-7.2c3.5-0.2,7.9,0.7,10.2,3.6c1.1,1.3,1.1,2.6,0.9,4.3
				c-0.2,1.5-0.1,3.4,1.7,4c0.9,0.3,1.7,0,2.5-0.2c1.2-0.4,2.4-0.6,3.6-0.8c2.4-0.4,5-0.4,7.4-0.3c2,0.1,4.2,0.3,5.9,1.4
				c1.3,0.8,2.5,2.6,2,4.2s-2.3,2.1-3.8,2.2c-2.2,0.2-4.4,0-6.6,0c-2.4-0.1-4.8-0.2-7.2-0.1c-1.8,0-3.8,0.2-5.4,1.2
				c-1.6,0.9-2.5,2.4-3,4.2c-0.4,1.3-0.5,3.4-2,3.9c-1.1,0.4-2.6,0.2-3.8,0.2c-1.4,0-2.8,0-4.2-0.1c-1.4-0.1-2.8-0.2-4.1-0.3
				c-0.4,0-0.8,0-1-0.3c-0.2-0.4,0-1.5,0-1.9c0.2-5.7,0.3-11.5,0.5-17.2C270.1,438.2,267.1,438.2,267.1,440.1L267.1,440.1z"/>
		</g>
	</g>
	<g>
		<g>
			<path d="M304.6,445.7c-1,0-2,0-3,0c-0.4,0-0.8,0.2-1.1,0.4c-0.3,0.3-0.5,0.7-0.4,1.1c0,0.8,0.7,1.5,1.5,1.5c0.3,0,0.6,0,0.9,0
				c0.4,0,0.8-0.2,1.1-0.4c0.3-0.3,0.5-0.7,0.4-1.1c0-0.8-0.7-1.5-1.5-1.5c-0.3,0-0.6,0-0.9,0c-0.4,0-0.8,0.2-1.1,0.4
				c-0.3,0.3-0.5,0.7-0.4,1.1c0,0.8,0.7,1.5,1.5,1.5c1,0,2,0,3,0c0.4,0,0.8-0.2,1.1-0.4c0.3-0.3,0.5-0.7,0.4-1.1
				C306.1,446.4,305.4,445.7,304.6,445.7L304.6,445.7z"/>
		</g>
	</g>
	<g>
		<g>
			<path d="M267.1,431c-5.9-0.2-11.8-0.2-17.5,0.2c-2.2,0.2-4.5,0.7-5.7,2.4c-1.1,1.6-0.8,3.7-0.8,5.6c0.1,4.5,0.7,8.9,1.7,13.3
				c0.7,3.5,1.3,8.4,5.7,10.2c4.5,2,9.5,0,14.1,0.8c2.7,0.4,3.8-2.7,1.1-3.2c-2.4-0.4-4.6-0.3-7-0.1c-2,0.1-4.5,0.4-6.3-0.4
				c-2.1-1-2.4-3.6-2.9-5.3c-0.6-2.4-1.1-4.8-1.4-7.2c-0.3-2.4-0.6-4.8-0.7-7.1c0-1.2-0.1-2.4,0-3.6c0-0.9,0.1-1.6,1.3-2
				c1.3-0.3,2.9-0.2,4.2-0.3c1.5-0.1,3.2-0.1,4.8-0.1c3.2,0,6.3,0,9.5,0.1C269.9,434.4,269.9,431.1,267.1,431L267.1,431z"/>
		</g>
	</g>
</g>
<g>
	<g>
		<path d="M687.4,527.7c1.9,0,1.9-3,0-3S685.5,527.7,687.4,527.7L687.4,527.7z"/>
	</g>
</g>
<polyline class="st3" points="247.3,436.6 267,436.6 247.3,440.2 267.1,440.1 247.3,443.4 267.1,444.4 248,447.2 266.6,448.7 
	248.7,450.9 266.6,453.1 249.4,454.4 266.6,457.8 247.3,457.8 "/>
</svg>
